<?xml version="1.0" encoding="UTF-8"?>
<svg width="17px" height="13px" viewBox="0 0 17 13" version="1.1" xmlns="http://www.w3.org/2000/svg" xmlns:xlink="http://www.w3.org/1999/xlink">
    <title>Path</title>
    <g id="Page-1" stroke="none" stroke-width="1" fill="none" fill-rule="evenodd">
        <g id="home" transform="translate(-1243.000000, -746.000000)" fill="#FFFFFF" fill-rule="nonzero">
            <g id="Group-9" transform="translate(0.000000, -18.000000)">
                <g id="Group-8" transform="translate(1182.000000, 702.000000)">
                    <g id="right-arrow" transform="translate(61.218911, 62.000000)">
                        <path d="M15.7442588,5.89286412 L9.96609568,0.249511375 C9.80115397,0.0884215464 9.5813184,0 9.34691385,0 C9.11224915,0 8.89254366,0.0885485889 8.72760195,0.249511375 L8.20298844,0.762000625 C8.03817681,0.922836369 7.94738082,1.13766516 7.94738082,1.3667227 C7.94738082,1.59565319 8.03817681,1.8177234 8.20298844,1.97855914 L11.5738871,5.27797866 L0.864383029,5.27797866 C0.381525271,5.27797866 0,5.64716402 0,6.11887264 L0,6.84339575 C0,7.31510437 0.381525271,7.72151317 0.864383029,7.72151317 L11.6121307,7.72151317 L8.20311852,11.0393538 C8.03830689,11.2004437 7.9475109,11.4094285 7.9475109,11.638486 C7.9475109,11.8672895 8.03830689,12.0793234 8.20311852,12.2402861 L8.72773203,12.7511238 C8.89267374,12.9122137 9.11237923,13 9.34704393,13 C9.58144848,13 9.80128405,12.9110703 9.96622576,12.7499805 L15.7443889,7.10675475 C15.9097209,6.94515675 16.0006469,6.72943867 16,6.50012704 C16.0005169,6.27005316 15.9097209,6.05420804 15.7442588,5.89286412 Z" id="Path"></path>
                    </g>
                </g>
            </g>
        </g>
    </g>
</svg>