<?xml version="1.0" encoding="UTF-8"?>
<svg width="123px" height="107px" viewBox="0 0 123 107" version="1.1" xmlns="http://www.w3.org/2000/svg" xmlns:xlink="http://www.w3.org/1999/xlink">
    <title>4</title>
    <defs>
        <path d="M0.363,40.926 C0.363,63.377 18.564,81.578 41.015,81.578 L41.015,81.578 C63.467,81.578 81.667,63.377 81.667,40.926 L81.667,40.926 C81.667,18.475 63.467,0.274 41.015,0.274 L41.015,0.274 C18.564,0.274 0.363,18.475 0.363,40.926" id="path-1"></path>
        <path d="M0.363,40.926 C0.363,63.377 18.564,81.578 41.015,81.578 L41.015,81.578 C63.467,81.578 81.667,63.377 81.667,40.926 L81.667,40.926 C81.667,18.475 63.467,0.274 41.015,0.274 L41.015,0.274 C18.564,0.274 0.363,18.475 0.363,40.926" id="path-3"></path>
        <path d="M0.363,40.926 C0.363,63.377 18.564,81.578 41.015,81.578 L41.015,81.578 C63.467,81.578 81.667,63.377 81.667,40.926 L81.667,40.926 C81.667,18.475 63.467,0.274 41.015,0.274 L41.015,0.274 C18.564,0.274 0.363,18.475 0.363,40.926" id="path-5"></path>
        <path d="M0.363,40.926 C0.363,63.377 18.564,81.578 41.015,81.578 L41.015,81.578 C63.467,81.578 81.667,63.377 81.667,40.926 L81.667,40.926 C81.667,18.475 63.467,0.274 41.015,0.274 L41.015,0.274 C18.564,0.274 0.363,18.475 0.363,40.926" id="path-7"></path>
        <path d="M0.363,40.926 C0.363,63.377 18.564,81.578 41.015,81.578 L41.015,81.578 C63.467,81.578 81.667,63.377 81.667,40.926 L81.667,40.926 C81.667,18.475 63.467,0.274 41.015,0.274 L41.015,0.274 C18.564,0.274 0.363,18.475 0.363,40.926" id="path-9"></path>
        <path d="M0.363,40.926 C0.363,63.377 18.564,81.578 41.015,81.578 L41.015,81.578 C63.467,81.578 81.667,63.377 81.667,40.926 L81.667,40.926 C81.667,18.475 63.467,0.274 41.015,0.274 L41.015,0.274 C18.564,0.274 0.363,18.475 0.363,40.926" id="path-11"></path>
        <path d="M0.363,40.926 C0.363,63.377 18.564,81.578 41.015,81.578 L41.015,81.578 C63.467,81.578 81.667,63.377 81.667,40.926 L81.667,40.926 C81.667,18.475 63.467,0.274 41.015,0.274 L41.015,0.274 C18.564,0.274 0.363,18.475 0.363,40.926" id="path-13"></path>
        <path d="M0.363,40.926 C0.363,63.377 18.564,81.578 41.015,81.578 L41.015,81.578 C63.467,81.578 81.667,63.377 81.667,40.926 L81.667,40.926 C81.667,18.475 63.467,0.274 41.015,0.274 L41.015,0.274 C18.564,0.274 0.363,18.475 0.363,40.926" id="path-15"></path>
        <path d="M0.363,40.926 C0.363,63.377 18.564,81.578 41.015,81.578 L41.015,81.578 C63.467,81.578 81.667,63.377 81.667,40.926 L81.667,40.926 C81.667,18.475 63.467,0.274 41.015,0.274 L41.015,0.274 C18.564,0.274 0.363,18.475 0.363,40.926" id="path-17"></path>
        <path d="M0.363,40.926 C0.363,63.377 18.564,81.578 41.015,81.578 L41.015,81.578 C63.467,81.578 81.667,63.377 81.667,40.926 L81.667,40.926 C81.667,18.475 63.467,0.274 41.015,0.274 L41.015,0.274 C18.564,0.274 0.363,18.475 0.363,40.926" id="path-19"></path>
        <path d="M0.363,40.926 C0.363,63.377 18.564,81.578 41.015,81.578 L41.015,81.578 C63.467,81.578 81.667,63.377 81.667,40.926 L81.667,40.926 C81.667,18.475 63.467,0.274 41.015,0.274 L41.015,0.274 C18.564,0.274 0.363,18.475 0.363,40.926" id="path-21"></path>
        <path d="M0.363,40.926 C0.363,63.377 18.564,81.578 41.015,81.578 L41.015,81.578 C63.467,81.578 81.667,63.377 81.667,40.926 L81.667,40.926 C81.667,18.475 63.467,0.274 41.015,0.274 L41.015,0.274 C18.564,0.274 0.363,18.475 0.363,40.926" id="path-23"></path>
        <path d="M0.363,40.926 C0.363,63.377 18.564,81.578 41.015,81.578 L41.015,81.578 C63.467,81.578 81.667,63.377 81.667,40.926 L81.667,40.926 C81.667,18.475 63.467,0.274 41.015,0.274 L41.015,0.274 C18.564,0.274 0.363,18.475 0.363,40.926" id="path-25"></path>
        <path d="M0.363,40.926 C0.363,63.377 18.564,81.578 41.015,81.578 L41.015,81.578 C63.467,81.578 81.667,63.377 81.667,40.926 L81.667,40.926 C81.667,18.475 63.467,0.274 41.015,0.274 L41.015,0.274 C18.564,0.274 0.363,18.475 0.363,40.926" id="path-27"></path>
        <path d="M0.363,40.926 C0.363,63.377 18.564,81.578 41.015,81.578 L41.015,81.578 C63.467,81.578 81.667,63.377 81.667,40.926 L81.667,40.926 C81.667,18.475 63.467,0.274 41.015,0.274 L41.015,0.274 C18.564,0.274 0.363,18.475 0.363,40.926" id="path-29"></path>
        <path d="M0.363,40.926 C0.363,63.377 18.564,81.578 41.015,81.578 L41.015,81.578 C63.467,81.578 81.667,63.377 81.667,40.926 L81.667,40.926 C81.667,18.475 63.467,0.274 41.015,0.274 L41.015,0.274 C18.564,0.274 0.363,18.475 0.363,40.926" id="path-31"></path>
    </defs>
    <g id="Page-1" stroke="none" stroke-width="1" fill="none" fill-rule="evenodd">
        <g id="home" transform="translate(-423.000000, -2469.000000)">
            <g id="Group-3-Copy-2" transform="translate(0.000000, 1900.000000)">
                <g id="Group-19" transform="translate(422.000000, 134.000000)">
                    <g id="4" transform="translate(1.000000, 435.000000)">
                        <g id="Group" fill="#38AA47">
                            <path d="M28.4131,104.0069 C25.0181,107.3009 20.1061,107.0109 16.6581,103.4589 C14.5591,101.2959 13.6921,98.8239 14.0571,96.3559 L18.4391,96.6699 C18.2471,98.1139 18.5231,99.3479 19.4901,100.3419 C20.9911,101.8889 23.0761,101.8889 24.7661,100.2499 C26.4551,98.6099 26.5171,96.5259 25.0161,94.9779 C24.0501,93.9839 22.8251,93.6699 21.3761,93.8189 L21.1911,89.4289 C23.6711,89.1389 26.1151,90.0779 28.2141,92.2409 C31.6621,95.7929 31.8081,100.7119 28.4131,104.0069" id="Fill-405"></path>
                            <path d="M11.5752,80.732 C9.3992,81.741 8.7292,83.75 9.5352,85.487 C10.3412,87.224 12.3062,88.01 14.4822,87.001 C16.6592,85.991 17.3282,83.983 16.5222,82.246 C15.7182,80.509 13.7522,79.723 11.5752,80.732 M16.6862,91.753 C12.4542,93.715 7.8332,91.808 5.7212,87.255 C3.6102,82.703 5.1382,77.943 9.3712,75.981 C13.6042,74.018 18.2242,75.926 20.3362,80.478 C22.4472,85.029 20.9192,89.789 16.6862,91.753" id="Fill-407"></path>
                            <polygon id="Fill-409" points="0 58.5801 15.352 57.3981 15.679 61.6521 9.154 68.0231 16.128 67.4861 16.517 72.5301 1.165 73.7121 0.838 69.4571 7.362 63.0871 0.389 63.6241"></polygon>
                            <path d="M14.2334,57.2188 L10.9424,54.7118 C12.1154,53.4988 13.1004,51.7448 13.4954,50.0968 C13.8384,48.6628 13.6624,48.0778 13.1484,47.9548 C11.2654,47.5038 10.8014,56.1488 5.2174,54.8118 C2.4354,54.1458 0.7254,51.2708 1.8374,46.6268 C2.3184,44.6148 3.2434,42.6418 4.4944,41.2908 L7.7904,43.6858 C6.6874,44.9828 5.9914,46.2858 5.6784,47.5918 C5.3254,49.0688 5.6404,49.6418 6.1544,49.7648 C7.9524,50.1948 8.4354,41.5548 13.9564,42.8768 C16.6954,43.5318 18.4484,46.4178 17.3374,51.0608 C16.7374,53.5648 15.5124,55.9418 14.2334,57.2188" id="Fill-411"></path>
                            <polygon id="Fill-413" points="5.3095 37.2559 7.5645 32.5799 21.4335 39.2669 19.1785 43.9429"></polygon>
                            <path d="M20.1777,38.0977 L18.2197,34.4547 C19.7877,33.8357 21.4097,32.6457 22.4497,31.3087 C23.3557,30.1457 23.4367,29.5407 23.0207,29.2157 C21.4927,28.0277 17.4967,35.7047 12.9667,32.1787 C10.7087,30.4227 10.3417,27.0977 13.2737,23.3317 C14.5437,21.6997 16.2007,20.2857 17.8997,19.5727 L19.9087,23.1157 C18.3687,23.8397 17.1957,24.7387 16.3707,25.7977 C15.4387,26.9957 15.4897,27.6477 15.9067,27.9727 C17.3647,29.1067 21.3767,21.4427 25.8567,24.9287 C28.0777,26.6577 28.4797,30.0087 25.5487,33.7757 C23.9677,35.8067 21.8697,37.4637 20.1777,38.0977" id="Fill-415"></path>
                            <polygon id="Fill-417" points="25.5849 16.9834 21.9539 19.6584 19.5659 16.4184 31.0049 7.9884 33.3929 11.2284 29.7639 13.9034 36.5109 23.0584 32.3319 26.1374"></polygon>
                            <polygon id="Fill-419" points="50.705 12.522 52.05 16.2 40.026 20.598 34.736 6.135 46.492 1.836 47.837 5.513 40.875 8.06 41.494 9.754 47.61 7.517 48.894 11.029 42.779 13.266 43.475 15.167"></polygon>
                            <polygon id="Fill-421" points="66.8252 0 67.5592 15.387 63.2952 15.59 57.1142 8.879 57.4472 15.869 52.3922 16.11 51.6572 0.724 55.9222 0.521 62.1022 7.231 61.7682 0.242"></polygon>
                            <polygon id="Fill-423" points="74.7373 5.8296 70.4013 4.5866 71.5103 0.7156 85.1753 4.6306 84.0653 8.5016 79.7293 7.2596 76.5963 18.1966 71.6033 16.7656"></polygon>
                            <polygon id="Fill-425" points="96.915 16.5245 95.256 18.5775 100.251 22.6135 97.792 25.6595 92.796 21.6235 89.699 25.4555 85.661 22.1935 95.337 10.2165 105.073 18.0825 102.612 21.1275"></polygon>
                            <polygon id="Fill-427" points="107.8935 21.2832 110.9245 25.4992 101.6875 32.1382 105.7455 37.7842 102.4755 40.1342 95.3875 30.2722"></polygon>
                            <path d="M112.1386,48.9834 L115.4776,46.5164 L111.3476,46.0974 L112.1386,48.9834 Z M108.9096,51.3514 L107.3626,45.7074 L104.4996,45.4204 L103.1046,40.3274 L119.7376,42.7474 L121.0866,47.6704 L108.0146,58.2354 L106.5946,53.0584 L108.9096,51.3514 Z" id="Fill-429"></path>
                            <polygon id="Fill-431" points="121.997 73.8887 106.983 66.5397 107.265 61.4457 122.995 55.7927 122.688 61.3707 113.503 64.5427 122.278 68.7937"></polygon>
                            <path d="M109.4131,85.25 C111.6241,86.179 113.5591,85.321 114.3001,83.556 C115.0411,81.792 114.2981,79.81 112.0871,78.881 C109.8761,77.953 107.9411,78.811 107.2001,80.575 C106.4601,82.34 107.2021,84.322 109.4131,85.25 M114.1141,74.053 C118.4151,75.859 120.1161,80.558 118.1751,85.183 C116.2331,89.808 111.6861,91.883 107.3871,90.078 C103.0871,88.272 101.3841,83.574 103.3271,78.949 C105.2671,74.324 109.8131,72.248 114.1141,74.053" id="Fill-433"></path>
                            <path d="M103.5508,100.0308 L104.8268,98.6348 L102.1638,96.1998 L100.8878,97.5968 C99.9228,98.6528 99.9658,99.6158 100.7938,100.3728 C101.6218,101.1298 102.5858,101.0868 103.5508,100.0308 L103.5508,100.0308 Z M98.3228,94.5968 L99.2728,93.5578 L96.4138,90.9458 L99.9168,87.1128 L111.2858,97.5028 L106.2838,102.9758 C103.3898,106.1428 99.8928,106.6428 97.2628,104.2388 C95.6218,102.7388 95.0998,100.8318 95.6488,98.8288 L89.9578,98.0108 L93.6978,93.9178 L98.3228,94.5968 Z" id="Fill-435"></path>
                        </g>
                        <g id="Group-486" transform="translate(20.627900, 21.739300)">
                            <g id="Group-440">
                                <mask id="mask-2" fill="white">
                                    <use xlink:href="#path-1"></use>
                                </mask>
                                <g id="Clip-439"></g>
                                <path d="M33.9551,62.8594 C30.0571,58.9604 30.0571,52.6384 33.9551,48.7394 C37.8541,44.8404 44.1761,44.8404 48.0751,48.7394 C51.9751,52.6384 51.9751,58.9604 48.0751,62.8594 C44.1761,66.7584 37.8541,66.7584 33.9551,62.8594" id="Fill-438" fill="#DACCAB" mask="url(#mask-2)"></path>
                            </g>
                            <g id="Group-443">
                                <mask id="mask-4" fill="white">
                                    <use xlink:href="#path-3"></use>
                                </mask>
                                <g id="Clip-442"></g>
                                <path d="M17.7871,48.3213 C13.8891,44.4223 13.8891,38.1003 17.7871,34.2013 C21.6861,30.3023 28.0091,30.3023 31.9071,34.2013 C35.8071,38.1003 35.8071,44.4223 31.9071,48.3213 C28.0091,52.2203 21.6861,52.2203 17.7871,48.3213" id="Fill-441" fill="#DACCAB" mask="url(#mask-4)"></path>
                            </g>
                            <g id="Group-446">
                                <mask id="mask-6" fill="white">
                                    <use xlink:href="#path-5"></use>
                                </mask>
                                <g id="Clip-445"></g>
                                <path d="M50.123,76.8398 C46.225,72.9408 46.225,66.6188 50.123,62.7198 C54.022,58.8208 60.344,58.8208 64.243,62.7198 C68.143,66.6188 68.143,72.9408 64.243,76.8398 C60.344,80.7388 54.022,80.7388 50.123,76.8398" id="Fill-444" fill="#DACCAB" mask="url(#mask-6)"></path>
                            </g>
                            <g id="Group-449">
                                <mask id="mask-8" fill="white">
                                    <use xlink:href="#path-7"></use>
                                </mask>
                                <g id="Clip-448"></g>
                                <path d="M31.7217,76.7466 C27.8227,80.6456 21.5007,80.6456 17.6017,76.7466 C13.7027,72.8476 13.7027,66.5256 17.6017,62.6266 C21.5007,58.7276 27.8227,58.7276 31.7217,62.6266 C35.6207,66.5256 35.6207,72.8476 31.7217,76.7466" id="Fill-447" fill="#DACCAB" mask="url(#mask-8)"></path>
                            </g>
                            <g id="Group-452">
                                <mask id="mask-10" fill="white">
                                    <use xlink:href="#path-9"></use>
                                </mask>
                                <g id="Clip-451"></g>
                                <path d="M64.2432,48.4141 C60.3442,52.3131 54.0222,52.3131 50.1232,48.4141 C46.2242,44.5151 46.2242,38.1931 50.1232,34.2941 C54.0222,30.3951 60.3442,30.3951 64.2432,34.2941 C68.1422,38.1931 68.1422,44.5151 64.2432,48.4141" id="Fill-450" fill="#DACCAB" mask="url(#mask-10)"></path>
                            </g>
                            <g id="Group-455">
                                <mask id="mask-12" fill="white">
                                    <use xlink:href="#path-11"></use>
                                </mask>
                                <g id="Clip-454"></g>
                                <path d="M33.9082,33.1152 C30.0092,29.2162 30.0092,22.8942 33.9082,18.9952 C37.8072,15.0962 44.1292,15.0962 48.0282,18.9952 C51.9282,22.8942 51.9282,29.2162 48.0282,33.1152 C44.1292,37.0142 37.8072,37.0142 33.9082,33.1152" id="Fill-453" fill="#DACCAB" mask="url(#mask-12)"></path>
                            </g>
                            <g id="Group-458">
                                <mask id="mask-14" fill="white">
                                    <use xlink:href="#path-13"></use>
                                </mask>
                                <g id="Clip-457"></g>
                                <path d="M66.2441,62.6343 C62.3451,58.7353 62.3451,52.4133 66.2441,48.5143 C70.1431,44.6153 76.4651,44.6153 80.3641,48.5143 C84.2631,52.4133 84.2631,58.7353 80.3641,62.6343 C76.4651,66.5333 70.1431,66.5333 66.2441,62.6343" id="Fill-456" fill="#DACCAB" mask="url(#mask-14)"></path>
                            </g>
                            <g id="Group-461">
                                <mask id="mask-16" fill="white">
                                    <use xlink:href="#path-15"></use>
                                </mask>
                                <g id="Clip-460"></g>
                                <path d="M1.3867,62.4487 C-2.5123,58.5497 -2.5123,52.2277 1.3867,48.3287 C5.2857,44.4297 11.6077,44.4297 15.5067,48.3287 C19.4057,52.2277 19.4057,58.5497 15.5067,62.4487 C11.6077,66.3477 5.2857,66.3477 1.3867,62.4487" id="Fill-459" fill="#DACCAB" mask="url(#mask-16)"></path>
                            </g>
                            <g id="Group-464">
                                <mask id="mask-18" fill="white">
                                    <use xlink:href="#path-17"></use>
                                </mask>
                                <g id="Clip-463"></g>
                                <path d="M33.7227,91.9678 C29.8237,88.0688 29.8237,81.7468 33.7227,77.8478 C37.6217,73.9488 43.9437,73.9488 47.8427,77.8478 C51.7417,81.7468 51.7417,88.0688 47.8427,91.9678 C43.9437,95.8668 37.6217,95.8668 33.7227,91.9678" id="Fill-462" fill="#DACCAB" mask="url(#mask-18)"></path>
                            </g>
                            <g id="Group-467">
                                <mask id="mask-20" fill="white">
                                    <use xlink:href="#path-19"></use>
                                </mask>
                                <g id="Clip-466"></g>
                                <path d="M1.793,33.7627 C-2.105,29.8637 -2.105,23.5417 1.793,19.6427 C5.692,15.7437 12.015,15.7437 15.913,19.6427 C19.813,23.5417 19.813,29.8637 15.913,33.7627 C12.015,37.6617 5.692,37.6617 1.793,33.7627" id="Fill-465" fill="#DACCAB" mask="url(#mask-20)"></path>
                            </g>
                            <g id="Group-470">
                                <mask id="mask-22" fill="white">
                                    <use xlink:href="#path-21"></use>
                                </mask>
                                <g id="Clip-469"></g>
                                <path d="M17.9141,18.5566 C14.0151,14.6576 14.0151,8.3356 17.9141,4.4366 C21.8131,0.5376 28.1351,0.5376 32.0341,4.4366 C35.9341,8.3356 35.9341,14.6576 32.0341,18.5566 C28.1351,22.4556 21.8131,22.4556 17.9141,18.5566" id="Fill-468" fill="#DACCAB" mask="url(#mask-22)"></path>
                            </g>
                            <g id="Group-473">
                                <mask id="mask-24" fill="white">
                                    <use xlink:href="#path-23"></use>
                                </mask>
                                <g id="Clip-472"></g>
                                <path d="M-14.6074,47.8901 C-18.5064,43.9911 -18.5064,37.6691 -14.6074,33.7701 C-10.7084,29.8711 -4.3864,29.8711 -0.4874,33.7701 C3.4116,37.6691 3.4116,43.9911 -0.4874,47.8901 C-4.3864,51.7891 -10.7084,51.7891 -14.6074,47.8901" id="Fill-471" fill="#DACCAB" mask="url(#mask-24)"></path>
                            </g>
                            <g id="Group-476">
                                <mask id="mask-26" fill="white">
                                    <use xlink:href="#path-25"></use>
                                </mask>
                                <g id="Clip-475"></g>
                                <path d="M80.0664,33.8574 C76.1674,37.7564 69.8454,37.7564 65.9464,33.8574 C62.0464,29.9584 62.0464,23.6364 65.9464,19.7374 C69.8454,15.8384 76.1674,15.8384 80.0664,19.7374 C83.9644,23.6364 83.9644,29.9584 80.0664,33.8574" id="Fill-474" fill="#DACCAB" mask="url(#mask-26)"></path>
                            </g>
                            <g id="Group-479">
                                <mask id="mask-28" fill="white">
                                    <use xlink:href="#path-27"></use>
                                </mask>
                                <g id="Clip-478"></g>
                                <path d="M49.7314,18.5581 C45.8324,14.6591 45.8324,8.3371 49.7314,4.4381 C53.6294,0.5391 59.9524,0.5391 63.8504,4.4381 C67.7504,8.3371 67.7504,14.6591 63.8504,18.5581 C59.9524,22.4571 53.6294,22.4571 49.7314,18.5581" id="Fill-477" fill="#DACCAB" mask="url(#mask-28)"></path>
                            </g>
                            <g id="Group-482">
                                <mask id="mask-30" fill="white">
                                    <use xlink:href="#path-29"></use>
                                </mask>
                                <g id="Clip-481"></g>
                                <path d="M82.0674,48.0776 C78.1684,44.1786 78.1684,37.8566 82.0674,33.9576 C85.9654,30.0586 92.2884,30.0586 96.1864,33.9576 C100.0864,37.8566 100.0864,44.1786 96.1864,48.0776 C92.2884,51.9766 85.9654,51.9766 82.0674,48.0776" id="Fill-480" fill="#DACCAB" mask="url(#mask-30)"></path>
                            </g>
                            <g id="Group-485">
                                <mask id="mask-32" fill="white">
                                    <use xlink:href="#path-31"></use>
                                </mask>
                                <g id="Clip-484"></g>
                                <path d="M32.6895,1.7832 C28.7915,-2.1158 28.7915,-8.4378 32.6895,-12.3368 C36.5885,-16.2358 42.9105,-16.2358 46.8095,-12.3368 C50.7095,-8.4378 50.7095,-2.1158 46.8095,1.7832 C42.9105,5.6822 36.5885,5.6822 32.6895,1.7832" id="Fill-483" fill="#DACCAB" mask="url(#mask-32)"></path>
                            </g>
                        </g>
                    </g>
                </g>
            </g>
        </g>
    </g>
</svg>