<?xml version="1.0" encoding="UTF-8"?>
<svg width="65px" height="50px" viewBox="0 0 65 50" version="1.1" xmlns="http://www.w3.org/2000/svg" xmlns:xlink="http://www.w3.org/1999/xlink">
    <title>Ресурс 2</title>
    <g id="Page-1" stroke="none" stroke-width="1" fill="none" fill-rule="evenodd">
        <g id="recipes" transform="translate(-22.000000, -19.000000)" fill-rule="nonzero">
            <g id="header" transform="translate(0.000000, -12.000000)">
                <g id="Group" transform="translate(22.000000, 0.000000)">
                    <g id="Ресурс-2" transform="translate(0.000000, 31.000000)">
                        <path d="M32.4446767,49.712029 L32.4751103,49.712029 C33.6789307,48.2001349 35.3494005,47.2092314 39.2381461,46.3068622 C42.5655596,45.5236739 45.9606036,44.811994 46.7383527,39.9664418 C50.873949,41.5702753 58.5702836,40.64407 62.0329579,33.026712 C67.6936188,20.5740173 61.1808154,8.40395147 53.1869072,5.02262091 C50.4174441,3.85124356 45.2978261,2.10098787 38.6091837,4.34158757 C37.5255629,3.72104625 36.2508688,3.53038724 35.0349194,3.80697639 C35.1059312,2.3121082 33.1243618,0.565257676 32.4514397,0 C31.7751362,0.565257676 29.8003297,2.3121082 29.8713416,3.80697639 C28.6554046,3.5300527 27.3805896,3.72072979 26.2970772,4.34158757 C19.6084349,2.0975827 14.4888169,3.84783839 11.7193537,5.02262091 C3.73220857,8.39714113 -2.78397634,20.567207 2.88006607,33.026712 C6.34612187,40.6508803 14.0593641,41.5770857 18.1645268,39.9392005 C18.9456574,44.7847527 22.3407013,45.4964326 25.6647334,46.2796209 C29.5703865,47.1990159 31.2374748,48.1899194 32.4446767,49.6847876 L32.4446767,49.6847876 L32.4446767,49.712029 Z" id="Path" fill="#048159"></path>
                        <path d="M48.4987181,43.131956 C48.5116882,42.7148634 48.8559104,42.3858846 49.2707856,42.3940783 C49.6856608,42.402272 50.0167733,42.7445887 50.013449,43.1618717 C50.0101246,43.5791547 49.6736006,43.9160923 49.2586482,43.9176003 C49.0527352,43.9197018 48.854954,43.8368874 48.7113708,43.6884456 C48.5677876,43.5400039 48.4909368,43.3388935 48.4987181,43.131956 Z M49.2586482,44.0842521 C49.7700081,44.0763595 50.179687,43.6558513 50.1770833,43.1415524 C50.1744546,42.6272534 49.760519,42.2109824 49.2491056,42.2083389 C48.7376921,42.2057205 48.3195432,42.6177108 48.3116916,43.131956 C48.3110306,43.3836395 48.4109698,43.6250333 48.5890485,43.8018783 C48.7671273,43.9787233 49.0084049,44.076182 49.2586482,44.0723484 L49.2586482,44.0842521 Z M49.0621554,43.2176626 L49.2491786,43.2176626 L49.5332646,43.6938107 L49.7179205,43.6938107 L49.4101607,43.2176626 C49.4869928,43.2171117 49.5602676,43.1850263 49.6130106,43.1288393 C49.6657535,43.0726523 49.6933879,42.9972392 49.6895119,42.9200701 C49.6895119,42.7058034 49.5640406,42.6105738 49.3083632,42.6105738 L48.8988059,42.6105738 L48.8988059,43.6771455 L49.0621554,43.6771455 L49.0621554,43.2176626 Z M49.0621554,43.0795797 L49.0621554,42.7248493 L49.2870568,42.7248493 C49.4006912,42.7248493 49.5237951,42.7510375 49.5237951,42.884359 C49.5237951,43.0533915 49.4006912,43.0629145 49.2610155,43.0629145 L49.0621554,43.0795797 Z" id="Shape" fill="#FFD100"></path>
                        <path d="M32.9086019,8.85326247 C40.8527352,3.14687015 48.8575107,4.4921684 52.4488789,5.99493159 C61.6496541,9.8596688 66.1607629,22.9737594 61.1746233,32.637314 C57.037475,40.6577562 49.5380514,39.949164 46.6137479,38.8229474 C45.872565,43.4613167 42.7191685,44.4711461 39.030099,45.2208162 C35.3410295,45.9704862 34.0641734,46.3881106 32.9220779,47.8361033 C31.7766134,46.3881106 30.5401855,45.9739093 26.8140568,45.2208162 C23.0879282,44.467723 19.9715909,43.4613167 19.230408,38.8229474 C16.3027354,39.949164 8.80668088,40.6577562 4.66953257,32.637314 C-0.31660708,22.9737594 4.1945017,9.8596688 13.395277,5.99493159 C16.959693,4.4921684 24.9644686,3.14687015 32.9086019,8.85326247 Z" id="Path" fill="#FFD100"></path>
                        <path d="M32.4557261,6.56573967 C30.9833056,5.86694518 29.4210697,5.27934871 27.7922078,4.81167246 C28.5269668,4.70540641 29.2767333,4.66842044 30.0238703,4.70158456 C30.4810077,4.6977087 30.9184001,4.84024239 31.2250298,5.0930082 C31.8945286,5.540699 32.4557261,6.56573967 32.4557261,6.56573967 Z" id="Path" fill="#FFD100"></path>
                        <path d="M33.3884298,6.56573967 C34.8608502,5.86694518 36.4230862,5.27934871 38.0519481,4.81167246 C37.3171891,4.70540641 36.5674226,4.66842044 35.8202855,4.70158456 C35.3622662,4.69795269 34.9239918,4.84038467 34.6158441,5.0930082 C33.9496272,5.540699 33.3884298,6.56573967 33.3884298,6.56573967 Z" id="Path" fill="#FFD100"></path>
                        <path d="M32.4556286,1.87592562 L32.4556286,1.87592562 L33.0454299,2.8856109 C33.5985325,3.82914439 33.3888254,4.60555756 33.0716433,5.32278227 C32.889465,5.75655137 32.6835743,6.17198536 32.4556286,6.56573967 L32.4556286,6.56573967 C32.2276829,6.17198536 32.0217922,5.75655137 31.8396139,5.32278227 C31.5198105,4.6264476 31.315346,3.83958941 31.8658273,2.8856109 L32.4556286,1.87592562 L32.4556286,1.87592562 L32.4556286,1.87592562 Z" id="Path" fill="#FFD100"></path>
                        <path d="M32.9322458,11.4997308 L32.9053665,11.4997308 C42.4945502,4.25985042 55.2319697,4.60689736 59.8820854,15.0835919 C62.4826559,20.9249762 61.803954,29.1716364 56.8077676,32.8001669 C53.6561718,35.0886151 51.4587905,35.720859 46.1232532,34.4804239 C45.8544604,38.985162 43.771316,40.1087695 38.7650499,40.8715855 C36.5878281,41.2151964 34.6894788,41.3114074 32.9221661,43.1462893 L32.9221661,43.1462893 C31.1548533,41.3114074 29.2565041,41.2014519 27.0792823,40.8715855 C22.0662963,40.1087695 19.9898718,38.985162 19.721079,34.4804239 C14.3855416,35.720859 12.1881603,35.0886151 9.03320466,32.8001669 C4.04037813,29.1750725 3.36167627,20.9421567 5.96224675,15.0835919 C10.6123624,4.60689736 23.3665815,4.25985042 32.9389656,11.4997308 L32.9389656,11.4997308 L32.9322458,11.4997308 Z" id="Path" fill="#E1251B"></path>
                        <path d="M10.3817395,18.2470028 L8.39260616,19.3098378 L8.39260616,25.3362987 C8.39260616,26.1567327 7.85011525,26.8279969 7.54555896,27.2009215 L10.7941595,27.2009215 C12.2661816,27.2009215 13.8016529,26.7645998 13.8016529,23.7886618 L13.8016529,19.6193652 C13.8016529,17.1021244 12.4597017,15.912495 10.6291915,15.9460582 C9.72905946,15.9493747 8.8316796,16.0631112 7.95163402,16.2854196 L7.27272727,18.7392632 C8.16448014,18.4037039 9.08282477,18.1750558 10.0137339,18.0568112 C10.1596672,18.0568112 11.8030022,17.6838867 11.8030022,19.738701 L11.8030022,23.8408712 C11.8030022,25.3325695 10.8829884,25.1722119 10.3817395,25.1796704 L10.3817395,18.2470028 L10.3817395,18.2470028 Z" id="Path" fill="#FFFFFF"></path>
                        <path d="M15.6905644,21.7247431 C15.6905644,21.3340526 15.7122704,20.985687 15.7401782,20.7480169 C15.7773885,20.4224415 15.8425065,20.1554697 16.4843842,19.7712907 C16.6983435,19.6443163 17.4146418,19.2406028 18.0658222,18.9280504 C18.5992733,18.5940347 19.2892717,18.7708043 19.6162515,19.3252524 C19.8177015,19.6167059 19.9980567,19.9236069 20.1558009,20.243375 C20.476086,20.8505622 20.3466253,21.610397 19.845715,22.0633416 C19.163456,22.8153233 18.414871,23.4977403 17.6099959,24.1014436 C17.6099959,24.811198 18.1743522,24.9870087 18.4627321,25.1042159 C18.939743,25.2971719 19.4314271,25.4474711 19.9325391,25.5535099 L18.8937514,27.2009215 C17.1541697,26.6539548 16.8998993,26.4195405 16.5277963,26.1948935 C16.0390106,25.9079696 15.7355701,25.3666018 15.7339765,24.7786405 C15.7060687,24.4725996 15.6502533,22.9000704 15.6719593,21.7312546 L15.6905644,21.7247431 Z M17.5324745,23.1735537 C17.8121902,22.9351961 18.0744356,22.6750874 18.3169917,22.3954285 C18.8689445,21.7442777 18.1898565,20.7089479 17.9665947,20.4745336 C17.7433329,20.2401193 17.5324745,20.3247689 17.5324745,20.6536 L17.5324745,23.1735537 Z" id="Shape" fill="#FFFFFF"></path>
                        <path d="M23.1257748,15.9453678 L21.2632822,16.9789324 L21.2632822,24.3808175 C21.2632822,25.4143821 21.4614817,25.9578026 21.971554,26.4159807 C22.3280414,26.7132662 22.7032641,26.9757314 23.0937131,27.2009215 L24.0613932,25.4250374 C23.5717237,25.1018264 23.114116,24.9064792 23.114116,23.9297429 C23.1228601,23.3401494 23.1257748,15.9453678 23.1257748,15.9453678 Z" id="Path" fill="#FFFFFF"></path>
                        <path d="M29.5775056,26.7958195 L31.8159944,26.7958195 L31.8159944,18.2886782 C31.8159944,18.2886782 32.0425899,18.1345243 32.2211197,18.0305601 C32.3777533,17.9351582 32.5726347,17.9406929 32.7240705,18.0448441 C32.8755062,18.1489953 32.9573289,18.3337661 32.9352388,18.5217014 L32.9352388,24.7416299 C32.8905608,25.3148286 33.1067672,25.8765729 33.5188938,26.2580736 C33.6218918,26.3656228 33.9137193,26.6165709 33.9514852,26.6380807 C34.210011,26.8520339 34.4870059,27.0404564 34.7789021,27.2009215 L36.1865407,25.5052292 C35.7642491,25.2435261 35.1908939,25.0714474 35.1908939,24.0712399 C35.1908939,24.0712399 35.1908939,18.4930216 35.1908939,17.8513114 C35.1908939,17.2705458 35.1908939,17.2311111 34.8475674,16.836764 C34.6023566,16.5754107 34.3225667,16.3520704 34.0167172,16.173544 C33.4914277,15.8401415 33.0451033,15.8903311 32.4305488,16.2058087 C32.1146884,16.3671325 31.7061299,16.5643061 31.434902,16.7256298 C31.1797703,16.509588 30.907569,16.316504 30.6212182,16.1484492 C30.36029,15.9871254 29.9002325,15.7899518 29.1414809,16.2344885 L28.1115014,16.8618588 C27.7054901,16.5227907 27.2499212,16.254075 26.7622283,16.0659948 L24.9940968,17.5824384 L25.6807498,17.9409358 C26.2712714,18.2528284 26.2678381,18.181129 26.2678381,18.976993 L26.2678381,26.7922346 L28.5063269,26.7922346 L28.5063269,18.2671683 C28.5681257,18.2277336 28.805021,18.0699948 28.9286185,17.9982953 C29.0833425,17.9185039 29.2672668,17.932148 29.4096338,18.0339785 C29.5520007,18.1358091 29.6306297,18.3099612 29.6152715,18.4894367 L29.6152715,26.7922346 L29.5775056,26.7958195 Z" id="Path" fill="#FFFFFF"></path>
                        <path d="M38.4475681,23.0886876 L38.4475681,20.8359293 C38.4430873,20.6946091 38.5318781,20.564831 38.6722443,20.5075388 C38.9504149,20.3597631 39.0288732,20.4549964 39.2499832,20.6487467 C39.4167929,20.7548356 39.5135408,20.9317728 39.506756,21.118345 L39.506756,25.1575474 C39.506756,25.4005563 39.3748033,25.6304296 39.0395721,25.410408 C38.9108218,25.3298604 38.7913274,25.237433 38.6829432,25.13456 C38.5509905,25.0130556 38.4653995,24.9835004 38.4653995,24.7372076 L38.4653995,23.0952554 M36.2043722,23.0952554 L36.2043722,25.1279922 C36.1876284,25.6370043 36.4732925,26.1140088 36.9497266,26.372592 C37.3141365,26.6261835 37.704741,26.8461686 38.1159032,27.0293728 C38.7899319,27.3577632 39.2071877,27.1672968 39.8384209,26.8553259 C40.2820048,26.6301761 40.7064198,26.3743937 41.1080198,26.0901762 C41.5617195,25.8255215 41.8196303,25.3518067 41.7784822,24.8587121 L41.7784822,20.9410142 C41.7784822,20.261246 41.7784822,19.9919659 41.3291298,19.6471559 C41.0214679,19.4077772 40.6961559,19.1883242 40.3555328,18.990375 C39.8491198,18.6948236 39.4924908,18.6619846 38.6472803,19.0133624 C38.237157,19.1808415 37.7414428,19.3877275 37.163704,19.6701432 C36.4682776,19.9985337 36.1865407,20.3072207 36.1865407,20.8490649 L36.1865407,23.0788359" id="Shape" fill="#FFFFFF"></path>
                        <path d="M53.9079103,21.7278266 C53.9079103,21.3336334 53.9326609,20.9883072 53.9605053,20.7504882 C53.9976311,20.4247087 54.0595076,20.1543118 54.7030228,19.7731498 C54.9134028,19.6460958 55.6311697,19.2421293 56.2808725,18.9326388 C56.8114838,18.5921481 57.5037284,18.76855 57.8277841,19.3268319 C58.0403074,19.6144425 58.2306676,19.9194739 58.3970475,20.2390144 C58.7166059,20.8465821 58.587439,21.6068932 58.0876652,22.0601216 C57.4058483,22.8125926 56.6579339,23.49543 55.853925,24.099501 C55.853925,24.8097003 56.4200946,24.9856212 56.7078201,25.1029018 C57.1837487,25.2959788 57.6743172,25.4463721 58.1742922,25.5524774 L57.1378615,27.2009215 C55.4022268,26.653612 55.1485333,26.4223086 54.7772745,26.194263 C54.2895979,25.9071593 53.9868459,25.3654521 53.9852558,24.7771223 C53.9543176,24.4708896 53.9017226,22.8973748 53.9202856,21.7278266 L53.9079103,21.7278266 Z M55.7951423,23.1710296 C56.0742235,22.9325226 56.3358738,22.6722509 56.5778796,22.3924167 C57.1285801,21.7408577 56.447939,20.7048791 56.2282776,20.4735756 C56.0086161,20.2422722 55.7951423,20.3204593 55.7951423,20.6494965 L55.7951423,23.1710296 Z" id="Shape" fill="#FFFFFF"></path>
                        <path d="M45.4935941,20.7248618 L45.4935941,26.7850869 L43.4669271,26.7850869 L43.4669271,21.2631903 C43.4669271,20.5733562 43.3530695,20.6184855 42.9757125,20.2961331 C42.9204102,20.2510038 42.7154664,20.1188393 42.7154664,20.1188393 L44.306221,18.8294297 C44.6438607,18.9979583 44.9506387,19.2213209 45.2138295,19.4902521 C45.5554026,19.2936172 45.7115503,19.2098055 46.2678265,18.9454766 C46.9477196,18.6231242 47.1298919,18.7746298 47.4194158,18.9841589 C47.6713225,19.1613985 47.9045546,19.3633527 48.1155742,19.5869578 C48.370688,19.8304733 48.4917847,20.1808633 48.4408819,20.5282268 C48.4408819,21.1084612 48.4408819,24.4705967 48.4408819,24.4705967 C48.4408819,25.2603601 48.5807643,25.2797012 49.244392,25.6665241 L47.9041242,27.2009215 C47.6578132,27.0494248 47.4199882,26.8847825 47.1917004,26.7077223 C47.0319161,26.590816 46.8817983,26.4614648 46.7427757,26.3208995 C46.3816842,25.9792059 46.3881903,25.5375831 46.3881903,24.9960311 L46.3881903,20.8054499 C46.3881903,20.4444152 46.0205926,20.3992859 45.8026365,20.5282268 C45.5846803,20.6571678 45.4935941,20.7248618 45.4935941,20.7248618 Z" id="Path" fill="#FFFFFF"></path>
                        <path d="M51.6422833,20.7193041 L51.6422833,24.8941699 C51.6422833,25.712559 52.0774536,25.9108471 52.9752066,26.3362652 L51.837596,28.1388843 L50.7068384,27.5079676 C50.0009716,27.0645233 49.4664316,26.5814214 49.4664316,25.622428 L49.4664316,20.7193041 L48.3116883,20.7193041 L48.3116883,19.0464735 L49.4664316,19.0464735 L49.4664316,17.9649021 L51.6422833,16.8833306 L51.6422833,19.0464735 L52.920382,19.0464735 L52.920382,20.7193041 L51.6422833,20.7193041 Z" id="Path" fill="#FFFFFF"></path>
                        <path d="M27.8501997,32.531848 L27.7922078,32.4158119 C28.0107102,32.2579292 28.2392997,32.114512 28.4765127,31.9864784 C28.5570001,31.9346884 28.6482351,31.9019481 28.7432756,31.8907356 C28.7777856,31.8902317 28.8107329,31.9051178 28.8331631,31.9313612 C28.8578791,31.9625948 28.8702621,32.0018254 28.8679582,32.0415955 C28.8613982,32.1259461 28.8468347,32.2094814 28.8244643,32.2910731 C28.64941,32.906731 28.5176396,33.5338912 28.4301191,34.167957 C28.4272248,34.2010472 28.4365044,34.2340564 28.4562155,34.2607859 C28.4705068,34.2798882 28.4932757,34.2907355 28.517107,34.2897949 C28.5649244,34.2862179 28.6114082,34.2723654 28.6533881,34.2491823 C28.8322006,34.1487727 28.995344,34.022695 29.1376207,33.8749659 C29.3210923,33.6907805 29.4843943,33.4875336 29.624753,33.2686773 C29.7234443,33.113789 29.802348,32.9471395 29.8596204,32.7726229 C29.9432292,32.5134224 30.0091057,32.2488287 30.0567929,31.9806766 C30.0944877,31.9806766 30.1988732,31.9429648 30.3641502,31.8907356 L30.4047446,31.9313612 L30.3061583,32.444821 C30.2568651,32.711704 30.1988732,33.0017942 30.1292829,33.3150917 C30.0596925,33.6283892 30.013299,33.8488578 29.9901022,33.9764975 C29.9844661,34.0392239 29.9844661,34.1023297 29.9901022,34.1650561 C29.9876562,34.2004481 29.9957269,34.2357733 30.013299,34.2665877 C30.0299844,34.2858716 30.0545134,34.2965412 30.0799897,34.2955967 C30.1174594,34.2922699 30.1534258,34.2792762 30.1843752,34.257885 C30.2278692,34.2346778 30.3409534,34.1476507 30.5265276,34.0026056 L30.5903188,34.1186417 C30.3757862,34.298066 30.1501345,34.4637476 29.9147127,34.614696 C29.8459076,34.6596266 29.7673745,34.6874736 29.6856445,34.6959213 C29.647431,34.6941237 29.6121574,34.6748749 29.5899579,34.643705 C29.5585913,34.6010063 29.5431988,34.5486482 29.5464639,34.495759 C29.5428433,34.4494152 29.5428433,34.4028595 29.5464639,34.3565157 C29.5638615,34.2665877 29.6044558,34.0925336 29.6653474,33.8343532 L29.7813312,33.3382989 L29.7610341,33.3382989 C29.5609619,33.6109838 29.4391788,33.7705334 29.3985845,33.8198487 C29.242227,33.9987955 29.0715524,34.1646961 28.8882554,34.3159031 C28.7238851,34.4586646 28.5404082,34.5777831 28.3431312,34.6698132 C28.2975281,34.6907414 28.2482813,34.7025659 28.1981514,34.704624 C28.140766,34.7032684 28.0872376,34.6754211 28.0531715,34.6292005 C28.0062821,34.5580268 27.983885,34.4734907 27.9893804,34.3884256 C28.0020407,34.1655659 28.038988,33.9447556 28.0995651,33.7299208 C28.2068501,33.2947854 28.2851393,32.9524789 28.3315328,32.7001004 C28.3538716,32.5938713 28.369368,32.4863166 28.3779264,32.3781002 C28.3787696,32.3533195 28.3716563,32.3289201 28.3576292,32.3084785 C28.3429494,32.2942395 28.3229417,32.2868649 28.3025368,32.2881722 C28.136864,32.3380212 27.9829941,32.4209115 27.8501997,32.531848 Z" id="Path" stroke="#FFFFFF" stroke-width="0.2" fill="#FFFFFF"></path>
                        <path d="M33.3166695,34.047471 L33.3398179,34.1632689 L33.0226838,34.4903979 C32.9512229,34.5651055 32.8736273,34.6301231 32.791199,34.6843594 C32.7743928,34.6970081 32.755251,34.7039902 32.7356427,34.704624 C32.7059644,34.701973 32.6787907,34.6828573 32.6615675,34.6525149 C32.6333924,34.6128667 32.6192035,34.5606766 32.6222151,34.5077676 C32.6421125,34.1707162 32.6925918,33.8375873 32.7726802,33.5148008 L32.7564763,33.5148008 C32.6407339,33.7116572 32.54814,33.8592995 32.4833243,33.9519378 C32.3699051,34.1148369 32.2460346,34.2658765 32.1129486,34.4035495 C32.0095022,34.5146518 31.8941975,34.6072126 31.7703511,34.6785695 C31.7444525,34.6945087 31.7158757,34.7024506 31.6870166,34.701729 C31.6457849,34.7020232 31.6076729,34.6743123 31.5874781,34.6293554 C31.5376987,34.5058949 31.5160741,34.3676718 31.5249773,34.2298527 C31.5302727,33.9443608 31.5660847,33.6610379 31.6314603,33.3874231 C31.6937977,33.0976828 31.7790981,32.8164447 31.8860935,32.5478885 C31.9360226,32.4262944 32.0081965,32.3211557 32.0967447,32.2410241 C32.2191905,32.1208326 32.3548455,32.0233325 32.4995282,31.9515294 C32.5861233,31.915749 32.6768571,31.8981414 32.7680505,31.8994204 C32.8316983,31.89848 32.8952687,31.9052667 32.9578681,31.919685 C33.0368499,31.9377922 33.1143364,31.9649255 33.1893528,32.0007435 L33.3375031,31.8907356 L33.3884298,31.9399497 C33.2912061,32.356822 33.2055568,32.7476399 33.1337965,33.1152981 C33.0759253,33.338209 33.0365729,33.503221 33.0157393,33.613229 C32.9787017,33.7869258 32.9509235,33.9548327 32.9300899,34.1111599 C32.9281242,34.1361892 32.9281242,34.1613992 32.9300899,34.1864285 C32.9278286,34.2172088 32.9343925,34.2479917 32.9486087,34.2732769 C32.9590428,34.2880921 32.9745797,34.2956484 32.9902759,34.2935415 C33.0227516,34.2902404 33.0543041,34.2784025 33.0828698,34.2588022 C33.1642038,34.194438 33.2422853,34.1238603 33.3166695,34.047471 Z M32.9856462,32.2844483 C32.9273055,32.2503326 32.865912,32.2250637 32.8027733,32.2091797 C32.743049,32.1974297 32.6826737,32.1916216 32.6222151,32.19181 C32.5155823,32.1829056 32.4090514,32.2109535 32.3143404,32.2728686 C32.2659792,32.3219486 32.228515,32.3857479 32.2055425,32.4581452 C32.1216721,32.6712616 32.05274,32.8930737 31.9995211,33.121088 C31.9168492,33.4462642 31.8716413,33.7845112 31.8652599,34.1256346 C31.8604979,34.1630333 31.8604979,34.2011388 31.8652599,34.2385375 C31.8706447,34.2610115 31.8820989,34.2804521 31.8976678,34.2935415 C31.9091831,34.3039282 31.9228427,34.3099574 31.9370202,34.3109112 C31.9866882,34.3015361 32.0336627,34.2766436 32.0735962,34.2385375 C32.2136128,34.1177783 32.3404535,33.9747222 32.4509164,33.8129803 C32.5863937,33.625591 32.6973323,33.4125962 32.7796248,33.1818819 C32.8772109,32.8933927 32.9493964,32.5924758 32.9949056,32.2844483 L32.9856462,32.2844483 Z" id="Shape" stroke="#FFFFFF" stroke-width="0.2" fill="#FFFFFF"></path>
                        <path d="M35.9859931,33.9544794 L36.0634774,34.0832267 C35.9859931,34.131507 35.803677,34.2280675 35.5210871,34.3696896 C35.3078719,34.4860515 35.077048,34.5853642 34.832844,34.6658086 C34.7568608,34.6901131 34.6746731,34.7032541 34.5912752,34.7044328 C34.5149316,34.707034 34.4416556,34.6829662 34.3952855,34.6400591 C34.340661,34.580982 34.3150381,34.5108667 34.3223591,34.4405007 C34.3214446,34.3637403 34.3321404,34.2871305 34.3542644,34.2119741 C34.3816118,34.0864454 34.5229067,33.632611 34.7735913,32.847252 C34.9650232,32.2839823 35.0835286,31.9170523 35.1336655,31.7432433 C35.2612867,31.3215957 35.3478869,30.9804152 35.4025817,30.7229205 C35.4091798,30.668302 35.4091798,30.613386 35.4025817,30.5587676 C35.4104876,30.512767 35.3887379,30.4666895 35.343329,30.4332389 C35.2681381,30.4043376 35.182411,30.3920057 35.0972023,30.3978334 L34.6869912,30.3978334 L34.6869912,30.269086 C34.9301702,30.2532301 35.1710539,30.2230846 35.4071396,30.1789628 C35.6340615,30.1351677 35.8564121,30.0803186 36.0725932,30.0148099 L36.1865407,30.0630902 C36.1318459,30.2529926 35.9130666,30.9675405 35.5438766,32.2067339 C35.2400165,33.2066718 35.0668163,33.8214404 35.0242759,34.0510399 C35.0201527,34.0853108 35.0201527,34.1197669 35.0242759,34.1540378 C35.0219548,34.1905886 35.0363361,34.2266979 35.065297,34.2570357 C35.0887126,34.2799707 35.1255875,34.2941744 35.1655708,34.2956599 C35.1955882,34.2940801 35.2249406,34.2886254 35.2521709,34.2795665 C35.3705539,34.2391238 35.4847808,34.1928762 35.5940136,34.1411631 L35.9859931,33.9544794 Z" id="Path" stroke="#FFFFFF" stroke-width="0.2" fill="#FFFFFF"></path>
                        <path d="M36.252414,32.2562348 L36.1865407,32.124601 C36.4902943,31.9489422 36.8064614,31.787423 37.1334693,31.6408466 C37.248701,31.5891217 37.3764455,31.5577038 37.5081236,31.548703 C37.5543242,31.5463035 37.5990206,31.5623188 37.627519,31.591484 C37.6680311,31.6436201 37.6867733,31.704696 37.681041,31.7658988 C37.6787364,31.8179504 37.6704677,31.8697235 37.6563385,31.9205685 C37.6192848,32.0456207 37.5451774,32.2792707 37.4340162,32.6182278 C37.241561,33.1178973 37.0956915,33.6282787 36.9976056,34.1451802 C36.9948926,34.1790433 37.0064921,34.212653 37.0305423,34.2406147 C37.0504111,34.2605203 37.0810682,34.2715474 37.1128839,34.2702324 C37.1836652,34.26747 37.2526977,34.2517046 37.3146208,34.2241605 C37.4732821,34.1525345 37.6247021,34.0711127 37.7674997,33.9806379 L37.8457242,34.1089809 C37.5388621,34.3088489 37.2110282,34.487214 36.865859,34.6420979 C36.7867178,34.6788856 36.6978739,34.7003026 36.606483,34.704624 C36.536505,34.7041073 36.4709157,34.6772844 36.4294485,34.6322254 C36.3732576,34.5740573 36.3454543,34.5015384 36.351224,34.428193 C36.3519638,34.3521016 36.3602237,34.2761759 36.3759264,34.2011246 C36.3965118,34.1188535 36.4417997,33.9674746 36.5159072,33.7502787 C36.7340737,33.2144325 36.8898128,32.6636155 36.9811373,32.1048559 C36.9905518,32.0746022 36.9905518,32.0429658 36.9811373,32.0127122 C36.9664519,31.9974745 36.9434247,31.9888851 36.9193811,31.9896763 C36.8779908,31.9905096 36.8372941,31.9983615 36.7999858,32.0127122 C36.762932,32.0028397 36.5858976,32.0916925 36.252414,32.2562348 Z M37.2816842,30.4429788 C37.2796078,30.3316555 37.3295165,30.2237104 37.4216649,30.140221 C37.5002279,30.0607497 37.6201987,30.0146233 37.7469143,30.0151689 C37.8300306,30.0114584 37.9110941,30.0366565 37.9692367,30.0842766 C38.0261742,30.1371587 38.0556361,30.2054518 38.0515783,30.2751457 C38.0517408,30.384505 38.0100813,30.4912915 37.9321829,30.5811943 C37.8633064,30.6698736 37.7416324,30.7234891 37.6110506,30.7227007 C37.5222551,30.7245796 37.4367481,30.6958019 37.376377,30.6437204 C37.3122902,30.5897248 37.2781517,30.5173537 37.2816842,30.4429788 Z" id="Shape" stroke="#FFFFFF" stroke-width="0.2" fill="#FFFFFF"></path>
                        <path d="M40.468578,34.7038995 L40.549074,34.8483125 C40.3425842,35.0179977 40.1395943,35.176852 39.9331046,35.3248753 C39.7926226,35.4348481 39.6412939,35.5292381 39.481627,35.6064805 C39.433633,35.6304602 39.3809615,35.6428089 39.3276347,35.6425868 C39.2657882,35.6409079 39.208492,35.6086688 39.1736423,35.555936 C39.1244526,35.4712396 39.1024082,35.3726979 39.1106455,35.2743307 C39.1060751,35.2106354 39.1060751,35.1466788 39.1106455,35.0829835 C39.1106455,35.0107771 39.1351442,34.9169086 39.1561432,34.7941576 L39.3136354,34.0720928 C39.3661328,33.8193701 39.4501286,33.3861312 39.562123,32.7795968 L38.9846517,32.7795968 L39.0021508,32.6748974 L39.3766322,32.5232637 L39.6076208,32.414954 C39.642619,32.2308275 39.6671178,32.0936352 39.6846169,31.9997667 C39.7021161,31.9058983 39.7336145,31.6387343 39.7931115,31.2054954 L40.0835971,31.0755238 L40.3180855,30.9527727 L40.3985815,31.0141483 L40.2515888,31.624293 C40.2340896,31.7037202 40.1780924,31.9853254 40.0870969,32.4582779 L40.3320848,32.4582779 C40.4945942,32.465438 40.6572563,32.4484151 40.8150608,32.4077334 L40.850059,32.436616 L40.7660632,32.7976484 C40.6715679,32.7976484 40.4160806,32.7976484 40.0275999,32.7651555 C39.985602,32.9565026 39.9226051,33.2886525 39.8351095,33.7543843 C39.7476138,34.2201161 39.6916166,34.5630969 39.663618,34.7724957 C39.6599312,34.8386303 39.6599312,34.9049288 39.663618,34.9710635 C39.6612078,35.0143946 39.674985,35.0570311 39.7021161,35.0902042 C39.7245056,35.117748 39.7583574,35.1325221 39.7931115,35.1299178 C39.8231134,35.1364445 39.8541051,35.1364445 39.884107,35.1299178 C39.9718999,35.0885773 40.0551949,35.0377485 40.1325947,34.9782841 L40.468578,34.7038995 Z" id="Path" stroke="#FFFFFF" stroke-width="0.2" fill="#FFFFFF"></path>
                        <path d="M40.8548952,36.9072064 L41.1367594,36.7065727 L41.1959509,36.728517 C41.1935024,36.7598069 41.1935024,36.7912742 41.1959509,36.8225641 C41.1912259,36.9384366 41.2288417,37.051508 41.3002407,37.1360543 C41.3661503,37.2156267 41.459474,37.2601102 41.5567372,37.2583155 C41.6282512,37.2568222 41.6985575,37.2375412 41.7624981,37.2018873 C41.8390779,37.1616302 41.9065166,37.1026972 41.9598031,37.0294676 C42.0651083,36.8780682 42.1513989,36.7114345 42.2162996,36.5341531 C42.3393775,36.2113187 42.444799,35.8805058 42.5319875,35.5435239 L42.7405671,34.70337 C42.6202514,34.9110602 42.4844804,35.1071569 42.3346825,35.2895968 C42.1920359,35.4794898 42.0324351,35.6527968 41.8583319,35.8068557 C41.8012705,35.8497336 41.7352833,35.8756363 41.6666642,35.8820933 C41.6043462,35.880678 41.5474234,35.8424533 41.5172762,35.7817765 C41.4464408,35.6483498 41.4130687,35.4944251 41.4214423,35.3397552 C41.4214423,35.2613827 41.4355356,35.0983677 41.4609033,34.8538453 C41.5021279,34.4636259 41.523771,34.0711548 41.5257321,33.6782569 C41.5290233,33.5795197 41.5224055,33.4806821 41.5060016,33.3835761 C41.5020345,33.3517984 41.489221,33.3221997 41.4693593,33.2989337 C41.4567795,33.2869671 41.4408135,33.2803081 41.424261,33.2801243 C41.2948454,33.3263408 41.1770389,33.4058149 41.0803866,33.5121071 L41.0127392,33.5685353 L40.9394544,33.4431392 C41.1235251,33.2652956 41.3184806,33.1018874 41.5229135,32.9540945 C41.5927891,32.8954173 41.675514,32.8586145 41.7624981,32.8475078 C41.8136919,32.8462223 41.8617772,32.8747453 41.889337,32.9227454 C41.9304217,33.0205289 41.9469779,33.1288456 41.9372539,33.2362357 C41.9372539,33.3679016 41.9203421,33.6469079 41.889337,34.0701197 C41.849876,34.5685692 41.8273269,34.929083 41.8273269,35.1516611 C41.8212081,35.2237926 41.8329027,35.2964138 41.8611506,35.3616995 C41.8788784,35.3884717 41.9073813,35.4037351 41.9372539,35.4024533 C41.969914,35.4020169 42.001932,35.3923049 42.0302691,35.3742392 C42.1227543,35.3121509 42.206361,35.2350134 42.2783097,35.1453913 C42.3824534,35.0287596 42.4768002,34.901791 42.560174,34.7660681 C42.7113648,34.5144745 42.8335238,34.2427433 42.9237789,33.9572632 C42.985789,33.7691691 43.0675296,33.4337345 43.1746381,32.9446898 C43.3150962,32.9172436 43.4535746,32.8784776 43.5889785,32.8286984 L43.64817,32.8882615 C43.5914173,33.0261708 43.5415456,33.1674559 43.498782,33.3114733 C43.411404,33.5873448 43.293021,34.0136915 43.143633,34.5842437 C43.02525,35.0482093 42.9322348,35.3773741 42.8617687,35.5748729 C42.7712866,35.8900099 42.6552452,36.1953509 42.5150757,36.4871295 C42.3966644,36.7187665 42.2485391,36.9299786 42.0753674,37.11411 C41.96607,37.2440116 41.8361035,37.3502977 41.692032,37.4276003 C41.5764514,37.4843985 41.4519353,37.5152917 41.3256085,37.5185124 C41.243129,37.5175888 41.1620093,37.4950334 41.0888425,37.4526795 C41.0150334,37.4140112 40.9532244,37.3518142 40.911268,37.27399 C40.8723462,37.1986417 40.8519325,37.1132308 40.8520765,37.0263327 C40.8486464,36.9866447 40.8495929,36.946639 40.8548952,36.9072064 L40.8548952,36.9072064 Z" id="Path" stroke="#FFFFFF" stroke-width="0.2" fill="#FFFFFF"></path>
                        <path d="M22.0994614,32.7033024 C22.1302601,32.3932491 22.1865707,32.0861641 22.2678396,31.7850673 C22.688785,30.1358452 23.7100351,29.178 25.4267604,29.4984821 C26.7371817,29.7397438 27.2203538,30.971259 26.7628045,32.9337613 C26.3308779,34.7666305 24.9545694,35.4976176 23.6478084,35.2311494 C22.3410475,34.9646812 21.9713476,33.9780286 22.0994614,32.7105042 M21.2868537,32.7105042 C21.1660607,33.8339918 21.4881754,34.9862867 22.7510117,35.4508056 C24.4607993,36.0177901 26.3373791,35.293029 27.1983915,33.733166 C28.3367743,31.4897917 27.7401299,29.8117622 26.2430284,29.2896286 C24.5032264,28.6688187 22.5684664,29.447593 21.7700259,31.0900894 C21.5145688,31.6036277 21.351113,32.1566823 21.2868537,32.7249079" id="Shape" stroke="#FFFFFF" stroke-width="0.2" fill="#FFFFFF"></path>
                        <path d="M23.2751972,35.9649784 C23.3718568,35.6359438 23.5773261,35.3693791 23.8430914,35.2282236 C24.1088566,35.0870682 24.4113601,35.083834 24.6791771,35.2192848 C25.2064782,35.409592 26.8142617,36.1280989 27.0601199,36.232962 C27.9173887,36.5980412 29.0334557,36.8233028 29.3537183,36.1358665 C29.4493336,35.9324798 29.5346753,35.7223743 29.6092815,35.5066875 C29.7160357,35.3591024 29.6092815,34.9901394 29.6319263,35.063932 C29.5478169,34.912463 29.4734125,35.0056747 29.4540026,35.063932 C29.4863524,35.6465051 29.2825489,35.9882813 28.295881,35.9649784 C27.7886595,35.9317597 27.290837,35.7869494 26.8272016,35.5377581 C26.4163595,35.3435671 26.1058018,35.2542392 26.0087525,35.2115172 C25.4953025,34.9973281 24.9685044,34.8323953 24.4333188,34.7182719 C23.5954599,34.586222 23.301077,35.4484302 23.1393282,35.7513683 C23.0875685,35.9067211 23.2396124,36.0581901 23.2751972,35.9649784 Z" id="Path" stroke="#FFFFFF" stroke-width="0.2" fill="#FFFFFF"></path>
                    </g>
                </g>
            </g>
        </g>
    </g>
</svg>