<?xml version="1.0" encoding="UTF-8"?>
<svg width="124px" height="97px" viewBox="0 0 124 97" version="1.1" xmlns="http://www.w3.org/2000/svg" xmlns:xlink="http://www.w3.org/1999/xlink">
    <title>3</title>
    <g id="Page-1" stroke="none" stroke-width="1" fill="none" fill-rule="evenodd">
        <g id="home" transform="translate(-423.000000, -2191.000000)">
            <g id="Group-3-Copy-2" transform="translate(0.000000, 1900.000000)">
                <g id="Group-19" transform="translate(422.000000, 134.000000)">
                    <g id="3" transform="translate(1.000000, 157.000000)">
                        <g id="Group-7" transform="translate(27.895191, 27.262400)">
                            <path d="M67.2299,33.614 C67.2299,52.179 52.1799,67.229 33.6149,67.229 C15.0499,67.229 0.0009,52.179 0.0009,33.614 C0.0009,15.05 15.0499,0 33.6149,0 C52.1799,0 67.2299,15.05 67.2299,33.614" id="Fill-171" fill="#C4B282"></path>
                            <path d="M45.5776,2.1931 C45.3396,2.1021 45.0986,2.0141 44.8576,1.9281 C44.8436,2.4681 44.7956,3.0091 44.7666,3.5491 C44.7646,3.6121 44.7226,3.6731 44.7146,3.7371 C44.7026,3.8401 44.6846,3.9481 44.7046,4.0481 C44.7796,4.4341 44.8886,4.7941 45.2046,5.0781 C45.5016,5.3441 45.7666,5.6421 46.1216,5.8381 C46.4486,6.0191 46.8126,6.1701 47.1636,6.0581 C47.5756,5.9251 47.9946,5.7351 48.2616,5.3541 C48.3866,5.1751 48.4896,4.9791 48.5786,4.7801 C48.7326,4.4341 48.8716,4.0801 49.0216,3.7321 C48.8206,3.6281 48.6176,3.5261 48.4136,3.4261 C48.3816,3.4931 48.3496,3.5601 48.3166,3.6271 C48.2996,3.6621 48.2736,3.6951 48.2656,3.7331 C48.1776,4.1631 47.9666,4.5401 47.7136,4.8841 C47.5146,5.1541 47.2546,5.3961 46.8706,5.3471 C46.0636,5.2451 45.3406,4.3351 45.4496,3.5291 C45.5096,3.0841 45.5596,2.6391 45.5776,2.1931" id="Fill-173" fill="#DACCAB"></path>
                            <path d="M53.7983,6.8572 C53.9023,7.2232 54.1503,7.4282 54.4823,7.5472 C54.6823,7.6192 54.8823,7.6892 55.0853,7.7502 C54.6433,7.3822 54.1923,7.0252 53.7313,6.6802 C53.7573,6.7382 53.7803,6.7972 53.7983,6.8572" id="Fill-175" fill="#DACCAB"></path>
                            <path d="M56.0249,58.6668 C56.2789,58.4388 56.5309,58.2088 56.7779,57.9738 C56.7879,57.8118 56.7959,57.6488 56.8099,57.4868 C56.8439,57.0838 56.8379,56.6918 56.7269,56.2948 C56.6119,55.8828 56.5659,55.4508 56.4539,55.0378 C56.3839,54.7798 56.2689,54.5318 55.9549,54.4518 C55.8549,54.4268 55.7769,54.3128 55.6559,54.2108 C55.2519,54.3128 54.8319,54.2598 54.4109,54.3488 C53.9869,54.4378 53.7949,54.7468 53.5489,54.9868 C53.2399,55.2898 53.0189,55.6858 52.7739,56.0508 C52.4829,56.4848 52.2759,56.9558 52.2669,57.4898 C52.2649,57.6038 52.2909,57.7218 52.3269,57.8298 C52.4009,58.0488 52.5019,58.2598 52.5749,58.4798 C52.7629,59.0488 52.8859,59.6348 52.9529,60.2308 C52.9679,60.3658 52.9359,60.5068 52.9209,60.6448 C52.8839,60.9538 52.6669,61.1668 52.5139,61.4158 C52.8889,61.1598 53.2589,60.8958 53.6239,60.6258 C53.6409,60.2288 53.5739,59.8258 53.4899,59.4268 C53.3879,58.9458 53.2049,58.4818 53.0729,58.0058 C52.9809,57.6778 52.9769,57.3678 53.1089,57.0198 C53.2609,56.6178 53.5029,56.2898 53.7369,55.9488 C54.1049,55.4128 54.5829,55.0368 55.2549,55.0028 C55.3879,54.9958 55.5819,55.0838 55.6529,55.1908 C55.7699,55.3668 55.8119,55.5928 55.8799,55.7988 C55.9289,55.9458 55.9719,56.0938 56.0139,56.2428 C56.0379,56.3278 56.0619,56.4148 56.0719,56.5028 C56.1129,56.8878 56.1799,57.2738 56.0399,57.6558 C56.0229,57.7018 56.0439,57.7598 56.0449,57.8118 C56.0489,58.0178 56.0749,58.2258 56.0519,58.4278 C56.0439,58.5078 56.0349,58.5868 56.0249,58.6668" id="Fill-177" fill="#DACCAB"></path>
                            <path d="M48.0659,63.1272 C48.0869,63.0962 48.1159,63.0622 48.1219,63.0272 C48.1849,62.6062 48.3249,62.1912 48.2199,61.7552 C48.1779,61.5802 48.2259,61.4102 48.3799,61.3052 C48.5509,61.1892 48.7359,61.0902 48.9189,60.9932 C49.2649,60.8092 49.8479,60.9842 50.0509,61.3152 C50.1369,61.4542 50.2289,61.6352 50.3619,61.6902 C50.6879,61.8262 50.8199,62.1322 51.0399,62.3582 C51.0409,62.3592 51.0429,62.3612 51.0439,62.3632 C51.3179,62.1962 51.5889,62.0242 51.8589,61.8502 C51.7159,61.8302 51.5689,61.7482 51.4289,61.6042 C50.9229,61.0862 50.4219,60.5632 49.9499,60.0722 C49.7679,60.0882 49.6349,60.1382 49.5429,60.0982 C49.3659,60.0222 49.2129,60.0772 49.0489,60.1092 C48.9489,60.1292 48.8429,60.1202 48.7419,60.1352 C48.6689,60.1472 48.5839,60.1582 48.5289,60.2012 C48.2019,60.4542 47.8829,60.7152 47.6729,61.0862 C47.4969,61.3982 47.3829,61.7062 47.4509,62.0832 C47.5149,62.4382 47.3909,62.7562 47.1879,63.0712 C47.0039,63.3582 46.7419,63.5582 46.5319,63.8132 C46.2249,64.1842 45.4939,64.3122 45.0359,64.1722 C44.6399,64.0512 44.3969,63.7522 44.1089,63.5052 C43.9859,63.4002 43.9159,63.2362 43.8019,63.1172 C43.6279,62.9322 43.6889,62.6952 43.6459,62.4852 C43.5199,61.8712 43.6999,61.3332 44.1059,60.8652 C44.1919,60.7672 44.2799,60.6712 44.3649,60.5732 C44.5729,60.3342 44.8509,60.1792 45.1359,60.0952 C45.7939,59.8992 46.3629,59.5352 46.9559,59.2152 C47.0789,59.1492 47.1729,59.0322 47.2869,58.9472 C47.3879,58.8712 47.4979,58.8072 47.6069,58.7352 C47.8759,57.9052 47.7919,57.1482 47.1099,56.5252 C47.0349,56.4572 46.9619,56.3582 46.8729,56.3362 C46.5489,56.2562 46.2849,56.0562 45.9409,55.9872 C45.2329,55.8452 44.5539,55.8502 43.8649,56.0382 C43.3299,56.1842 42.8459,56.4272 42.3829,56.7312 C41.7829,57.1272 41.3189,57.6282 41.0159,58.2802 C40.9839,58.3492 40.9409,58.4342 40.9549,58.5002 C41.0359,58.8902 40.9189,59.2722 40.8819,59.6482 C40.8369,60.1252 40.7269,60.6022 40.4599,61.0422 C40.3089,61.2912 40.2089,61.5772 40.0169,61.8122 C39.6929,62.2112 39.1469,62.3322 38.7029,62.0882 C38.5099,61.9842 38.3259,61.8662 38.1369,61.7552 C37.6559,61.4742 37.3919,61.0672 37.3469,60.5352 C37.3419,60.4832 37.3399,60.4272 37.3189,60.3822 C37.0769,59.8962 37.1529,59.4032 37.2749,58.9062 C37.3159,58.7432 37.3889,58.5702 37.3689,58.4122 C37.2899,57.8072 37.1829,57.2052 37.0739,56.6042 C37.0539,56.4932 37.0019,56.3522 36.9169,56.2972 C36.7169,56.1692 36.7429,55.9732 36.7289,55.8242 C36.6219,55.7682 36.5399,55.7382 36.4739,55.6882 C36.2949,55.5482 36.1289,55.3532 35.9539,55.2602 C35.6479,55.0982 35.2649,55.0862 34.9199,54.9912 C34.3219,54.8272 33.8319,55.2552 33.2689,55.2762 C33.2449,55.2772 33.2089,55.2922 33.2009,55.3102 C33.1239,55.4802 32.9679,55.4772 32.8159,55.5222 C32.5589,55.6002 32.3169,55.7332 32.0689,55.8432 C31.8809,55.9272 31.6999,56.0442 31.5029,56.0842 C31.2569,56.1332 31.1809,56.3572 31.0039,56.4712 C30.9739,56.4912 30.9279,56.5062 30.8939,56.5002 C30.7249,56.4662 30.6409,56.5862 30.5249,56.6712 C30.1289,56.9672 29.6459,57.0602 29.1859,57.2082 C28.9099,57.2972 28.8189,56.9382 28.5719,56.9762 C28.3819,56.7362 28.0819,56.5652 28.0579,56.2232 C28.0199,55.6562 27.9659,55.0882 27.9819,54.5222 C27.9999,53.8982 28.0949,53.2762 28.1419,52.6532 C28.1619,52.3832 28.1449,52.1102 28.1449,51.8892 C28.0049,51.6632 27.8809,51.4582 27.7509,51.2572 C27.7069,51.1892 27.6559,51.1192 27.5919,51.0712 C27.3859,50.9192 27.1729,50.7782 26.9549,50.6272 C26.8189,50.6432 26.6629,50.6562 26.5079,50.6792 C26.2729,50.7142 26.0339,50.7392 25.8029,50.7972 C25.6039,50.8482 25.4189,50.9622 25.2179,51.0072 C24.9689,51.0642 24.7469,51.1262 24.6489,51.3982 C24.6309,51.4492 24.5589,51.5012 24.5029,51.5152 C24.3149,51.5612 24.2199,51.6812 24.1639,51.8572 C24.1419,51.9262 24.0799,52.0002 24.0159,52.0342 C23.5999,52.2572 23.4949,52.7042 23.2759,53.0642 C23.1719,53.2352 23.0919,53.4512 23.0899,53.6482 C23.0819,54.4322 23.0889,55.2172 23.1319,56.0002 C23.1489,56.3142 23.2259,56.6352 23.4649,56.8902 C23.5959,57.0292 23.6859,57.2092 23.7929,57.3722 C23.9809,57.6592 24.1639,57.9512 24.3579,58.2342 C24.4439,58.3602 24.5729,58.4592 24.6469,58.5902 C24.8079,58.8802 24.9329,59.1892 25.1729,59.4322 C25.2319,59.4912 25.2869,59.6082 25.2689,59.6802 C25.1869,60.0032 25.2729,60.3512 25.0879,60.6652 C24.9359,60.9232 24.8209,61.1782 24.5469,61.3572 C24.3979,61.4552 24.3129,61.6262 24.1089,61.5432 C24.0259,61.6532 23.9569,61.7462 23.8949,61.8292 C23.6019,61.8952 23.3819,61.8412 23.2139,61.5782 C23.1119,61.4182 22.9439,61.3012 22.8169,61.1552 C22.7499,61.0782 22.6859,60.9842 22.6609,60.8882 C22.5929,60.6252 22.5309,60.3582 22.4959,60.0902 C22.3989,59.3302 22.3209,58.5672 22.2269,57.8072 C22.1479,57.1632 21.8359,56.6342 21.3809,56.1852 C21.2079,56.0132 21.0519,55.7782 20.8409,55.7012 C20.5519,55.5942 20.2419,55.4842 19.8979,55.5852 C19.4939,55.7042 19.0699,55.7572 18.6079,55.8482 C18.5799,55.9252 18.5399,56.0732 18.3449,56.0442 C18.2979,56.0372 18.2299,56.0982 18.1889,56.1432 C18.0779,56.2662 17.9619,56.3892 17.8729,56.5272 C17.7029,56.7882 17.4749,57.0442 17.4099,57.3332 C17.3259,57.7052 17.3749,58.1082 17.3729,58.4982 C17.3719,58.7172 17.3899,58.9372 17.3899,59.1562 C17.3909,59.2732 17.3379,59.4012 17.3699,59.5062 C17.5039,59.9522 17.3969,60.3752 17.2979,60.8072 C17.2279,61.1152 17.0349,61.3362 16.8509,61.5692 C16.8129,61.6182 16.7509,61.6642 16.6919,61.6792 C16.4299,61.7422 16.1659,61.7962 15.9009,61.8492 C15.5459,61.9192 15.4109,61.8482 15.2599,61.5242 C15.2349,61.4682 15.2009,61.4002 15.1519,61.3762 C15.0219,61.3112 15.0119,61.2052 15.0039,61.0832 C14.9939,60.9142 14.9499,60.7462 14.9509,60.5792 C14.9549,60.1122 14.9759,59.6472 14.9889,59.1812 C14.9899,59.1202 15.0029,59.0462 14.9759,59.0002 C14.7649,58.6532 14.8319,58.2552 14.8089,57.8882 C14.7799,57.4212 14.7369,56.9612 14.5509,56.5402 C14.4189,56.2392 14.2319,55.9302 13.9879,55.7192 C13.7829,55.5432 13.4879,55.4692 13.3599,55.1872 C13.3459,55.1552 13.2719,55.1512 13.2269,55.1322 C13.0069,55.0432 12.8059,55.0722 12.5689,55.1252 C12.2549,55.1942 11.9289,55.1902 11.6539,55.3962 C11.5949,55.4412 11.5069,55.4492 11.4319,55.4692 C10.9009,55.6072 10.4609,56.1302 10.3269,56.6912 C10.2579,56.9802 10.1319,57.2602 9.9899,57.5232 C10.1499,57.6822 10.3119,57.8402 10.4759,57.9962 C10.6459,57.5872 10.8279,57.1822 11.0439,56.7992 C11.1849,56.5512 11.4629,56.3812 11.6789,56.1762 C12.0429,56.2112 12.3499,55.9702 12.7369,56.0072 C13.2459,56.0562 13.5289,56.3742 13.7569,56.7202 C14.0099,57.1052 14.1829,57.5582 14.0489,58.0522 C14.2129,58.5172 14.1389,59.0062 14.1999,59.4812 C14.2249,59.6842 14.2419,59.8922 14.2289,60.0952 C14.2129,60.3402 14.1179,60.5862 14.1349,60.8262 C14.1399,60.8932 14.1489,60.9602 14.1569,61.0282 C14.9009,61.5572 15.6689,62.0542 16.4569,62.5232 C16.6159,62.4812 16.7919,62.4632 16.9429,62.3992 C17.1669,62.3042 17.4429,62.2022 17.5619,62.0172 C17.8729,61.5342 18.1729,61.0292 18.1449,60.4122 C18.1289,60.0512 18.1759,59.6882 18.0389,59.3352 C17.9999,59.2342 18.0359,59.1032 18.0379,58.9862 C18.0389,58.8442 18.0429,58.7022 18.0419,58.5612 C18.0369,57.9812 18.0029,57.3922 18.5949,57.0222 C18.7109,56.9502 18.7889,56.8112 18.9089,56.7562 C19.1209,56.6612 19.3569,56.6202 19.5729,56.5332 C19.7979,56.4422 20.0449,56.5322 20.2739,56.4092 C20.3959,56.3422 20.5439,56.4292 20.6349,56.5702 C20.8229,56.8622 20.9989,57.1672 21.2279,57.4232 C21.3789,57.5902 21.4559,57.7622 21.4959,57.9692 C21.5779,58.3992 21.7249,58.8212 21.6109,59.2732 C21.5819,59.3912 21.6299,59.5282 21.6399,59.6562 C21.6569,59.8632 21.6649,60.0702 21.6889,60.2762 C21.7109,60.4652 21.7279,60.6592 21.7849,60.8392 C21.8559,61.0612 21.9729,61.2682 22.0599,61.4852 C22.1899,61.8112 22.3759,62.0832 22.6999,62.2492 C22.7999,62.3002 22.9169,62.3782 22.9579,62.4742 C23.0649,62.7202 23.2619,62.7322 23.4759,62.7242 C23.6189,62.7182 23.7619,62.7032 23.9039,62.6832 C24.1739,62.6462 24.4409,62.6072 24.5919,62.3282 C24.6319,62.2542 24.7249,62.2012 24.8049,62.1602 C25.3099,61.8992 25.6069,61.4722 25.7689,60.9462 C25.8519,60.6722 25.9239,60.3892 25.9469,60.1062 C25.9669,59.8682 25.9539,59.6312 25.8479,59.3862 C25.5749,58.7532 25.1479,58.2322 24.7349,57.6972 C24.3199,57.1592 23.9359,56.5892 23.8349,55.9072 C23.7519,55.3412 23.6749,54.7732 23.7529,54.1822 C23.8349,53.5512 24.0999,53.0562 24.5279,52.6192 C24.6639,52.4812 24.7919,52.3372 24.9289,52.2012 C25.0259,52.1062 25.1329,52.0212 25.2349,51.9312 C25.5669,51.6412 25.9759,51.5922 26.3919,51.5442 C26.7429,51.5022 27.0099,51.6532 27.1699,51.9222 C27.3399,52.2102 27.4639,52.5362 27.4179,52.8932 C27.3749,53.2302 27.3149,53.5662 27.3019,53.9052 C27.2789,54.4872 27.2719,55.0702 27.2869,55.6522 C27.3039,56.2662 27.3729,56.8642 27.8799,57.3162 C27.9929,57.4172 28.0869,57.5242 28.2249,57.6022 C28.3659,57.6822 28.4519,57.8852 28.5959,57.9302 C28.8909,58.0242 29.1859,58.2872 29.5249,58.0332 C29.5439,58.0202 29.5789,58.0322 29.6019,58.0222 C29.7519,57.9582 29.9259,57.9212 30.0419,57.8182 C30.2929,57.5962 30.6119,57.5292 30.8979,57.3882 C30.9359,57.3682 31.0319,57.4642 31.0949,57.5022 C31.1269,57.4272 31.1369,57.3092 31.1979,57.2702 C31.5559,57.0442 31.9129,56.8032 32.2989,56.6342 C32.4869,56.5512 32.7019,56.5282 32.8739,56.3902 C32.9299,56.3452 33.0189,56.3422 33.0919,56.3192 C33.2139,56.2802 33.3499,56.2622 33.4569,56.1962 C34.0359,55.8412 34.6419,55.7732 35.2869,55.9812 C35.7679,56.1372 36.1279,56.4022 36.2119,56.9392 C36.2199,56.9882 36.2369,57.0582 36.2719,57.0772 C36.5479,57.2312 36.4479,57.5372 36.5249,57.7612 C36.6019,57.9852 36.5189,58.2732 36.4809,58.5282 C36.4259,58.8972 36.3399,59.2692 36.3869,59.6362 C36.4559,60.1662 36.5589,60.6932 36.6929,61.2092 C36.7619,61.4762 36.8959,61.7432 37.0619,61.9642 C37.2199,62.1732 37.4349,62.3612 37.6649,62.4892 C38.0699,62.7142 38.5129,62.8652 38.9649,62.9812 C39.4619,63.1092 39.8929,62.9602 40.2129,62.5902 C40.5069,62.2522 40.7539,61.8702 40.9929,61.4902 C41.1339,61.2642 41.2809,61.0122 41.3189,60.7562 C41.3929,60.2572 41.5159,59.7682 41.5719,59.2632 C41.6239,58.7922 41.7439,58.2852 42.1319,57.9312 C42.4659,57.6262 42.7619,57.2642 43.2369,57.1542 C43.3079,57.1382 43.3649,57.0632 43.4339,57.0302 C43.6919,56.9092 43.9439,56.7682 44.2139,56.6852 C44.3929,56.6292 44.6169,56.6032 44.7869,56.6622 C45.0159,56.7412 45.2179,56.7052 45.4379,56.6742 C45.5579,56.6572 45.6919,56.6732 45.8079,56.7102 C46.0029,56.7732 46.1899,56.8582 46.3759,56.9442 C46.4399,56.9752 46.5319,57.0292 46.5399,57.0842 C46.5619,57.2302 46.6649,57.2642 46.7699,57.3192 C46.9289,57.4042 47.1059,57.7762 47.0039,57.8712 C46.8339,58.0292 46.9709,58.1902 46.9209,58.3872 C46.8019,58.4722 46.6569,58.5812 46.5069,58.6832 C46.4219,58.7412 46.3009,58.7702 46.2459,58.8482 C45.9729,59.2232 45.5599,59.2902 45.1539,59.3772 C44.4859,59.5182 43.9509,59.8692 43.5259,60.3992 C43.4619,60.4802 43.3939,60.5722 43.3059,60.6172 C43.1959,60.6732 43.1669,60.7482 43.1459,60.8592 C43.1249,60.9722 43.0719,61.0822 43.0229,61.1892 C42.8179,61.6412 42.7429,62.1272 42.8399,62.6002 C42.9359,63.0652 42.9679,63.5792 43.4059,63.9162 C43.4859,63.9782 43.4839,64.1452 43.5229,64.2732 C43.7959,64.4312 44.0699,64.6402 44.3779,64.7562 C44.8109,64.9192 45.2759,65.0232 45.7329,64.9762 C46.1609,64.8112 46.5839,64.6372 47.0029,64.4552 C47.4399,64.0942 47.7429,63.5962 48.0659,63.1272" id="Fill-179" fill="#DACCAB"></path>
                            <path d="M5.5825,16.7229 C5.8245,17.1369 5.9445,17.6179 6.2835,17.9799 C6.4145,18.1199 6.5005,18.3019 6.6345,18.4389 C6.7975,18.6069 6.8995,18.8299 7.0495,18.9819 C7.3415,19.2769 7.7325,19.4609 8.1565,19.5459 C8.9285,19.7009 9.6485,19.5829 10.2905,19.1219 C10.5175,18.9589 10.7925,18.7709 10.8825,18.5329 C11.0025,18.2149 11.1595,17.8609 11.0125,17.4849 C10.9675,17.3689 10.9785,17.2259 10.9785,17.0959 C10.9785,16.8459 10.8775,16.6409 10.7215,16.4549 C10.6545,16.3759 10.6015,16.2839 10.5315,16.2079 C10.2345,15.8819 9.9485,15.5429 9.6275,15.2429 C9.4825,15.1069 9.2665,15.0449 9.0785,14.9589 C8.9375,14.8949 8.7765,14.8689 8.6465,14.7879 C8.3585,14.6099 8.0785,14.4169 7.8085,14.2119 C7.7405,14.1599 7.6805,14.0349 7.6895,13.9519 C7.7475,13.3929 7.7335,12.8229 8.1505,12.3489 C8.4015,12.0629 8.6225,11.7709 8.9955,11.6359 C9.3485,11.5079 9.7165,11.6049 10.0745,11.5539 C10.1195,11.5479 10.1715,11.5869 10.2195,11.6059 C10.5135,11.7209 10.7465,11.9299 11.0055,12.0939 C11.4055,12.3459 11.5905,12.7189 11.7515,13.1069 C11.9395,13.5609 12.0275,14.0559 12.2135,14.5109 C12.3775,14.9149 12.5875,15.2839 13.0765,15.4409 C13.5605,15.5969 14.0365,15.7319 14.5465,15.7109 C14.6165,15.7079 14.6965,15.6699 14.7515,15.6229 C15.1385,15.2989 15.4095,14.9259 15.2435,14.3779 C15.2215,14.3069 15.2525,14.2219 15.2435,14.1449 C15.2235,13.9919 15.2255,13.8249 15.1615,13.6909 C14.8185,12.9689 14.5875,12.2159 14.4535,11.4279 C14.3625,10.8999 14.4555,10.3799 14.7025,9.9549 C14.9905,9.4599 15.4085,9.0259 15.9705,8.7829 C16.5835,8.5179 17.2185,8.3569 17.8875,8.3979 C18.2095,8.4169 18.5325,8.4799 18.8475,8.5509 C19.0685,8.6009 19.2865,8.6839 19.4935,8.7789 C19.9405,8.9819 20.1225,9.2849 20.0655,9.8249 C20.0185,10.2819 19.8335,10.5399 19.4705,10.7359 C19.3225,10.8159 19.1765,10.8999 19.0235,10.9689 C18.6425,11.1399 18.3935,11.4689 18.0945,11.7369 C17.8705,11.9399 17.6425,12.1369 17.6645,12.4849 C17.6675,12.5439 17.6245,12.6079 17.5995,12.6679 C17.4385,13.0469 17.4145,13.4449 17.4535,13.8459 C17.4765,14.0769 17.4795,14.3529 17.6065,14.5239 C17.9205,14.9479 18.0835,15.4429 18.3455,15.8879 C18.5495,16.2359 18.7905,16.5679 19.2315,16.6579 C19.4035,16.6929 19.5765,16.7759 19.7455,16.7659 C20.1025,16.7449 20.4585,16.7289 20.8165,16.7379 C20.9385,16.7419 21.0615,16.7229 21.1845,16.7139 C21.2015,16.6399 21.1945,16.5459 21.2385,16.4939 C21.4945,16.1949 21.5605,15.8239 21.6635,15.4629 C21.7215,15.2599 21.6885,15.0769 21.6005,14.8939 C21.2655,14.2059 21.1245,13.5009 21.3605,12.7449 C21.4285,12.5259 21.5335,12.3869 21.7395,12.2859 C22.1525,12.0839 22.5375,12.0879 22.9175,12.3589 C23.2805,12.6169 23.5305,12.9669 23.7075,13.3599 C23.8285,13.6269 24.0035,13.8319 24.2125,14.0199 C24.2495,14.0539 24.3305,14.0789 24.3305,14.1089 C24.3345,14.3919 24.6015,14.5189 24.6945,14.7409 C24.8555,15.1189 25.1955,15.1669 25.5235,15.2049 C25.8975,15.2479 26.2715,15.2629 26.5525,15.4649 C26.9885,15.2879 27.3905,15.1249 27.8125,14.9529 C27.8415,14.8519 27.9005,14.7279 27.9055,14.6019 C27.9125,14.4269 27.8775,14.2509 27.8615,14.0749 C27.8355,13.7869 27.7735,13.5259 27.5465,13.3069 C27.3465,13.1159 27.1855,12.8799 27.0235,12.6509 C26.5175,11.9319 26.3945,11.0889 26.2715,10.2489 C26.2585,10.1609 26.2695,10.0639 26.2905,9.9759 C26.3595,9.6849 26.4495,9.3999 26.5095,9.1079 C26.6005,8.6659 26.9095,8.3459 27.1525,7.9999 C27.3025,7.7859 27.4775,7.5309 27.7895,7.4669 C28.2085,7.3819 28.6075,7.3679 29.0455,7.4579 C29.5805,7.5689 29.8575,7.8939 30.0575,8.3229 C30.1585,8.5399 30.1465,8.8069 30.2105,9.0449 C30.2745,9.2849 30.2535,9.5069 30.1745,9.7369 C30.0155,10.2049 29.8665,10.6769 29.7175,11.1489 C29.5795,11.5859 29.6775,12.0219 29.7075,12.4639 C29.7495,13.0869 30.3915,13.6459 30.9215,13.7889 C31.4575,13.9339 31.9805,13.8969 32.4955,13.6899 C32.5995,13.6479 32.7465,13.6569 32.8115,13.5859 C33.0825,13.2919 33.3755,13.0179 33.4925,12.6039 C33.5985,12.2289 33.7705,11.8729 33.9045,11.5069 C34.0025,11.2399 34.1335,10.9849 34.1285,10.6859 C34.1265,10.5759 34.1865,10.4619 34.2315,10.3549 C34.3175,10.1509 34.4115,9.9499 34.5045,9.7489 C34.6345,9.4669 34.7305,9.1609 34.9045,8.9089 C35.2025,8.4769 35.5265,8.0639 35.7745,7.5979 C35.8115,7.5319 35.8705,7.4739 35.9315,7.4269 C36.4415,7.0219 37.0035,6.6999 37.5755,6.3919 C38.1325,6.0919 38.7365,5.9159 39.3415,5.7869 C39.9175,5.6659 40.5225,5.6809 41.1055,5.8459 C41.5225,5.9629 41.9185,6.1159 42.1705,6.4969 C42.2625,6.6359 42.3885,6.7849 42.3995,6.9379 C42.4605,7.7189 41.9885,8.2869 41.2755,8.5209 C41.0115,8.6079 40.7035,8.5679 40.4415,8.6599 C39.8685,8.8579 39.3105,9.0979 38.7515,9.3349 C38.5385,9.4259 38.3365,9.5489 38.1415,9.6759 C38.0135,9.7579 37.9105,9.8789 37.7905,9.9749 C37.4975,10.2099 37.1495,10.3899 36.9725,10.7429 C36.6515,11.3799 36.3305,12.0179 36.0355,12.6679 C35.9215,12.9199 35.8465,13.1999 35.8085,13.4749 C35.7645,13.7929 35.7665,14.1209 35.7745,14.4439 C35.7885,14.9219 35.8895,15.3519 36.2955,15.6949 C36.6045,15.9569 36.9475,16.1479 37.2965,16.3789 C37.6185,16.1079 37.9275,16.3739 38.2615,16.4199 C38.5185,16.1889 38.8995,16.0869 39.0335,15.7039 C39.0505,15.6579 39.1395,15.6389 39.1885,15.5999 C39.2375,15.5619 39.2955,15.5229 39.3215,15.4709 C39.6665,14.7879 40.1125,14.1519 40.3535,13.4219 C40.5515,12.8269 40.9315,12.3809 41.3705,11.9679 C41.4625,11.8809 41.5785,11.8129 41.6935,11.7589 C41.8175,11.7019 41.9695,11.6959 42.0815,11.6249 C42.3025,11.4859 42.5155,11.4799 42.7465,11.5789 C42.8295,11.6149 42.9195,11.6429 43.0095,11.6569 C43.3095,11.7039 43.5435,11.8349 43.6375,12.1359 C43.9425,12.1309 44.0605,12.2079 44.1395,12.4609 C44.1785,12.5839 44.2115,12.7089 44.2525,12.8309 C44.4425,13.3989 44.6605,13.9579 44.8185,14.5349 C44.9825,15.1299 44.9775,15.7729 45.3345,16.3139 C45.3475,16.3339 45.3395,16.3679 45.3515,16.3889 C45.4185,16.5099 45.4775,16.6389 45.5615,16.7459 C45.6585,16.8669 45.7755,16.9729 45.8925,17.0769 C45.9765,17.1519 46.0645,17.2349 46.1675,17.2779 C46.6455,17.4759 47.1285,17.6619 47.6115,17.8489 C47.6575,17.8669 47.7135,17.8689 47.7635,17.8669 C47.9535,17.8549 48.1445,17.8229 48.3345,17.8259 C48.7305,17.8309 49.0085,17.6679 49.1605,17.2989 C49.2615,17.0569 49.3745,16.8209 49.4605,16.5739 C49.4915,16.4869 49.4785,16.3729 49.4555,16.2789 C49.2875,15.6029 49.0355,14.9519 48.8565,14.2789 C48.7625,13.9179 48.6895,13.5339 48.5085,13.2169 C48.2515,12.7699 48.3185,12.3159 48.4255,11.8939 C48.6055,11.1729 48.9325,10.5129 49.5575,10.0369 C49.7495,9.8899 49.9375,9.7729 50.1655,9.7019 C50.3225,9.6539 50.4705,9.5669 50.6305,9.5279 C50.9585,9.4469 51.2885,9.4109 51.6265,9.4959 C52.1295,9.6229 52.4325,9.9609 52.5935,10.4249 C52.6945,10.7159 52.8115,11.0339 52.7865,11.3289 C52.7545,11.7309 52.5715,12.1159 52.4845,12.5189 C52.4205,12.8189 52.2705,13.1029 52.1455,13.3879 C51.9055,13.9339 51.9525,14.5149 51.9655,15.0819 C51.9715,15.3229 52.1295,15.5609 52.2245,15.7969 C52.2485,15.8559 52.2845,15.9199 52.3335,15.9569 C52.7635,16.2829 53.1655,16.6449 53.6555,16.8889 C53.7975,16.9589 53.9115,16.9759 54.0615,16.9169 C54.1745,16.8729 54.3205,16.8359 54.4285,16.8719 C54.7585,16.9809 55.0725,17.0659 55.4375,17.0459 C55.7765,17.0269 56.0305,16.9059 56.2825,16.7209 C56.3945,16.6379 56.5095,16.5599 56.6105,16.4669 C56.8115,16.2819 57.0315,16.0889 57.0575,15.8039 C57.0895,15.4299 57.2795,15.0629 57.1245,14.6749 C57.0995,14.6089 57.1385,14.5199 57.1325,14.4429 C57.1095,14.1319 57.1605,13.7839 57.0365,13.5179 C56.8555,13.1329 56.9375,12.7749 57.0165,12.4249 C57.0615,12.2189 57.2745,12.0449 57.4265,11.8689 C57.5165,11.7639 57.6295,11.7669 57.7335,11.8679 C57.7425,11.8759 57.7855,11.8629 57.8025,11.8479 C58.1035,11.5839 58.4085,11.8069 58.6715,11.8949 C58.9085,11.9739 59.1495,12.1809 59.2845,12.3969 C59.4815,12.7129 59.8685,12.9389 59.8155,13.3969 C59.8075,13.4739 59.8845,13.5619 59.9215,13.6449 C59.9735,13.7639 60.0355,13.8789 60.0745,14.0009 C60.2135,14.4429 60.4085,14.8649 60.4855,15.3289 C60.5675,15.8179 60.9935,16.0959 61.2515,16.4769 C61.5295,16.8909 61.9495,17.0509 62.3555,17.1289 C62.5475,17.1649 62.7405,17.1769 62.9335,17.1619 C62.7915,16.9109 62.6465,16.6609 62.4995,16.4139 C62.2805,16.3759 62.0175,16.2989 61.8905,16.1439 C61.5965,15.7849 61.3205,15.3879 61.1385,14.9629 C60.9615,14.5499 60.8275,14.1179 60.6875,13.6879 C60.0335,12.8009 59.3375,11.9469 58.6015,11.1299 C58.4515,11.0829 58.2975,11.0439 58.1405,11.0089 C57.8365,10.9399 57.5555,10.9239 57.2855,11.1189 C57.1205,11.2399 56.8895,11.2969 56.7695,11.4479 C56.3365,11.9929 56.1715,12.6259 56.2965,13.3179 C56.3585,13.6639 56.4785,14.0009 56.5185,14.3479 C56.5705,14.8139 56.5845,15.2959 56.2925,15.6999 C56.1515,15.8939 55.9365,16.0339 55.7575,16.2019 C55.5705,16.3769 55.3705,16.3789 55.1445,16.2789 C54.9315,16.1839 54.7215,16.0719 54.4755,16.0719 C54.2955,16.0719 54.1085,16.0789 53.9365,16.0369 C53.7605,15.9939 53.5665,15.9289 53.4355,15.8119 C53.2265,15.6259 53.0475,15.4039 52.8175,15.2379 C52.8115,15.2329 52.8165,15.2119 52.8135,15.1999 C52.6885,14.6429 52.5795,14.0889 52.8275,13.5339 C52.8915,13.3919 52.9175,13.2349 52.9805,13.0929 C53.1625,12.6859 53.2225,12.2409 53.3685,11.8289 C53.5295,11.3749 53.4835,10.9679 53.3395,10.5439 C53.2415,10.2609 53.1195,9.9849 53.0345,9.6979 C52.9625,9.4549 52.8015,9.2979 52.6065,9.1659 C52.2245,8.9079 51.7845,8.7579 51.3445,8.6779 C50.9945,8.6139 50.5915,8.6299 50.2635,8.7899 C49.8225,9.0039 49.4015,9.2739 49.0135,9.5719 C48.7715,9.7569 48.5775,10.0219 48.4135,10.2829 C48.2335,10.5669 48.1295,10.8969 47.9635,11.1899 C47.6365,11.7659 47.6555,12.3589 47.8185,12.9719 C47.9465,13.4529 48.2175,13.8819 48.2815,14.3899 C48.3425,14.8609 48.6145,15.2839 48.6445,15.7709 C48.6515,15.8909 48.7835,16.0149 48.7695,16.1249 C48.7255,16.4789 48.7485,16.8699 48.3685,17.1199 C48.1535,17.1659 47.9205,17.1279 47.6905,17.0169 C47.6005,16.9729 47.4885,16.9449 47.3895,16.9529 C47.0175,16.9849 46.7465,16.7519 46.4675,16.5819 C45.9835,16.2869 45.8115,15.7589 45.6755,15.2569 C45.4725,14.5069 45.3235,13.7429 45.0785,13.0029 C45.0185,12.8179 44.9245,12.6419 44.8765,12.4549 C44.7165,11.8159 44.3015,11.3949 43.7205,11.1459 C43.3755,10.9989 42.9965,10.9319 42.6365,10.8179 C42.4365,10.7549 42.2545,10.6829 42.0365,10.7949 C41.8615,10.8849 41.6325,10.8739 41.4665,10.9729 C40.8845,11.3219 40.4175,11.7989 40.0375,12.3609 C39.9655,12.4679 39.8655,12.5629 39.8165,12.6789 C39.7015,12.9559 39.6095,13.2429 39.5075,13.5249 C39.4075,13.7959 39.2245,14.0209 39.1255,14.2969 C38.9445,14.8059 38.5325,15.1399 38.1345,15.4759 C38.0945,15.5089 38.0495,15.5439 38.0015,15.5569 C37.6865,15.6409 36.9605,15.3619 36.7545,15.0869 C36.5925,14.8699 36.5265,14.6449 36.5405,14.3619 C36.5695,13.7589 36.5685,13.1569 36.8365,12.5989 C36.9775,12.3059 37.2085,12.0439 37.2895,11.7389 C37.4485,11.1349 37.8575,10.7429 38.3075,10.3809 C38.8955,9.9059 39.5765,9.5869 40.2915,9.3479 C40.4865,9.2829 40.6965,9.2649 40.8995,9.2219 C41.4365,9.1069 41.9345,8.9489 42.3595,8.5489 C42.7665,8.1669 42.9425,7.6909 43.0875,7.2009 C43.1515,6.9799 43.1295,6.6929 42.9535,6.4639 C42.7355,6.1819 42.6395,5.8209 42.3535,5.5769 C42.2025,5.4489 42.0905,5.3189 41.8645,5.2759 C41.5695,5.2199 41.3085,5.0099 40.9825,5.0359 C40.9635,5.0379 40.9335,5.0119 40.9215,4.9909 C40.8345,4.8399 40.6965,4.8959 40.5735,4.9059 C40.4345,4.9179 40.2955,4.9409 40.1555,4.9579 C39.8785,4.9919 39.5975,5.0069 39.3235,5.0609 C39.0305,5.1189 38.7505,5.2439 38.4565,5.2839 C37.9965,5.3449 37.5945,5.5469 37.1965,5.7519 C36.7725,5.9709 36.3665,6.2289 35.9735,6.5009 C35.6865,6.6989 35.3735,6.9029 35.1775,7.1799 C34.8255,7.6729 34.5395,8.2149 34.2495,8.7499 C33.8535,9.4799 33.4415,10.2189 33.2865,11.0349 C33.1745,11.6219 32.7415,12.0349 32.6165,12.5949 C32.6035,12.6519 32.5395,12.6979 32.4975,12.7479 C32.1055,13.2119 31.5995,13.1689 31.0855,13.0529 C30.8445,12.9979 30.6495,12.8339 30.5745,12.6059 C30.4655,12.2749 30.2415,11.9569 30.3745,11.5769 C30.3995,11.5039 30.4525,11.4309 30.4505,11.3589 C30.4405,10.9519 30.5395,10.5619 30.6985,10.1989 C30.9635,9.5919 30.9655,8.9689 30.8085,8.3579 C30.7265,8.0369 30.5295,7.7169 30.3055,7.4659 C29.8885,6.9969 29.3905,6.6309 28.6985,6.7129 C28.1695,6.4699 27.7295,6.8969 27.2335,6.9119 C27.1875,6.9129 27.1495,7.0009 27.1005,7.0389 C26.7925,7.2769 26.6655,7.6439 26.4425,7.9429 C26.1775,8.2979 25.9335,8.6759 25.8485,9.1079 C25.7655,9.5249 25.7255,9.9639 25.7515,10.3869 C25.7755,10.7719 25.9465,11.1449 25.9945,11.5309 C26.0945,12.3369 26.5735,12.9589 26.9815,13.6079 C27.1275,13.8379 27.1965,14.0339 27.1725,14.3219 C26.9435,14.3919 26.7195,14.4889 26.4855,14.5229 C26.2615,14.5549 26.0275,14.5309 25.7995,14.5139 C25.7135,14.5079 25.6165,14.4739 25.5495,14.4209 C25.3675,14.2759 25.1835,14.1279 25.0305,13.9549 C24.8945,13.8029 24.8065,13.6099 24.6865,13.4429 C24.3915,13.0339 24.0735,12.6399 23.7945,12.2189 C23.5365,11.8279 23.1835,11.5759 22.7415,11.4889 C22.3235,11.4069 21.9105,11.3379 21.4735,11.5699 C21.1855,11.7219 20.9315,11.8529 20.8015,12.1549 C20.5665,12.6959 20.5355,13.2629 20.6385,13.8349 C20.7105,14.2439 20.8055,14.6489 20.9045,15.0529 C20.9805,15.3639 20.9365,15.6499 20.7235,15.8829 C20.5425,16.0799 20.3315,16.1709 20.0255,16.1759 C19.5255,16.1839 19.1725,15.9409 18.9495,15.5939 C18.6445,15.1189 18.4625,14.5649 18.2205,14.0489 C17.8745,13.3089 18.2635,12.1689 18.9595,11.6419 C19.2235,11.4429 19.4795,11.2329 19.7735,11.0019 C19.8885,11.0729 19.9875,10.9759 20.1165,10.8649 C20.4275,10.5989 20.5225,10.2309 20.6245,9.8739 C20.6875,9.6529 20.6745,9.4069 20.6785,9.1729 C20.6845,8.8429 20.5215,8.6009 20.2445,8.4339 C20.0665,8.3279 19.8815,8.2349 19.7075,8.1219 C19.3275,7.8729 18.9445,7.6539 18.4595,7.7659 C18.3615,7.7889 18.2475,7.7769 18.1475,7.7529 C17.5145,7.6019 16.9025,7.7759 16.3095,7.9279 C15.3595,8.1709 14.6275,8.7589 14.1095,9.5959 C14.0375,9.7119 14.0285,9.8659 13.9685,9.9929 C13.8635,10.2189 13.9535,10.4579 13.9085,10.6809 C13.7595,11.4329 14.0565,12.1199 14.2025,12.8269 C14.3105,13.3469 14.4965,13.8499 14.6135,14.3679 C14.7075,14.7869 14.5235,14.9489 14.0715,14.8989 C14.0075,14.8919 13.9355,14.9189 13.8775,14.8989 C13.5485,14.7849 13.1935,14.7369 12.9945,14.3719 C12.7135,13.8579 12.4995,13.3239 12.3455,12.7619 C12.2005,12.2339 11.9495,11.7619 11.4775,11.4689 C10.8135,11.0579 10.1195,10.7089 9.2995,10.7659 C9.2215,10.7719 9.1365,10.7599 9.0665,10.7859 C8.9995,10.8109 8.9345,10.8389 8.8685,10.8669 C8.2995,11.4859 7.7525,12.1249 7.2305,12.7859 C7.1465,13.1229 7.0975,13.4699 7.0445,13.8119 C6.9865,14.1839 7.1325,14.5519 7.4765,14.7569 C7.9565,15.0409 8.4405,15.3339 8.9575,15.5349 C9.5525,15.7669 9.9245,16.1979 10.1995,16.7209 C10.4725,17.2409 10.4605,17.7959 10.1525,18.3099 C9.9305,18.6809 9.4925,18.7159 9.1385,18.8639 C8.9775,18.9309 8.7515,18.8669 8.5615,18.8319 C8.3715,18.7969 8.1595,18.7649 8.0105,18.6579 C7.7325,18.4579 7.4905,18.2079 7.2405,17.9719 C7.0915,17.8299 6.9415,17.6839 6.8165,17.5219 C6.7005,17.3699 6.6145,17.1949 6.5185,17.0279 C6.4205,16.8619 6.3345,16.6889 6.2305,16.5269 C6.1465,16.3979 6.0365,16.2869 5.9485,16.1609 C5.7635,15.8949 5.5645,15.6529 5.3175,15.4629 C5.1875,15.6649 5.0615,15.8689 4.9365,16.0739 C5.1915,16.2369 5.4165,16.4399 5.5825,16.7229" id="Fill-181" fill="#DACCAB"></path>
                            <path d="M18.6128,3.9085 C18.6958,4.0815 18.7858,4.2535 18.8508,4.4325 C18.9708,4.7635 19.0158,5.1375 19.1978,5.4265 C19.5448,5.9745 19.8658,6.5685 20.4458,6.9175 C20.8568,7.1655 21.3148,7.2915 21.8028,7.1985 C22.1708,7.1285 22.5408,7.0585 22.8998,6.9555 C23.0678,6.9075 23.2588,6.8165 23.3588,6.6845 C23.9718,5.8755 24.0948,4.5405 23.5188,3.7005 C23.3878,3.5105 23.2798,3.3005 23.1278,3.1305 C22.7888,2.7515 22.7318,2.2895 22.6998,1.8185 L22.6998,1.8125 C22.5168,1.8755 22.3348,1.9395 22.1538,2.0055 C22.1568,2.0505 22.1608,2.0965 22.1638,2.1405 C22.1798,2.3445 22.2338,2.5455 22.2788,2.7455 C22.3438,3.0335 22.5068,3.2605 22.7148,3.4665 C22.9418,3.6905 23.0508,3.9855 23.1698,4.2745 C23.3678,4.7605 23.3558,5.2365 23.1648,5.7205 C23.0248,6.0775 22.7828,6.3045 22.4058,6.3775 C22.1198,6.4335 21.8448,6.5295 21.5448,6.5335 C21.2968,6.5365 21.0768,6.4925 20.8748,6.3655 C20.6478,6.2215 20.4668,6.0095 20.2748,5.8325 C20.0118,5.5905 19.8578,5.2145 19.7038,4.8745 C19.4888,4.4015 19.4038,3.8755 19.0988,3.4375 C19.0728,3.4005 19.0498,3.3605 19.0258,3.3225 C18.8348,3.4145 18.6468,3.5095 18.4588,3.6045 C18.5108,3.7055 18.5638,3.8055 18.6128,3.9085" id="Fill-183" fill="#DACCAB"></path>
                            <path d="M26.229,0.9104 C26.427,0.9674 26.454,1.1574 26.526,1.2994 C26.727,1.6934 26.888,2.1074 27.094,2.4984 C27.263,2.8204 27.467,3.1244 27.672,3.4254 C27.759,3.5514 27.87,3.6824 28.001,3.7504 C28.351,3.9314 28.697,4.1444 29.104,4.1674 C29.436,4.1864 29.774,4.2284 30.097,4.0934 C30.49,3.9294 30.882,3.7654 31.257,3.6094 C31.287,3.4934 31.296,3.4124 31.328,3.3434 C31.643,2.6584 31.594,1.9764 31.32,1.2944 C31.262,1.1494 31.213,0.9994 31.166,0.8504 C31.088,0.6024 31.014,0.3534 30.938,0.1054 C30.748,0.1204 30.558,0.1384 30.369,0.1564 C30.41,0.2844 30.452,0.4124 30.497,0.5404 C30.713,1.1534 30.858,1.7844 30.93,2.4314 C30.97,2.7974 30.809,3.0574 30.463,3.1774 C30.389,3.2024 30.302,3.2094 30.243,3.2554 C29.897,3.5214 29.516,3.4724 29.133,3.3854 C29.021,3.3604 28.92,3.2574 28.812,3.2544 C28.501,3.2454 28.3,3.0504 28.148,2.8384 C27.833,2.3964 27.502,1.9494 27.281,1.4584 C27.156,1.1814 27.013,0.9244 26.851,0.6804 C26.615,0.7284 26.381,0.7804 26.147,0.8334 C26.169,0.8684 26.198,0.9014 26.229,0.9104" id="Fill-185" fill="#DACCAB"></path>
                            <path d="M66.892,34.7029 C66.275,34.8369 65.663,34.9969 65.051,35.1529 C64.551,35.2809 64.132,35.1949 63.673,34.9039 C63.24,34.6309 63.11,34.2729 63.059,33.8489 C62.951,32.9499 62.996,32.0489 63.27,31.1859 C63.518,30.4049 63.715,29.6119 63.878,28.8129 C63.938,28.5149 63.906,28.1469 63.78,27.8739 C63.568,27.4159 63.254,27.0049 62.924,26.6129 C62.675,26.3159 62.303,26.3189 61.987,26.1969 C61.751,26.1059 61.476,26.0399 61.232,26.0689 C60.867,26.1129 60.496,26.1779 60.199,26.4689 C59.941,26.7209 59.666,26.9389 59.551,27.3019 C59.465,27.5719 59.298,27.8239 59.253,28.0979 C59.167,28.6199 59.136,29.1509 59.098,29.6799 C59.084,29.8719 59.133,30.0689 59.123,30.2629 C59.117,30.4109 59.075,30.5609 59.05,30.7039 C58.993,31.0369 59.002,31.3779 58.799,31.7079 C58.605,32.0209 58.355,32.2499 58.099,32.4799 C57.88,32.6769 57.614,32.8239 57.356,32.9719 C57.276,33.0169 57.127,33.0379 57.059,32.9949 C56.729,32.7819 56.309,32.6739 56.141,32.2569 C56.118,32.1989 56.07,32.1519 56.038,32.0969 C55.754,31.5829 55.52,31.0559 55.514,30.4519 C55.507,29.7859 55.488,29.1209 55.471,28.4559 C55.456,27.8889 55.247,27.4439 54.682,27.2329 C54.17,27.0419 53.657,27.1069 53.15,27.2479 C52.99,27.2919 52.852,27.4099 52.694,27.4659 C52.176,27.6499 51.814,28.0229 51.539,28.4669 C51.238,28.9549 51.137,29.5319 51.003,30.0819 C50.946,30.3189 50.928,30.6079 51.054,30.8679 C51.196,31.1579 51.313,31.4589 51.434,31.7579 C51.69,32.3899 51.956,33.0179 52.186,33.6599 C52.297,33.9689 52.332,34.3049 52.409,34.6269 C52.501,35.0189 52.473,35.3529 52.207,35.7089 C52.031,35.9459 51.871,36.1949 51.647,36.3889 C51.4,36.6019 51.084,36.5629 50.791,36.5379 C50.705,36.5309 50.613,36.4029 50.55,36.3109 C50.457,36.1759 50.387,36.0239 50.313,35.8769 C50.285,35.8209 50.243,35.7529 50.251,35.6989 C50.301,35.3909 50.362,35.0849 50.422,34.7799 C50.48,34.4899 50.558,34.2039 50.598,33.9119 C50.654,33.5129 50.587,33.1649 50.223,32.8919 C50.1,32.7989 50,32.6399 49.845,32.5809 C49.567,32.4739 49.285,32.3569 48.994,32.3069 C48.567,32.2339 48.118,32.1209 47.746,32.4929 C47.684,32.5539 47.588,32.6089 47.504,32.6149 C47.25,32.6329 47.08,32.7979 46.899,32.9389 C46.78,33.0319 46.694,33.1649 46.59,33.2769 C46.431,33.4479 46.218,33.5909 46.123,33.7899 C46.024,33.9989 46.032,34.2609 46.002,34.4999 C45.991,34.5889 46.021,34.6839 46.005,34.7719 C45.979,34.9239 45.95,35.0789 45.891,35.2199 C45.776,35.4929 45.629,35.7519 45.516,36.0249 C45.43,36.2319 45.422,36.4849 45.298,36.6589 C45.109,36.9229 44.913,37.1619 44.922,37.5119 C44.924,37.5739 44.841,37.6389 44.797,37.7019 C44.738,37.7869 44.669,37.8679 44.621,37.9589 C44.381,38.4249 43.549,38.7279 43.008,38.5889 C42.748,38.5219 42.512,38.2279 42.555,37.9759 C42.604,37.6879 42.662,37.3829 42.8,37.1319 C43,36.7709 43.28,36.4539 43.523,36.1159 C43.818,35.7059 44.111,35.2949 44.403,34.8829 C44.699,34.4639 44.682,34.0629 44.329,33.6849 C44.008,33.3419 43.688,33.0119 43.195,32.9059 C42.713,32.8029 42.298,32.9959 41.867,33.1299 C41.744,33.1679 41.54,33.1909 41.518,33.2649 C41.419,33.5839 41.098,33.6409 40.905,33.8419 C40.663,34.0949 40.397,34.3279 40.121,34.5429 C39.611,34.9369 38.894,34.9479 38.314,34.5869 C38.345,34.4579 38.389,34.3269 38.227,34.2239 C38.176,34.1909 38.156,34.0459 38.18,33.9729 C38.276,33.6779 38.357,33.3689 38.513,33.1059 C38.77,32.6749 39.082,32.2769 39.369,31.8639 C39.494,31.6839 39.672,31.5159 39.723,31.3159 C39.841,30.8519 39.912,30.3729 39.969,29.8969 C39.994,29.6969 39.946,29.4949 39.806,29.3129 C39.318,28.6789 38.644,28.5109 37.9,28.5529 C37.607,28.5699 37.283,28.6129 37.038,28.7569 C36.698,28.9559 36.345,29.1629 36.087,29.4889 C35.919,29.7009 35.712,29.8829 35.53,30.0839 C35.482,30.1369 35.446,30.2089 35.424,30.2779 C35.273,30.7849 35.143,31.2989 34.973,31.7999 C34.837,32.1999 34.621,32.5729 34.501,32.9759 C34.373,33.4069 34.14,33.7039 33.725,33.8729 C33.528,33.9539 33.345,34.1199 33.145,34.1389 C32.809,34.1709 32.403,34.3239 32.19,33.8689 C32.186,33.8589 32.167,33.8569 32.157,33.8489 C31.783,33.5859 31.625,33.2149 31.669,32.7889 C31.703,32.4639 31.67,32.1409 31.461,31.8669 C31.28,31.6269 31.091,31.3929 30.911,31.1519 C30.599,30.7349 30.213,30.4799 29.674,30.3989 C29.173,30.3249 28.719,30.3809 28.269,30.5859 C27.723,30.8349 27.184,31.1129 26.581,31.1989 C26.003,31.2819 25.438,31.2219 24.917,30.9309 C24.749,30.8359 24.663,30.7109 24.696,30.4839 C24.784,29.8879 25.162,29.4779 25.565,29.0959 C25.846,28.8299 26.201,28.6439 26.503,28.3989 C26.684,28.2539 26.861,28.0829 26.977,27.8869 C27.073,27.7259 27.129,27.5789 27.333,27.5129 C27.43,27.4819 27.531,27.3339 27.552,27.2239 C27.59,27.0239 27.573,26.8129 27.572,26.6059 C27.571,26.1559 27.375,25.7999 26.978,25.6019 C26.64,25.4339 26.3,25.2879 25.891,25.2629 C25.199,25.2199 24.671,25.4729 24.211,25.9389 C23.964,26.1889 23.728,26.4509 23.494,26.7139 C23.322,26.9069 23.146,27.0989 22.997,27.3099 C22.702,27.7289 22.333,28.0689 21.913,28.3549 C21.567,28.5889 21.184,28.6789 20.765,28.6329 C20.467,28.5999 20.19,28.5239 19.906,28.4239 C19.284,28.2029 18.703,27.9089 18.241,27.4479 C17.789,26.9959 17.275,26.6339 16.784,26.2359 C16.22,25.7789 15.566,25.7499 14.902,25.7489 C14.577,25.7489 14.254,25.8229 13.982,26.0299 C13.889,26.1009 13.804,26.1869 13.702,26.2419 C13.28,26.4669 13.087,26.8839 12.92,27.2789 C12.772,27.6289 12.739,28.0379 12.715,28.4259 C12.703,28.6309 12.776,28.8699 12.884,29.0479 C13.061,29.3409 13.312,29.5759 13.642,29.7129 C14.107,29.9059 14.532,30.1789 15.025,30.3269 C15.558,30.4849 16.121,30.5809 16.601,30.8899 C16.799,31.0169 17.091,31.0279 17.154,31.3329 C17.162,31.3719 17.256,31.3919 17.308,31.4239 C17.382,31.4709 17.463,31.5129 17.527,31.5719 C17.67,31.7049 17.824,31.8329 17.938,31.9889 C18.097,32.2069 18.333,32.4469 18.336,32.6799 C18.341,32.9429 18.482,33.1519 18.485,33.4179 C18.488,33.7579 18.615,34.0839 18.292,34.3459 C18.272,34.3619 18.249,34.3819 18.241,34.4049 C18.089,34.8579 17.696,35.0519 17.31,35.2319 C16.685,35.5209 16.039,35.4219 15.406,35.2569 C15.176,35.1959 14.967,35.0279 14.956,34.7649 C14.942,34.4299 14.966,34.0899 15.006,33.7559 C15.037,33.4989 15.142,33.2509 15.172,32.9949 C15.219,32.5779 15.217,32.1889 14.862,31.8459 C14.598,31.5899 14.286,31.4509 13.988,31.2709 C13.706,31.1019 13.411,31.2079 13.185,31.3299 C12.778,31.5519 12.411,31.8499 12.039,32.1319 C11.612,32.4569 11.412,32.8859 11.491,33.4329 C11.593,34.1289 11.688,34.8249 11.778,35.5219 C11.797,35.6719 11.781,35.8269 11.781,35.9499 C11.839,36.1609 11.894,36.3129 11.922,36.4689 C11.976,36.7779 12.014,37.0889 12.062,37.3989 C12.106,37.6789 12.163,37.9559 12.199,38.2369 C12.224,38.4289 12.233,38.6239 12.228,38.8179 C12.221,39.0979 12.215,39.3799 12.17,39.6539 C12.122,39.9429 11.852,40.0059 11.627,40.1049 C11.604,40.1159 11.587,40.1389 11.565,40.1529 C11.32,40.3009 11.052,40.3309 10.773,40.3099 C10.402,40.2819 10.152,40.0439 9.864,39.8369 C9.386,39.4939 9.197,39.0069 9.021,38.4969 C8.858,38.0229 9.093,37.5989 9.228,37.1719 C9.368,36.7369 9.433,36.3309 9.241,35.8859 C9.025,35.3839 8.749,35.0049 8.143,35.0089 C8.039,35.0099 7.932,34.9989 7.832,34.9719 C7.577,34.9029 7.357,34.9949 7.187,35.1569 C6.738,35.5839 6.285,36.0109 5.879,36.4769 C5.587,36.8119 5.234,37.0479 4.867,37.2669 C4.559,37.4509 4.129,37.4009 3.961,37.0919 C3.746,36.6969 3.597,36.2549 3.646,35.7829 C3.689,35.3679 3.719,34.9509 3.791,34.5399 C3.872,34.0789 3.723,33.6739 3.586,33.2489 C3.438,32.7869 3.099,32.4739 2.743,32.2349 C2.382,31.9919 1.906,31.9069 1.466,32.0969 C0.874,32.3519 0.385,32.7229 0.005,33.2389 C0.004,33.3639 0,33.4889 0,33.6139 C0,35.9989 0.25,38.3259 0.723,40.5699 C0.966,40.1449 1.036,39.7039 0.915,39.2229 C0.792,38.7359 0.764,38.2239 0.466,37.7859 C0.36,37.6309 0.291,37.4249 0.275,37.2359 C0.215,36.5349 0.166,35.8319 0.15,35.1279 C0.142,34.7309 0.238,34.3339 0.418,33.9769 C0.612,33.5899 0.925,33.2889 1.243,33.0019 C1.474,32.7929 1.789,32.6939 2.071,32.7439 C2.696,32.8549 3.124,33.3479 3.181,34.0329 C3.225,34.5589 3.138,35.0959 3.125,35.6279 C3.117,35.9489 3.099,36.2789 3.161,36.5899 C3.225,36.9159 3.377,37.2249 3.495,37.5389 C3.526,37.6219 3.553,37.7409 3.617,37.7729 C3.962,37.9439 4.298,38.1909 4.721,38.0069 C4.768,37.9859 4.826,37.9469 4.867,37.9579 C5.274,38.0779 5.516,37.7579 5.742,37.5569 C6.085,37.2499 6.517,37.0199 6.733,36.5789 C6.765,36.5139 6.85,36.4759 6.903,36.4189 C6.972,36.3459 7.046,36.2739 7.097,36.1879 C7.395,35.6869 7.763,35.5519 8.318,35.7489 C8.761,35.9059 8.894,36.2849 8.706,36.7159 C8.432,37.3429 8.242,37.9959 8.398,38.6899 C8.452,38.9279 8.562,39.1539 8.65,39.3839 C8.833,39.8609 9.019,40.1229 9.545,40.4349 C9.567,40.4489 9.582,40.4719 9.603,40.4869 C10.097,40.8529 10.615,41.1299 11.262,40.9619 C11.462,40.9099 11.664,40.8479 11.869,40.8319 C12.254,40.8029 12.427,40.4189 12.77,40.3179 C12.832,40.2999 12.864,40.1279 12.882,40.0229 C12.938,39.6939 12.994,39.3639 13.022,39.0319 C13.035,38.8849 12.946,38.7279 12.962,38.5819 C12.988,38.3429 12.799,38.0989 12.977,37.8639 C12.984,37.8549 12.951,37.8209 12.944,37.7969 C12.848,37.4509 12.715,37.1099 12.667,36.7579 C12.609,36.3359 12.597,35.9109 12.481,35.4939 C12.402,35.2109 12.388,34.9109 12.349,34.6179 C12.323,34.4259 12.311,34.2309 12.282,34.0399 C12.221,33.6329 12.085,33.2059 12.344,32.8369 C12.528,32.5759 12.782,32.3589 13.028,32.1489 C13.302,31.9149 13.66,31.9389 14.002,31.8989 C14.09,31.9679 14.175,32.0539 14.277,32.1079 C14.426,32.1869 14.611,32.2219 14.635,32.4299 C14.655,32.5969 14.691,32.7719 14.66,32.9319 C14.605,33.2109 14.495,33.4769 14.424,33.7529 C14.386,33.9009 14.372,34.0569 14.364,34.2099 C14.357,34.3499 14.397,34.4949 14.373,34.6309 C14.331,34.8789 14.413,35.1069 14.509,35.3079 C14.609,35.5169 14.73,35.7489 15.017,35.7989 C15.258,35.8409 15.529,35.8599 15.722,35.9869 C16.014,36.1799 16.302,36.1039 16.585,36.0719 C17.272,35.9949 17.871,35.6889 18.434,35.3009 C19.007,34.9059 19.486,33.9899 19.184,33.1679 C19.13,33.0219 19.075,32.8699 19.06,32.7159 C19.019,32.3079 18.868,31.9409 18.635,31.6179 C18.431,31.3339 18.187,31.0759 17.938,30.8289 C17.724,30.6169 17.46,30.4739 17.19,30.3279 C16.748,30.0889 16.284,29.9669 15.809,29.8469 C15.518,29.7739 15.214,29.6989 14.963,29.5469 C14.714,29.3979 14.456,29.3029 14.194,29.1959 C13.587,28.9499 13.371,28.5169 13.513,27.8949 C13.552,27.7239 13.651,27.5649 13.67,27.3949 C13.703,27.1039 13.905,26.9429 14.088,26.7649 C14.534,26.3339 15.077,26.3959 15.617,26.4829 C16.082,26.5579 16.515,26.6909 16.878,27.0379 C17.293,27.4359 17.761,27.7789 17.984,28.3369 C18.056,28.5179 18.174,28.6009 18.38,28.5619 C18.472,28.5449 18.585,28.5559 18.67,28.5939 C19.015,28.7499 19.347,28.9339 19.694,29.0829 C19.895,29.1689 20.115,29.2449 20.33,29.2589 C21.138,29.3099 21.912,29.2079 22.559,28.6509 C22.968,28.2979 23.429,27.9959 23.648,27.4689 C23.667,27.4239 23.714,27.3909 23.75,27.3529 C24.067,27.0289 24.391,26.7099 24.698,26.3779 C24.891,26.1699 25.109,26.0419 25.387,25.9609 C25.728,25.8609 26.055,25.9459 26.387,25.9539 C26.675,25.9609 26.849,26.1279 26.93,26.4229 C27.056,26.8809 26.91,27.2489 26.587,27.5459 C26.234,27.8699 25.843,28.1509 25.479,28.4629 C25.274,28.6379 25.063,28.8179 24.902,29.0319 C24.653,29.3629 24.442,29.7219 24.22,30.0729 C24.037,30.3629 23.915,30.6149 24.148,30.9899 C24.371,31.3489 24.592,31.6069 25.009,31.7169 C25.235,31.7759 25.456,31.7939 25.682,31.8269 C25.961,31.8679 26.225,31.8569 26.494,31.7909 C26.632,31.7579 26.776,31.7429 26.915,31.7109 C27.218,31.6409 27.523,31.5779 27.822,31.4909 C28.119,31.4049 28.402,31.2649 28.682,31.1469 C29.098,30.9729 29.467,31.1249 29.855,31.1339 C29.934,31.1359 30.026,31.2039 30.089,31.2659 C30.329,31.5039 30.573,31.7419 30.79,32.0009 C30.873,32.1009 30.939,32.2659 30.923,32.3899 C30.883,32.6849 30.955,32.9559 30.999,33.2389 C31.048,33.5629 31.159,33.8479 31.365,34.0899 C31.561,34.3219 31.6,34.7069 31.991,34.7579 C32.071,35.0339 32.31,34.9769 32.475,34.9369 C32.996,34.8109 33.514,34.6649 34.019,34.4889 C34.61,34.2839 34.901,33.7549 35.223,33.2709 C35.263,33.2109 35.253,33.1189 35.276,33.0439 C35.34,32.8319 35.401,32.6179 35.479,32.4109 C35.567,32.1819 35.676,31.9609 35.77,31.7349 C35.921,31.3659 35.939,30.9649 36.126,30.5939 C36.514,29.8249 37.106,29.3539 37.93,29.1929 C38.229,29.1349 38.552,29.0709 38.864,29.2479 C39.339,29.5179 39.541,30.3789 39.209,30.9659 C39.095,31.1679 38.993,31.3759 38.868,31.5719 C38.756,31.7449 38.63,31.9119 38.496,32.0699 C38.094,32.5379 37.708,33.0129 37.64,33.6599 C37.624,33.8149 37.569,33.9149 37.397,33.9689 C37.148,34.0479 37.117,34.1479 37.233,34.3749 C37.429,34.7589 37.762,35.0169 38.115,35.2349 C38.889,35.7109 39.673,35.4259 40.452,35.2239 C40.693,34.9819 41.021,34.8489 41.232,34.5609 C41.413,34.3149 41.607,34.0629 41.932,33.9779 C41.976,33.9659 42.024,33.9379 42.052,33.9039 C42.369,33.5219 42.81,33.4949 43.229,33.5709 C43.503,33.6199 43.817,33.7679 43.88,34.1129 C43.926,34.3669 43.897,34.6189 43.727,34.8439 C43.369,35.3199 43.053,35.8309 42.665,36.2809 C42.052,36.9929 41.888,37.8069 41.965,38.6179 C42.203,38.8699 42.384,39.0639 42.578,39.2699 C42.824,39.2699 43.083,39.3009 43.334,39.2629 C43.719,39.2049 44.102,39.1169 44.478,39.0099 C44.631,38.9659 44.802,38.8719 44.895,38.7479 C45.12,38.4509 45.33,38.1359 45.497,37.8049 C45.773,37.2629 46.011,36.7029 46.262,36.1479 C46.455,35.7199 46.707,35.3099 46.693,34.8119 C46.691,34.7579 46.753,34.7039 46.777,34.6459 C46.809,34.5649 46.856,34.4799 46.854,34.3979 C46.85,34.1449 46.924,33.9249 47.093,33.7419 C47.234,33.5909 47.415,33.4969 47.588,33.3869 C47.935,33.1649 48.27,33.0089 48.687,32.9859 C49.107,32.9619 49.452,33.1029 49.755,33.3569 C49.985,33.5499 50.033,33.8209 49.957,34.1099 C49.854,34.5129 49.737,34.9129 49.646,35.3189 C49.503,35.9619 49.746,36.4849 50.198,36.9269 C50.318,37.0439 50.455,37.1479 50.597,37.2379 C50.682,37.2909 50.798,37.3429 50.888,37.3279 C51.144,37.2859 51.408,37.2419 51.641,37.1379 C52.004,36.9769 52.345,36.7659 52.659,36.5969 C52.738,36.2459 52.837,35.9699 53.049,35.7379 C53.114,35.6679 53.178,35.5579 53.174,35.4699 C53.154,35.0739 53.097,34.6789 53.078,34.2829 C53.061,33.9509 52.899,33.6689 52.804,33.3649 C52.607,32.7349 52.429,32.0989 52.124,31.5089 C52.049,31.3609 52.035,31.1789 51.948,31.0399 C51.691,30.6309 51.715,30.2099 51.861,29.7809 C51.923,29.5989 52.071,29.4259 52.072,29.2469 C52.074,28.9479 52.248,28.7639 52.411,28.5679 C52.507,28.4519 52.666,28.3889 52.779,28.2829 C53.179,27.9059 53.635,27.7389 54.194,27.8029 C54.76,27.8679 54.886,27.9549 54.9,28.5169 C54.909,28.8409 54.847,29.1659 54.852,29.4899 C54.858,29.9579 54.893,30.4259 54.921,30.8929 C54.946,31.2879 55.031,31.6639 55.29,31.9819 C55.346,32.0499 55.373,32.1429 55.413,32.2249 C55.691,32.8109 56.025,33.3029 56.69,33.5659 C57.283,33.7999 57.721,33.6609 58.163,33.3029 C58.305,33.1879 58.448,33.0729 58.58,32.9489 C58.809,32.7359 59.056,32.5359 59.247,32.2929 C59.428,32.0629 59.64,31.8349 59.683,31.5239 C59.709,31.3349 59.714,31.1429 59.741,30.9549 C59.787,30.6139 59.862,30.2759 59.885,29.9329 C59.904,29.6779 59.861,29.4189 59.844,29.1609 C59.817,28.7519 59.909,28.3469 60.085,28.0019 C60.317,27.5499 60.435,26.9249 61.156,26.9469 C61.485,26.6829 61.806,26.9809 62.133,26.9669 C62.239,26.9629 62.363,27.0289 62.454,27.0969 C62.874,27.4099 63.083,27.8709 63.282,28.3349 C63.31,28.4009 63.3,28.4929 63.284,28.5669 C63.145,29.1769 63.035,29.7969 62.849,30.3929 C62.607,31.1689 62.47,31.9639 62.336,32.7599 C62.324,32.8339 62.341,32.9149 62.35,32.9919 C62.394,33.3629 62.422,33.7369 62.491,34.1029 C62.546,34.4029 62.526,34.7239 62.765,34.9809 C63.011,35.2449 63.248,35.5069 63.529,35.7449 C63.835,36.0039 64.168,36.0049 64.47,35.9889 C65.048,35.9589 65.63,35.8579 66.176,35.6239 C66.39,35.5319 66.617,35.4579 66.844,35.4139 C66.957,35.3919 67.072,35.3739 67.185,35.3539 C67.197,35.1199 67.205,34.8839 67.212,34.6489 C67.105,34.6629 66.997,34.6799 66.892,34.7029" id="Fill-187" fill="#DACCAB"></path>
                            <path d="M1.9804,22.4338 C2.3624,22.3678 2.7284,22.2538 2.9894,21.9048 C3.1384,21.7038 3.2904,21.5168 3.3814,21.2808 C3.4404,21.1278 3.5854,20.9948 3.6054,20.8408 C3.6564,20.4458 3.7294,20.0508 3.5704,19.6468 C3.4844,19.4268 3.4614,19.1808 3.3494,18.9728 C3.2244,19.2308 3.1024,19.4898 2.9834,19.7518 C3.0024,19.8268 3.0214,19.9008 3.0344,19.9758 C3.1564,20.6808 2.8214,21.3958 2.1754,21.7008 C2.0814,21.9478 1.9914,22.1958 1.9034,22.4448 C1.9284,22.4408 1.9544,22.4378 1.9804,22.4338" id="Fill-189" fill="#DACCAB"></path>
                            <path d="M65.7905,42.7185 C65.5565,43.1045 65.4455,43.5355 65.3555,43.9685 C65.2955,44.2555 65.2935,44.5455 65.3085,44.8365 C65.6255,43.9405 65.9075,43.0275 66.1485,42.0975 C66.0165,42.2955 65.9145,42.5145 65.7905,42.7185" id="Fill-191" fill="#DACCAB"></path>
                            <path d="M66.8169,28.761 C66.8459,28.842 66.8779,28.923 66.9139,29.002 C66.7729,27.977 66.5879,26.967 66.3569,25.974 C66.2829,26.6 66.3069,27.221 66.5329,27.831 C66.6449,28.134 66.7049,28.457 66.8169,28.761" id="Fill-193" fill="#DACCAB"></path>
                            <path d="M31.7299,66.4802 C31.6229,66.6422 31.5079,66.7822 31.3139,66.8052 C30.9929,66.8432 30.6959,67.0922 30.3469,66.9192 C30.3099,66.9012 30.2469,66.9462 30.1969,66.9442 C30.0059,66.9392 29.8189,66.9632 29.6319,66.9932 C30.4329,67.0872 31.2419,67.1542 32.0589,67.1912 C32.0869,67.1652 32.1159,67.1382 32.1429,67.1112 C32.3949,66.8552 32.6299,66.5822 32.8699,66.3142 C32.9119,66.2672 32.9459,66.2092 32.9729,66.1522 C33.1379,65.7982 33.2989,65.4402 33.2649,65.0352 C33.2329,64.6622 33.1589,64.2902 33.2459,63.9142 C33.2559,63.8702 33.2179,63.8152 33.2089,63.7652 C33.1699,63.5632 33.1249,63.3612 33.0999,63.1572 C33.0359,62.6432 32.9809,62.1272 32.9229,61.6122 C32.9209,61.6002 32.9139,61.5872 32.9109,61.5752 C32.7649,61.0072 32.4799,60.5112 32.0739,60.0972 C31.9269,59.9482 31.7979,59.6952 31.5439,59.7302 C31.1899,59.7792 30.8349,59.8552 30.4969,59.9712 C30.2079,60.0702 29.9049,60.1842 29.7369,60.4802 C29.4399,60.5222 29.4109,60.8622 29.1799,60.9842 C29.1299,61.0112 29.0959,61.1222 29.1019,61.1902 C29.1469,61.7592 28.8709,62.2832 28.8769,62.8452 C28.8769,62.8922 28.8499,62.9522 28.8149,62.9852 C28.6969,63.1002 28.6989,63.2302 28.7149,63.3822 C28.7449,63.6862 28.6099,63.8842 28.3129,63.9572 C28.0489,64.0212 27.7629,64.1252 27.5089,64.0812 C26.9429,63.9822 26.3999,64.1652 25.8449,64.1402 C25.7719,64.1362 25.6969,64.1842 25.6229,64.2082 C25.3439,64.2982 25.0639,64.3882 24.7659,64.4852 C24.7209,64.7122 24.5399,64.8442 24.3159,64.9422 C24.2259,64.9822 24.1229,65.0292 24.0649,65.1042 C23.9109,65.3022 23.7919,65.5282 23.6329,65.7212 C23.9149,65.8092 24.1989,65.8922 24.4839,65.9732 C24.7329,65.5662 25.1279,65.3612 25.5709,65.4422 C25.6659,65.2662 25.7729,65.0402 25.9969,65.0532 C26.3979,65.0762 26.7719,64.8532 27.1719,64.9462 C27.2789,64.9712 27.3779,65.0332 27.4809,65.0772 C27.8009,64.9752 28.1299,64.9252 28.4579,64.8712 C28.5249,64.8602 28.5949,64.8442 28.6539,64.8122 C28.7429,64.7652 28.8279,64.7062 28.9079,64.6442 C28.9879,64.5822 29.0979,64.5232 29.1299,64.4382 C29.2529,64.1112 29.3549,63.7752 29.4579,63.4392 C29.5329,63.1922 29.5989,62.9412 29.6669,62.6912 C29.6939,62.5932 29.7239,62.4952 29.7399,62.3962 C29.7759,62.1802 29.8259,61.9632 29.8299,61.7472 C29.8329,61.5222 30.1769,61.4722 30.0769,61.2132 C30.2789,61.0752 30.4689,60.9132 30.6879,60.8092 C30.8029,60.7532 30.9669,60.7992 31.1569,60.7992 C31.2069,60.7512 31.3029,60.6612 31.4809,60.4932 C31.4889,60.7932 31.5969,60.9122 31.7969,60.9612 C31.8689,60.9792 31.9479,61.0772 31.9729,61.1552 C32.0849,61.5012 32.2009,61.8482 32.2719,62.2042 C32.3339,62.5192 32.3419,62.8462 32.3699,63.1682 C32.4129,63.6632 32.4739,64.1572 32.4879,64.6522 C32.4999,65.0772 32.5149,65.5172 32.2109,65.8782 C32.0449,66.0752 31.8709,66.2672 31.7299,66.4802" id="Fill-195" fill="#DACCAB"></path>
                            <path d="M39.3911,65.7214 C39.0251,65.1854 38.5391,64.9504 37.8921,65.0244 C37.6731,65.0494 37.4481,65.0044 37.2291,65.0284 C36.9861,65.0544 36.7011,65.0544 36.5141,65.1834 C36.0371,65.5134 35.4531,65.7544 35.2701,66.3964 C35.2501,66.4654 35.1681,66.5144 35.1231,66.5784 C35.0871,66.6294 35.0431,66.6884 35.0371,66.7474 C35.0251,66.8974 35.0121,67.0474 35.0001,67.1984 C35.2541,67.1874 35.5071,67.1744 35.7591,67.1584 C35.7951,67.0254 35.8471,66.8994 35.9031,66.7844 C36.1451,66.2864 36.5651,65.9504 37.1461,65.8734 C37.2471,65.8594 37.3521,65.8514 37.4501,65.8234 C37.8801,65.7004 38.2421,65.9884 38.6461,66.0204 C38.8501,66.2614 39.0901,66.4854 39.2451,66.7564 C39.4821,66.7174 39.7161,66.6744 39.9511,66.6294 C39.7961,66.3124 39.5931,66.0174 39.3911,65.7214" id="Fill-197" fill="#DACCAB"></path>
                            <path d="M1.292,27.1819 C1.424,27.1189 1.545,27.0769 1.698,27.1519 C1.807,27.2049 1.949,27.1889 2.068,27.2269 C2.211,27.2729 2.378,27.3109 2.477,27.4109 C2.678,27.6109 2.882,27.8299 3.005,28.0809 C3.106,28.2849 3.12,28.5349 3.195,28.7629 C3.336,29.1909 3.458,29.6179 3.749,29.9749 C3.831,30.0749 3.894,30.1909 3.957,30.3039 C4.194,30.7319 4.415,31.1699 4.817,31.4779 C5.379,31.9099 5.878,32.4319 6.645,32.5309 C6.974,32.5729 7.253,32.4549 7.55,32.3919 C7.745,32.3499 7.962,32.2789 8.104,32.1479 C8.475,31.8089 8.651,31.3379 8.808,30.8749 C8.894,30.6209 8.904,30.3379 8.926,30.0659 C8.939,29.9159 8.946,29.7459 8.888,29.6149 C8.681,29.1499 8.592,28.6129 8.125,28.2939 C8.065,28.2529 8.04,28.1629 7.988,28.1049 C7.858,27.9609 7.725,27.8199 7.588,27.6829 C7.404,27.5009 7.181,27.3489 7.034,27.1419 C6.454,26.3269 6.188,25.4079 6.334,24.4159 C6.409,23.9069 6.627,23.4259 7.117,23.1419 C7.255,23.0629 7.352,22.9749 7.429,22.8089 C7.527,22.5989 7.728,22.4149 8.024,22.4479 C8.125,22.4579 8.231,22.4239 8.334,22.4149 C8.641,22.3879 8.909,22.5099 9.118,22.7039 C9.299,22.8729 9.499,23.0679 9.382,23.3839 C9.346,23.4839 9.399,23.6149 9.407,23.7319 C9.419,23.9129 9.449,24.0959 9.436,24.2759 C9.364,25.2799 10.358,26.0849 11.313,25.7639 C11.767,25.6109 12.195,25.3869 12.637,25.1999 C12.833,25.1169 12.925,24.9679 13.008,24.7769 C13.138,24.4769 13.288,24.1769 13.566,24.0049 C13.619,23.7739 13.653,23.5549 13.72,23.3459 C13.895,22.8029 13.969,22.2379 14.091,21.6829 C14.155,21.3939 14.254,21.1109 14.359,20.8339 C14.423,20.6659 14.581,20.5219 14.606,20.3539 C14.694,19.7779 15.216,19.6219 15.567,19.3029 C15.591,19.2819 15.645,19.2989 15.681,19.2859 C15.758,19.2609 15.834,19.2299 15.909,19.1959 C16.506,18.9239 17.104,18.7479 17.763,19.0199 C18.013,19.1229 18.116,19.2809 18.182,19.5179 C18.246,19.7479 18.27,19.9779 18.161,20.1849 C17.94,20.6079 17.677,21.0099 17.459,21.4339 C17.246,21.8519 17.063,22.2879 17.044,22.7679 C17.041,22.8809 17.057,23.0029 17.098,23.1059 C17.237,23.4549 17.406,23.7929 17.535,24.1439 C17.619,24.3709 17.75,24.5249 17.972,24.6109 C18.228,24.7099 18.486,24.8029 18.731,24.9219 C19.073,25.0859 19.406,25.0999 19.747,24.9329 C19.805,24.9049 19.87,24.8899 19.931,24.8699 C20.471,24.6899 20.925,24.3689 21.27,23.9319 C21.574,23.5469 21.809,23.1069 22.068,22.6869 C22.216,22.4459 22.374,22.2069 22.487,21.9499 C22.656,21.5629 22.837,21.1759 22.86,20.7419 C22.863,20.6969 22.907,20.6529 22.936,20.6119 C23.047,20.4549 23.151,20.2909 23.274,20.1429 C23.495,19.8789 23.708,19.6029 23.959,19.3709 C24.239,19.1149 24.553,18.8959 24.861,18.6729 C25.047,18.5379 25.236,18.3959 25.446,18.3109 C25.845,18.1479 26.26,18.0849 26.667,18.3069 C26.871,18.4169 26.972,18.5559 26.873,18.7439 C26.773,18.9349 26.815,19.1129 26.802,19.2959 C26.77,19.7249 26.521,20.0369 26.271,20.3549 C26.074,20.6059 25.776,20.7869 25.717,21.1359 C25.68,21.3549 25.647,21.5749 25.611,21.7939 C25.573,22.0219 25.617,22.2309 25.726,22.4359 C25.878,22.7229 26.104,22.8989 26.388,23.0599 C26.869,23.3329 27.396,23.3389 27.91,23.4159 C28.161,23.4529 28.4,23.2699 28.644,23.1999 C29.338,22.9989 29.731,22.4669 30.137,21.9519 C30.446,21.5589 30.694,21.1189 30.978,20.7059 C31.274,20.2759 31.491,19.8049 31.674,19.3229 C31.938,18.6349 32.428,18.2309 33.126,18.0709 C33.491,17.9869 33.927,18.1999 34.101,18.5089 C34.373,18.9909 34.425,19.5209 34.381,20.0539 C34.361,20.3049 34.266,20.5569 34.058,20.7459 C33.78,20.9999 33.514,21.2659 33.255,21.5379 C33.103,21.6969 32.973,21.8769 32.836,22.0499 C32.564,22.3929 32.29,22.7339 32.026,23.0829 C31.912,23.2329 31.8,23.3929 31.728,23.5649 C31.644,23.7639 31.633,23.9949 31.541,24.1879 C31.285,24.7189 31.159,25.2799 31.093,25.8589 C31.076,26.0119 31.085,26.1709 31.042,26.3159 C30.905,26.7859 31.213,27.0979 31.423,27.4449 C31.721,27.4869 31.81,27.7549 31.967,27.9489 C32.233,28.2759 32.516,28.3419 32.9,28.1819 C33.018,28.1319 33.145,28.1029 33.267,28.0649 C33.749,27.9139 34.246,27.7849 34.587,27.3749 C34.762,27.1659 35,26.9539 35.051,26.7099 C35.143,26.2739 35.292,25.8809 35.523,25.5089 C35.56,25.4489 35.559,25.3629 35.573,25.2889 C35.598,25.1489 35.603,25.0019 35.652,24.8699 C35.727,24.6629 35.852,24.4739 35.918,24.2649 C35.995,24.0279 36.023,23.7749 36.361,23.7829 C36.394,23.7839 36.432,23.7149 36.462,23.6749 C36.75,23.3019 37.175,23.2759 37.551,23.5639 C37.795,23.7509 37.956,23.9959 38.142,24.2269 C38.298,24.4199 38.498,24.5929 38.605,24.8099 C38.786,25.1749 39.009,25.4949 39.284,25.7929 C39.682,26.2269 40.128,26.5179 40.749,26.4489 C40.835,26.4389 40.927,26.4869 41.016,26.4849 C41.233,26.4809 41.482,26.5279 41.659,26.4379 C42.084,26.2229 42.477,25.9409 42.881,25.6819 C42.922,25.6559 42.957,25.6079 42.978,25.5619 C43.178,25.1329 43.25,24.6729 43.241,24.2069 C43.23,23.7039 42.989,23.2839 42.661,22.9149 C42.383,22.6049 42.053,22.3319 41.825,21.9899 C41.592,21.6399 41.316,21.3609 40.997,21.0989 C40.815,20.9499 40.648,20.7379 40.569,20.5199 C40.256,19.6599 40.631,19.0039 41.298,18.5879 C41.716,18.3279 42.249,18.3029 42.744,18.3819 C43.55,18.5129 44.218,18.9439 44.81,19.4789 C45.065,19.7089 45.249,20.0219 45.443,20.3129 C45.867,20.9479 46.084,21.6609 46.192,22.4099 C46.22,22.6009 46.29,22.8039 46.255,22.9849 C46.117,23.7159 45.918,24.4239 45.441,25.0299 C45.255,25.2669 45.181,25.5899 45.016,25.8469 C44.803,26.1799 44.841,26.5669 44.727,26.9199 C44.501,27.6189 44.703,28.3149 44.806,29.0069 C44.841,29.2429 44.942,29.4519 45.179,29.5739 C45.419,29.6979 45.656,29.8329 45.877,29.9869 C46.075,30.1239 46.288,30.1399 46.509,30.1269 C46.703,30.1159 46.905,30.1229 47.086,30.0659 C47.352,29.9829 47.613,29.8679 47.857,29.7329 C48.022,29.6409 48.156,29.4919 48.301,29.3669 C48.349,29.3269 48.426,29.2849 48.432,29.2369 C48.459,28.9829 48.679,28.8849 48.818,28.7209 C48.892,28.6339 48.971,28.5419 49.015,28.4389 C49.13,28.1659 49.192,27.8639 49.342,27.6139 C49.545,27.2769 49.623,26.9139 49.654,26.5419 C49.719,25.7579 49.763,24.9709 49.798,24.1849 C49.807,23.9699 49.735,23.7509 49.885,23.5549 C49.913,23.5189 49.903,23.4519 49.899,23.4009 C49.861,22.8399 50.083,22.3449 50.285,21.8449 C50.426,21.4949 50.695,21.2609 51.042,21.1579 C51.336,21.0699 51.653,21.0269 51.961,21.0219 C52.266,21.0169 52.511,21.1809 52.612,21.4859 C52.679,21.6929 52.735,21.9099 52.756,22.1259 C52.786,22.4139 52.749,22.7119 52.794,22.9959 C52.832,23.2199 52.988,23.4249 53.026,23.6489 C53.084,23.9909 53.273,24.1919 53.586,24.2679 C53.948,24.3549 54.319,24.4059 54.686,24.4649 C54.732,24.4729 54.785,24.4399 54.833,24.4209 C55.015,24.3499 55.2,24.2839 55.378,24.2029 C56.051,23.8989 56.538,23.4329 56.73,22.6909 C56.87,22.1559 57.046,21.6369 57.264,21.1209 C57.517,20.5229 58.033,20.2389 58.443,19.8259 C58.467,19.8009 58.515,19.7959 58.554,19.7899 C58.94,19.7319 59.308,19.7489 59.605,20.0589 C59.605,20.2309 59.647,20.4129 59.596,20.5639 C59.454,20.9969 59.313,21.4389 59.097,21.8369 C58.771,22.4339 58.691,23.0259 58.977,23.6429 C59.061,23.8229 59.196,24.0049 59.356,24.1189 C59.548,24.2579 59.786,24.3509 60.016,24.4189 C60.498,24.5589 61.011,24.5399 61.474,24.4279 C61.929,24.3179 62.352,24.0389 62.761,23.7869 C62.972,23.6569 63.115,23.4179 63.301,23.2429 C63.44,23.1119 63.61,23.0139 63.748,22.8819 C63.877,22.7579 63.967,22.5919 64.102,22.4749 C64.378,22.2359 64.792,22.0739 65.197,22.0769 C65.106,21.8269 65.011,21.5779 64.915,21.3309 C64.863,21.3359 64.811,21.3409 64.759,21.3439 C64.125,21.3799 63.667,21.7689 63.195,22.1279 C63.167,22.1489 63.159,22.1969 63.141,22.2319 C62.874,22.7439 62.386,23.0509 61.999,23.4499 C61.964,23.4859 61.905,23.4949 61.86,23.5209 C61.317,23.8329 60.728,23.7619 60.152,23.6929 C59.967,23.6709 59.719,23.5359 59.646,23.3839 C59.515,23.1119 59.412,22.7919 59.527,22.4749 C59.615,22.2299 59.722,21.9919 59.835,21.7569 C59.935,21.5469 60.085,21.3559 60.156,21.1379 C60.243,20.8699 60.276,20.5839 60.32,20.3029 C60.333,20.2209 60.318,20.1259 60.291,20.0459 C60.095,19.4729 59.761,19.0639 59.111,18.9689 C58.756,18.9169 58.41,18.9229 58.115,19.0989 C57.145,19.6769 56.511,20.5339 56.16,21.6019 C56.144,21.6509 56.117,21.7099 56.13,21.7529 C56.209,22.0119 56.097,22.2559 56.014,22.4699 C55.9,22.7619 55.733,23.0849 55.491,23.2649 C54.97,23.6509 54.361,23.7749 53.726,23.5649 C53.636,23.2439 53.55,22.9379 53.465,22.6329 C53.452,22.5829 53.444,22.5319 53.437,22.4799 C53.38,22.0809 53.344,21.6779 53.262,21.2839 C53.165,20.8059 52.896,20.4509 52.387,20.3579 C52.109,20.3069 51.819,20.3219 51.541,20.2679 C51.279,20.2179 51.036,20.2719 50.825,20.3879 C50.268,20.6919 49.682,20.9839 49.542,21.7029 C49.527,21.7779 49.476,21.8459 49.44,21.9149 C49.266,22.2519 49.154,22.6059 49.109,22.9839 C49.068,23.3399 48.988,23.6919 48.962,24.0479 C48.943,24.3389 49.097,24.6399 48.9,24.9239 C48.875,24.9609 48.912,25.0509 48.936,25.1089 C49.012,25.2879 48.995,25.4589 48.936,25.6409 C48.893,25.7739 48.88,25.9219 48.884,26.0619 C48.907,26.8509 48.665,27.5629 48.24,28.2139 C48.108,28.4149 47.885,28.5579 47.755,28.7609 C47.538,29.1029 47.183,29.1709 46.846,29.2709 C46.594,29.3459 46.34,29.2639 46.083,29.2339 C45.699,29.1889 45.496,28.9279 45.407,28.6659 C45.284,28.3059 45.25,27.8879 45.293,27.5079 C45.349,27.0209 45.47,26.5269 45.655,26.0729 C45.841,25.6129 46.114,25.1809 46.396,24.7689 C46.594,24.4789 46.683,24.1629 46.738,23.8389 C46.806,23.4289 46.817,23.0099 46.85,22.5949 C46.855,22.5439 46.852,22.4909 46.84,22.4409 C46.756,22.0739 46.699,21.6959 46.575,21.3419 C46.42,20.8999 46.304,20.4359 46.014,20.0499 C45.819,19.7909 45.633,19.5249 45.434,19.2679 C45.324,19.1259 45.204,18.9889 45.072,18.8669 C44.74,18.5599 44.335,18.3549 43.962,18.1069 C43.333,17.6879 42.634,17.7309 41.942,17.6859 C41.907,17.6839 41.871,17.7149 41.834,17.7269 C41.612,17.8039 41.388,17.8739 41.169,17.9559 C40.977,18.0289 40.772,18.0869 40.605,18.1989 C40.14,18.5099 39.893,18.9719 39.766,19.5079 C39.677,19.8839 39.645,20.2879 39.795,20.6199 C39.968,20.9969 40.228,21.3879 40.556,21.6279 C40.868,21.8549 41.039,22.1579 41.273,22.4249 C41.333,22.4929 41.392,22.5619 41.452,22.6309 C41.741,22.9649 42.028,23.2999 42.319,23.6319 C42.513,23.8529 42.561,24.1179 42.542,24.3979 C42.532,24.5539 42.499,24.7069 42.473,24.8619 C42.435,25.0969 42.313,25.2649 42.098,25.3779 C41.939,25.4619 41.801,25.5869 41.642,25.6729 C41.51,25.7449 41.366,25.8119 41.219,25.8369 C40.591,25.9449 40.084,25.6929 39.622,25.2919 C39.42,25.1179 39.312,24.8899 39.175,24.6749 C38.973,24.3569 38.694,24.0749 38.559,23.7329 C38.445,23.4449 38.195,23.2989 38.056,23.0489 C37.909,22.7799 37.641,22.6729 37.352,22.5739 C37.105,22.4889 36.904,22.4909 36.681,22.6079 C36.407,22.7519 36.116,22.8689 35.851,23.0289 C35.668,23.1399 35.497,23.2879 35.359,23.4529 C35.231,23.6069 35.16,23.8089 35.054,23.9839 C34.91,24.2209 34.807,24.4609 34.867,24.7519 C34.886,24.8479 34.858,24.9599 34.828,25.0579 C34.719,25.4199 34.61,25.7819 34.482,26.1359 C34.407,26.3439 34.313,26.5489 34.198,26.7369 C33.866,27.2759 33.291,27.4049 32.737,27.5059 C32.533,27.5429 32.237,27.4749 32.094,27.2349 C31.86,26.8409 31.688,26.4409 31.704,25.9499 C31.725,25.2879 31.997,24.7159 32.221,24.1219 C32.313,23.8809 32.423,23.6449 32.546,23.4169 C32.75,23.0399 33.029,22.7229 33.334,22.4189 C33.648,22.1089 33.885,21.7189 34.212,21.4269 C34.491,21.1779 34.697,20.8849 34.912,20.5929 C34.968,20.5169 35.01,20.4029 35.003,20.3109 C34.974,19.9219 34.936,19.5329 34.876,19.1479 C34.849,18.9709 34.713,18.8029 34.714,18.6319 C34.716,18.2039 34.405,17.9659 34.202,17.6589 C34.03,17.3959 33.769,17.3539 33.494,17.3249 C33.418,17.3159 33.344,17.2939 33.27,17.2909 C33.149,17.2859 33.014,17.2579 32.912,17.3019 C32.558,17.4549 32.215,17.6349 31.869,17.8069 C31.813,17.8359 31.752,17.8719 31.716,17.9219 C31.458,18.2749 31.165,18.6109 30.963,18.9949 C30.713,19.4699 30.517,19.9719 30.258,20.4459 C29.876,21.1479 29.382,21.7589 28.86,22.3519 C28.778,22.4449 28.65,22.5369 28.533,22.5529 C28.088,22.6119 27.638,22.9249 27.191,22.5559 C27.176,22.5429 27.142,22.5499 27.118,22.5539 C26.741,22.6199 26.552,22.3879 26.382,22.1059 C26.181,21.7729 26.145,21.4419 26.385,21.1209 C26.532,20.9249 26.709,20.7499 26.874,20.5669 C26.96,20.4699 27.093,20.3889 27.128,20.2769 C27.276,19.7959 27.399,19.3069 27.525,18.8189 C27.644,18.3619 27.464,18.0019 27.129,17.7109 C27.038,17.6319 26.904,17.5829 26.783,17.5629 C26.552,17.5249 26.317,17.5159 26.083,17.4979 C25.732,17.4709 25.382,17.4249 25.085,17.7029 C25.007,17.7769 24.867,17.7829 24.76,17.8299 C24.643,17.8819 24.525,17.9369 24.418,18.0079 C24.098,18.2209 23.797,18.4499 23.513,18.7199 C23.28,18.9409 23.05,19.1729 22.857,19.4179 C22.282,20.1439 21.937,21.0039 21.658,21.8729 C21.476,22.4399 21.096,22.8639 20.8,23.3429 C20.567,23.7189 20.189,23.9989 19.742,24.1499 C19.572,24.2069 19.426,24.3329 19.23,24.2099 C19.186,24.1819 19.09,24.2379 19.017,24.2519 C18.956,24.2649 18.877,24.3029 18.834,24.2789 C18.591,24.1409 18.318,24.0269 18.125,23.8349 C17.556,23.2649 17.649,22.5609 17.887,21.9009 C18.057,21.4299 18.359,21.0049 18.617,20.5679 C18.789,20.2769 18.914,19.9889 18.915,19.6339 C18.917,19.1049 18.641,18.6469 18.138,18.4759 C17.891,18.3909 17.644,18.3069 17.391,18.2409 C17.258,18.2059 17.098,18.1609 16.978,18.2029 C16.509,18.3649 15.956,18.2459 15.556,18.6299 C15.539,18.6459 15.508,18.6549 15.483,18.6569 C15.031,18.6869 14.765,19.0639 14.393,19.2449 C14.321,19.2809 14.273,19.3809 14.23,19.4599 C13.73,20.3709 13.295,21.3049 13.228,22.3639 C13.186,23.0169 12.98,23.6059 12.566,24.1179 C12.528,24.1649 12.507,24.2349 12.498,24.2969 C12.448,24.6599 12.189,24.7859 11.879,24.8589 C11.756,24.8879 11.621,24.9039 11.516,24.9679 C11.241,25.1349 10.93,25.2179 10.658,25.0799 C10.379,24.9389 10.156,24.6859 9.914,24.4759 C9.881,24.4479 9.872,24.3789 9.872,24.3279 C9.87,24.0959 9.831,23.8509 9.886,23.6319 C9.984,23.2449 9.884,22.8799 9.832,22.5099 C9.818,22.4119 9.728,22.2969 9.64,22.2449 C9.107,21.9289 8.545,21.6939 7.906,21.7419 C7.819,21.7479 7.72,21.7649 7.649,21.8119 C7.182,22.1139 6.655,22.3439 6.356,22.8559 C6.311,22.9329 6.237,22.9939 6.181,23.0649 C5.711,23.6609 5.511,24.3299 5.635,25.0879 C5.652,25.1909 5.64,25.2979 5.658,25.4009 C5.719,25.7429 5.726,26.1109 5.865,26.4189 C6.263,27.3049 6.903,28.0249 7.573,28.7159 C7.923,29.0779 8.13,29.5189 8.256,30.0009 C8.268,30.0469 8.249,30.1029 8.239,30.1529 C8.2,30.3579 8.166,30.5629 8.119,30.7659 C8.032,31.1359 7.831,31.4559 7.513,31.6409 C6.929,31.9809 6.23,31.8789 5.712,31.4149 C5.382,31.1199 5.045,30.8219 4.767,30.4799 C4.473,30.1179 4.163,29.7309 4.015,29.3019 C3.884,28.9239 3.764,28.5399 3.611,28.1669 C3.498,27.8909 3.405,27.6049 3.264,27.3449 C3.066,26.9789 2.789,26.7309 2.339,26.6399 C1.791,26.5289 1.268,26.3359 0.727,26.6409 C0.665,26.9359 0.606,27.2309 0.551,27.5279 C0.802,27.4209 1.046,27.2989 1.292,27.1819" id="Fill-199" fill="#DACCAB"></path>
                            <path d="M63.6098,45.5056 C63.5098,44.9726 63.3538,44.5316 62.9668,44.1296 C62.6558,43.8046 62.3358,43.5176 61.9488,43.2986 C61.9058,43.2746 61.8518,43.2556 61.8018,43.2556 C61.3068,43.2436 60.8108,43.2166 60.3348,43.4096 C59.9548,43.5626 59.5988,43.7976 59.1678,43.8006 C59.1338,43.8006 59.0898,43.8316 59.0698,43.8616 C58.9288,44.0616 58.6318,43.8866 58.4928,44.1026 C58.4768,44.1256 58.3708,44.0966 58.3078,44.0816 C57.9438,43.9966 57.5848,43.9456 57.2718,43.6686 C56.9698,43.4016 56.8158,43.2046 56.9198,42.8256 C56.9698,42.6386 57.0118,42.4306 57.1238,42.2816 C57.2718,42.0816 57.3938,41.7806 57.7538,41.8936 C57.8118,41.9116 57.8838,41.8986 57.9478,41.8876 C58.8188,41.7386 59.7098,41.7486 60.5728,41.5336 C60.9218,41.4466 61.2558,41.3696 61.5508,41.1236 C61.7448,40.9636 61.8808,40.7756 62.0338,40.5896 C62.5198,40.0026 62.8118,39.3796 62.6428,38.5806 C62.5488,38.1336 62.3778,37.7436 62.0958,37.3986 C61.9328,37.1976 61.7398,37.0216 61.5518,36.8416 C61.4508,36.7446 61.3468,36.6286 61.2218,36.5826 C60.7028,36.3896 60.2408,36.0906 59.6398,36.0486 C59.0558,36.0076 58.4898,35.9686 57.9298,36.1236 C57.5048,36.2416 57.0958,36.4256 56.6818,36.5846 C56.5348,36.6406 56.3898,36.7076 56.2448,36.7686 C56.0058,37.0866 55.6558,37.2586 55.3388,37.3816 C54.7188,37.6216 54.3588,38.0856 54.0368,38.6096 C53.7878,39.0156 53.5338,39.4216 53.3168,39.8446 C53.1508,40.1696 53.0058,40.4936 53.1078,40.9046 C53.2048,41.3016 53.4398,41.6846 53.3268,42.1266 C53.3108,42.1896 53.3928,42.2706 53.3978,42.3456 C53.4118,42.5256 53.4608,42.7276 53.3998,42.8826 C53.1548,43.5086 52.8258,44.0576 52.0318,44.0666 C51.6808,44.0696 51.3608,43.9826 51.0558,43.8236 C50.6848,43.6316 50.6588,43.2466 50.6088,42.9126 C50.4908,42.1276 50.3068,41.3636 50.0608,40.6106 C49.8348,39.9146 49.4228,39.4366 48.6968,39.2306 C48.0858,39.0576 47.7678,39.0426 47.2638,39.2876 C47.0438,39.3946 46.8098,39.4936 46.6218,39.6446 C46.4538,39.7796 46.3508,39.9926 46.1998,40.1526 C45.8208,40.5556 45.6718,41.0726 45.5068,41.5746 C45.4248,41.8266 45.3748,42.1376 45.4458,42.3816 C45.5718,42.8116 45.7398,43.2576 46.0788,43.5716 C46.4648,43.9286 46.6038,44.3516 46.5878,44.8546 C46.5808,45.0776 46.4528,45.2776 46.2788,45.2976 C45.9578,45.3346 45.6338,45.3836 45.3118,45.3846 C45.1568,45.3856 44.9418,45.3376 44.8578,45.2296 C44.6138,44.9186 44.2408,44.7676 43.9908,44.4866 C43.7038,44.1636 43.3268,44.0796 42.9548,43.9776 C42.7468,43.9206 42.5138,43.9456 42.2938,43.9416 C41.5988,43.9276 40.9958,44.2186 40.5558,44.6976 C40.2198,45.0656 39.9118,45.4956 39.7388,46.0006 C39.5868,46.4416 39.3178,46.8316 39.0398,47.2086 C38.8308,47.4916 38.5458,47.6466 38.2078,47.6316 C38.0188,47.6246 37.7888,47.6466 37.6388,47.4626 C37.5088,47.3006 37.3678,47.1466 37.2558,46.9716 C37.1818,46.8556 37.0958,46.7026 37.1128,46.5786 C37.1728,46.1056 37.1358,45.6096 37.3958,45.1746 C37.5878,44.8536 37.7658,44.5256 37.9548,44.2026 C37.9798,44.1586 38.0198,44.1216 38.0578,44.0856 C38.3748,43.7846 38.6028,43.4266 38.7548,43.0186 C38.7768,42.9566 38.7958,42.8926 38.8268,42.8356 C39.0608,42.4056 39.1098,41.9566 38.9728,41.4846 C38.9228,41.3096 38.8718,41.1316 38.8478,40.9516 C38.7888,40.4856 38.6308,40.0486 38.4658,39.6146 C38.3888,39.4096 38.3018,39.1936 38.1648,39.0286 C38.0198,38.8566 37.7958,38.7536 37.6308,38.5946 C37.2858,38.2636 36.8398,38.1426 36.4158,37.9756 C36.2538,37.9116 36.1028,37.8176 35.9408,37.7566 C35.8108,37.7076 35.6678,37.6946 35.5338,37.6546 C35.3118,37.5886 35.0958,37.4856 34.8698,37.4486 C34.1838,37.3336 33.5048,37.3456 32.8658,37.6706 C32.7418,37.7336 32.6208,37.8126 32.5178,37.9046 C32.1178,38.2656 31.7568,38.6786 31.3218,38.9906 C30.6208,39.4936 29.9778,39.2576 29.6448,38.6036 C29.4438,38.2106 29.1348,37.8366 29.2388,37.3386 C29.2438,37.3166 29.2218,37.2906 29.2168,37.2656 C29.1468,36.8556 29.0548,36.4486 29.0138,36.0366 C28.9458,35.3656 28.7788,34.7346 28.4128,34.1626 C28.2198,33.8616 27.9768,33.6506 27.5998,33.6186 C27.4228,33.6046 27.2498,33.5486 27.0738,33.5126 C26.7928,33.6096 26.4978,33.6696 26.2038,33.7306 C25.8088,33.8136 25.4168,33.9036 25.1248,34.2166 C25.0988,34.2436 25.0648,34.2686 25.0288,34.2786 C24.6408,34.3916 24.4178,34.7006 24.1798,34.9916 C23.9308,35.2966 23.7828,35.6576 23.6418,36.0176 C23.4108,36.6076 23.3548,37.1906 23.6728,37.7876 C23.8968,38.2076 24.2368,38.5706 24.3278,39.0606 C24.3318,39.0836 24.3538,39.1106 24.3738,39.1216 C24.5888,39.2376 24.5828,39.4586 24.6508,39.6536 C24.7378,39.9076 24.7068,40.1896 24.9018,40.4226 C25.3598,40.9666 25.5438,41.5536 25.2198,42.2676 C25.0328,42.6826 24.7158,42.8166 24.3458,42.9286 C24.2218,42.9656 24.0818,42.9566 23.9658,43.0066 C23.6668,43.1356 23.3738,43.0496 23.0828,42.9976 C22.9048,42.9656 22.7898,42.8426 22.8578,42.6256 C22.7668,42.6426 22.6978,42.6546 22.5988,42.6736 C22.5548,42.4676 22.5228,42.2796 22.4758,42.0946 C22.3458,41.5766 22.2118,41.0606 22.0758,40.5436 C22.0298,40.3686 21.9458,40.1986 21.9308,40.0226 C21.8888,39.5556 21.8918,39.0846 21.8468,38.6176 C21.7988,38.1136 21.7418,37.6026 21.3908,37.1966 C21.2958,37.0876 21.1378,37.0326 21.0458,36.9216 C20.6418,36.4356 19.9498,36.2786 19.3958,36.5626 C19.2338,36.6456 19.0668,36.7206 18.9078,36.8096 C18.6508,36.9546 18.3808,37.0846 18.1478,37.2636 C17.5938,37.6876 17.3598,38.3156 17.1378,38.9456 C16.9408,39.5086 17.0668,40.0696 17.2408,40.5956 C17.3588,40.9516 17.6388,41.2546 17.8508,41.5776 C18.2878,42.2446 18.5028,42.9246 18.0998,43.7016 C17.8858,44.1126 17.5478,44.3756 17.1928,44.6316 C17.1478,44.6646 17.0578,44.6706 17.0048,44.6496 C16.6238,44.5006 16.1838,44.4166 15.8848,44.1656 C15.5648,43.8956 15.2108,43.6936 14.8648,43.4796 C14.7018,43.3796 14.5728,43.2526 14.4248,43.1526 C14.2568,43.0396 14.0148,43.0216 13.7998,42.9936 C13.5978,42.9666 13.3808,42.9406 13.1878,42.9876 C12.9808,43.0376 12.7938,43.1716 12.5998,43.2736 C12.4848,43.3336 12.3448,43.3766 12.2688,43.4696 C12.0968,43.6786 11.9558,43.9136 11.8048,44.1386 C11.7688,44.1926 11.7228,44.2476 11.7128,44.3076 C11.5988,44.9416 11.2288,45.4096 10.7768,45.8426 C10.4758,46.1306 10.1228,45.9786 9.7948,46.0326 C9.7648,46.0376 9.7278,45.9956 9.6928,45.9796 C9.5998,45.9356 9.5088,45.8836 9.4118,45.8526 C8.9628,45.7096 8.6688,45.3556 8.4968,44.9736 C8.3028,44.5396 8.1028,44.0796 8.1328,43.5676 C8.1458,43.3496 8.1128,43.1166 8.0428,42.9106 C7.9098,42.5236 7.8008,42.1126 7.4718,41.8306 C7.2088,41.6056 6.9268,41.4006 6.6548,41.1836 C6.2178,40.8336 5.7248,40.8326 5.2198,40.9706 C5.0078,41.0286 4.8028,41.1256 4.6088,41.2306 C4.3718,41.3596 4.1158,41.4816 3.9288,41.6666 C3.3328,42.2576 3.0828,42.9996 3.1018,43.8306 C3.1068,44.0236 3.1508,44.2166 3.1858,44.4076 C3.2558,44.8056 3.2968,45.2136 3.4148,45.5966 C3.6138,46.2396 3.7698,46.8656 3.5478,47.5426 C3.4748,47.7646 3.3788,47.9326 3.2528,48.0536 C3.3598,48.2776 3.4688,48.4996 3.5798,48.7206 C3.6968,48.6476 3.8048,48.5606 3.8788,48.4556 C4.1368,48.0886 4.3158,47.6706 4.2888,47.2096 C4.2608,46.7226 4.2078,46.2356 4.1338,45.7536 C4.0628,45.2916 3.9428,44.8376 3.8608,44.3776 C3.7748,43.8986 3.7678,43.4286 3.9228,42.9496 C4.1958,42.1066 5.0738,41.7396 5.8088,41.6516 C5.8338,41.6486 5.8598,41.6586 5.8858,41.6656 C6.3498,41.7806 6.7148,42.0836 6.9868,42.4326 C7.2068,42.7166 7.3448,43.1146 7.3848,43.4776 C7.4568,44.1206 7.6398,44.7296 7.8058,45.3456 C7.9208,45.7706 8.2168,46.0806 8.5808,46.3036 C8.8328,46.4586 9.1178,46.5646 9.3958,46.6726 C9.6238,46.7606 9.8668,46.8906 10.0978,46.8786 C10.6028,46.8526 11.0648,46.6676 11.4688,46.3366 C11.6578,46.1816 11.7038,45.9716 11.8088,45.7826 C12.0658,45.3196 12.3308,44.8626 12.6098,44.4126 C12.8758,43.9816 13.1268,43.7156 13.7128,43.8826 C13.8838,43.9326 14.0598,43.9906 14.2138,44.0806 C14.5948,44.3006 14.9578,44.5546 15.3428,44.7686 C15.5528,44.8856 15.7598,44.9806 15.7738,45.2296 C16.0178,45.2606 16.2358,45.2776 16.4498,45.3186 C16.6778,45.3626 16.9018,45.4326 17.1288,45.4836 C17.1998,45.4996 17.3008,45.5196 17.3488,45.4846 C17.6608,45.2526 17.9688,45.0146 18.2658,44.7636 C18.6538,44.4366 18.7778,43.9486 18.9508,43.5066 C19.0918,43.1476 19.1138,42.7426 18.9478,42.3586 C18.8508,42.1326 18.7638,41.9026 18.6858,41.6696 C18.6007969,41.4196 18.4578,41.2116 18.2968,41.0016 C17.9648,40.5686 17.6818,40.1246 17.6968,39.5246 C17.7148,38.8036 18.1048,38.3036 18.5668,37.8416 C18.6808,37.7266 18.8358,37.6066 18.9848,37.5266 C19.2918,37.3616 19.6238,37.2386 19.9548,37.1216 C20.0398,37.0906 20.1658,37.1256 20.2548,37.1676 C20.7598,37.4086 21.0658,37.8346 21.1628,38.3606 C21.2408,38.7896 21.1968,39.2396 21.2118,39.6796 C21.2158,39.8206 21.2388,39.9606 21.2448,40.1006 C21.2638,40.5506 21.5118,40.9356 21.5948,41.3666 C21.6578,41.6876 21.7088,42.0116 21.8008,42.3236 C21.9278,42.7526 22.0408,43.1716 22.4468,43.4816 C22.7268,43.6946 22.9718,43.7846 23.3118,43.7906 C23.6308,43.7966 23.9398,43.8586 24.2248,43.6626 C24.2558,43.6406 24.3018,43.6216 24.3358,43.6276 C24.6888,43.6916 24.9598,43.4846 25.2438,43.3436 C25.6538,43.1406 25.8828,42.7776 25.9858,42.3456 C26.0288,42.1626 26.0158,41.9616 25.9998,41.7706 C25.9618,41.3346 25.9918,40.8806 25.7408,40.4906 C25.6518,40.3506 25.4988,40.2456 25.4298,40.0996 C25.2748,39.7726 25.1538,39.4286 25.0178,39.0926 C24.9018,38.8066 24.7918,38.5166 24.6608,38.2376 C24.5068,37.9106 24.3238,37.5966 24.1688,37.2686 C24.0068,36.9276 24.0858,36.5926 24.2118,36.2546 C24.3598,35.8606 24.5468,35.5016 24.8538,35.2046 C25.2118,34.8596 25.5588,34.5156 26.0938,34.4676 C26.2608,34.4526 26.4218,34.3736 26.5888,34.3556 C26.8598,34.3266 27.1348,34.2996 27.4058,34.3176 C27.6598,34.3346 27.8808,34.4586 27.9798,34.7186 C28.0848,34.9976 28.1988,35.2766 28.2708,35.5646 C28.3398,35.8416 28.3658,36.1306 28.3988,36.4146 C28.4338,36.7126 28.4268,37.0166 28.4858,37.3086 C28.6228,37.9836 28.7748,38.6536 29.1528,39.2516 C29.3828,39.6156 29.5888,39.9516 30.0678,40.0706 C30.2818,40.1226 30.4358,40.0476 30.6138,40.0406 C30.8838,40.0306 31.1528,39.9616 31.4208,39.9136 C31.5698,39.8866 31.7188,39.8526 31.8858,39.8176 C31.9068,39.7726 31.9518,39.7156 31.9588,39.6546 C32.0028,39.3046 32.2238,39.1076 32.5208,38.9606 C32.6098,38.9166 32.6908,38.8396 32.7508,38.7586 C32.9638,38.4676 33.1788,38.1936 33.6058,38.3296 C33.6358,38.3386 33.6908,38.3276 33.7098,38.3056 C33.8528,38.1436 34.0318,38.1836 34.2178,38.1846 C34.8768,38.1916 35.4648,38.4786 36.0828,38.6446 C36.5238,38.7636 36.9618,38.9316 37.3078,39.2906 C37.4238,39.4106 37.5918,39.5006 37.6818,39.6586 C37.8778,40.0036 38.0028,40.3766 38.0898,40.7606 C38.1438,40.9996 38.1628,41.2486 38.2318,41.4826 C38.3668,41.9356 38.3278,42.3656 38.1558,42.8026 C38.0508,43.0696 37.8298,43.2356 37.6818,43.4616 C37.3328,43.9936 36.9938,44.5336 36.6738,45.0846 C36.5668,45.2706 36.4928,45.4936 36.4698,45.7076 C36.4318,46.0826 36.4328,46.4636 36.4428,46.8416 C36.4468,46.9916 36.4848,47.1636 36.5668,47.2846 C36.7978,47.6236 37.0158,47.9806 37.4028,48.1826 C37.5228,48.2456 37.6158,48.3606 37.6788,48.4156 C37.8508,48.4036 37.9918,48.3656 38.1198,48.3906 C38.6098,48.4886 39.0378,48.2746 39.3198,47.9636 C39.7078,47.5376 40.0898,47.0816 40.3198,46.5306 C40.6238,45.8046 41.0708,45.2076 41.7978,44.8406 C42.1348,44.6706 43.1018,44.7006 43.3998,44.9336 C43.4108,44.9426 43.4208,44.9496 43.4298,44.9596 C43.6048,45.1336 43.7948,45.2956 43.9498,45.4846 C44.1808,45.7676 44.5108,45.8976 44.8038,46.0816 C44.9258,46.1576 45.1028,46.1726 45.2538,46.1696 C45.5388,46.1656 45.8238,46.1306 46.1078,46.1076 C46.9198,46.0426 47.3018,45.5726 47.3088,44.8566 C47.3148,44.2196 47.0668,43.6456 46.5958,43.1876 C46.4488,43.0446 46.2888,42.9136 46.3028,42.6636 C46.3098,42.5436 46.2608,42.3936 46.1848,42.2996 C46.0038,42.0746 46.0698,41.8476 46.1598,41.6356 C46.3148,41.2646 46.4888,40.9076 46.7428,40.5806 C46.8968,40.3806 47.0808,40.2236 47.2818,40.1656 C47.5258,40.0936 47.7228,39.9206 48.0338,39.9446 C48.3288,39.9676 48.5978,40.0176 48.8478,40.1386 C49.2278,40.3246 49.3898,40.6846 49.4918,41.0766 C49.5378,41.2526 49.6128,41.4226 49.6428,41.6006 C49.7248,42.0706 49.7738,42.5476 49.8668,43.0156 C49.9348,43.3586 49.9948,43.7246 50.1628,44.0196 C50.4518,44.5246 51.0268,44.6496 51.5268,44.8486 C51.6858,44.9116 51.8898,44.8986 52.0668,44.8726 C52.4798,44.8136 52.9388,44.9016 53.2388,44.4626 C53.4488,44.1536 53.7468,43.9036 53.9488,43.5916 C54.0838,43.3846 54.2118,43.1006 54.1798,42.8736 C54.1058,42.3286 54.0958,41.7706 53.9218,41.2406 C53.8808,41.1176 53.7878,40.9856 53.8088,40.8746 C53.8678,40.5666 53.7888,40.2246 54.0248,39.9516 C54.1418,39.8166 54.2348,39.6576 54.3228,39.5016 C54.6038,39.0016 55.0358,38.6306 55.4098,38.2106 C55.4928,38.1176 55.6138,38.0566 55.7238,37.9916 C55.8468,37.9196 55.9848,37.8706 56.1018,37.7906 C56.5158,37.5076 56.9678,37.3106 57.4238,37.1046 C57.8308,36.9196 58.2518,36.8336 58.6728,36.7526 C59.0128,36.6876 59.3738,36.6716 59.7138,36.8196 C59.8198,36.8656 59.9348,36.9076 60.0488,36.9166 C60.3868,36.9426 60.6618,37.1046 60.9498,37.2626 C61.1388,37.3666 61.1818,37.5806 61.3308,37.6736 C61.6548,37.8806 61.7668,38.1966 61.8988,38.5226 C62.2068,39.2836 61.8388,39.8736 61.3988,40.4146 C61.1118,40.7666 60.6628,40.9266 60.2238,41.0216 C59.6748,41.1396 59.1258,41.2476 58.5458,41.1846 C58.1588,41.1426 57.7558,41.2456 57.3618,41.2856 C57.1068,41.3116 56.8528,41.3396 56.5908,41.3676 C56.5908,41.5266 56.6448,41.7106 56.5818,41.7726 C56.3578,41.9876 56.3108,42.2806 56.2148,42.5396 C56.0518,42.9826 55.9858,43.4496 56.3148,43.8676 C56.6188,44.2536 57.0358,44.4926 57.4568,44.7176 C57.6248,44.8076 57.8238,44.8726 58.0118,44.8836 C58.3088,44.9016 58.6078,44.8636 58.9068,44.8506 C59.1208,44.8416 59.3348,44.8656 59.4968,44.6606 C59.5478,44.5946 59.6878,44.5986 59.7878,44.5686 C59.8868,44.5386 60.0168,44.5366 60.0798,44.4706 C60.3138,44.2236 60.6118,44.1626 60.9248,44.1226 C60.9988,44.1136 61.0668,44.0686 61.1388,44.0466 C61.1968,44.0286 61.2598,44.0026 61.3158,44.0116 C61.7598,44.0886 62.1498,44.2496 62.4538,44.6196 C62.8558,45.1096 62.9768,45.6746 62.9958,46.2816 C62.9988,46.3576 63.0008,46.4326 63.0008,46.5076 C63.0008,46.7546 63.0488,47.0136 62.9848,47.2416 C62.9218,47.4686 62.9328,47.6696 62.9708,47.8866 C63.0428,48.2966 63.1308,48.7056 63.1608,49.1186 C63.1718,49.2616 63.1938,49.3966 63.2308,49.5266 C63.4238,49.1676 63.6098,48.8036 63.7908,48.4376 C63.7578,48.2086 63.7258,47.9806 63.7408,47.7546 C63.7868,46.9966 63.7488,46.2566 63.6098,45.5056" id="Fill-201" fill="#DACCAB"></path>
                            <path d="M53.2846,51.8367 C53.4306,51.9867 53.6886,52.0277 53.8956,52.1177 C54.2456,51.9047 54.6776,52.0697 55.0476,51.8267 C55.3056,51.6577 55.5926,51.5397 55.8046,51.2997 C56.3696,50.6567 56.9576,50.0307 57.5006,49.3687 C57.8596,48.9317 58.2836,48.6487 58.8406,48.5797 C59.0106,48.5587 59.1976,48.6397 59.3596,48.6017 C59.6246,48.5387 59.8496,48.6407 60.0876,48.6947 C60.3166,48.7467 60.4576,48.9217 60.4726,49.1347 C60.4956,49.4427 60.5066,49.7677 60.4336,50.0637 C60.2956,50.6307 60.1436,51.2057 59.9066,51.7367 C59.6596,52.2907 59.6406,52.8727 59.5416,53.4467 C59.5226,53.5507 59.5716,53.6807 59.6246,53.7797 C59.7456,54.0077 59.8536,54.2417 59.9796,54.4667 C60.1376,54.2687 60.2926,54.0677 60.4446,53.8657 C60.4176,53.8097 60.3926,53.7537 60.3716,53.6947 C60.2176,53.2687 60.3126,52.8297 60.4126,52.4267 C60.5456,51.8867 60.7826,51.3707 61.0026,50.8557 C61.1276,50.5637 61.2396,50.2747 61.2266,49.9547 C61.2106,49.5387 61.1856,49.1237 61.1536,48.7097 C61.1476,48.6427 61.0986,48.5607 61.0446,48.5177 C60.5516,48.1297 60.0096,47.8897 59.3586,47.9507 C59.1396,47.9717 58.9076,47.9747 58.6966,47.9227 C58.1296,47.7867 57.6926,48.0857 57.3886,48.4407 C56.9696,48.9267 56.6206,49.4787 56.1846,49.9577 C55.8966,50.2737 55.6156,50.5967 55.3076,50.8927 C54.9006,51.2847 54.3736,51.3187 53.8506,51.2747 C53.7146,51.2627 53.5586,51.1077 53.4696,50.9787 C53.2656,50.6877 53.3796,50.3497 53.4096,50.0357 C53.4516,49.5847 53.5416,49.1387 53.6046,48.6897 C53.6436,48.4077 53.5836,48.1467 53.4346,47.9007 C53.2956,47.6687 53.2816,47.3427 52.9426,47.2587 C52.9026,47.2487 52.8846,47.1727 52.8456,47.1397 C52.4866,46.8247 52.0736,46.5767 51.6006,46.7707 C51.1116,46.9707 50.5406,47.0447 50.1966,47.5317 C50.1206,47.6397 49.9526,47.6887 49.8896,47.7997 C49.7306,48.0807 49.5936,48.3757 49.6476,48.7217 C49.6666,48.8337 49.6276,48.9537 49.6206,49.0697 C49.6146,49.1717 49.5906,49.2837 49.6206,49.3757 C49.7716,49.8447 49.9066,50.3027 49.8816,50.8157 C49.8606,51.2157 49.8306,51.5917 49.6326,51.9427 C49.5216,52.1387 49.3516,52.3217 49.3126,52.5297 C49.2456,52.8827 49.0226,53.0797 48.7656,53.2747 C48.6146,53.3907 48.4626,53.4637 48.2686,53.4197 C48.0446,53.7327 47.8126,53.4767 47.5876,53.4237 C47.4906,53.3997 47.4016,53.3407 47.3096,53.2957 C47.0676,53.1767 46.8176,53.0677 46.5876,52.9277 C46.5156,52.8837 46.4746,52.7557 46.4586,52.6607 C46.3826,52.2147 46.3176,51.7667 46.2526,51.3187 C46.1776,50.8077 46.0526,50.3077 46.1526,49.7747 C46.2036,49.5117 46.2396,49.1857 46.0396,48.9507 C45.7796,48.6447 45.4746,48.3767 45.2006,48.0827 C45.0006,47.8687 44.7206,47.8997 44.4756,47.8257 C44.0296,47.6907 43.5766,47.5457 43.1056,47.7507 C43.0246,47.7857 42.9236,47.7687 42.8366,47.7937 C42.5026,47.8907 42.1726,48.0307 41.9976,48.3417 C41.4326,49.3487 41.3216,50.4207 41.6816,51.5147 C41.8246,51.9507 41.8886,52.3827 41.8236,52.8187 C41.7806,53.1077 41.6706,53.4097 41.5076,53.6497 C41.1466,54.1797 40.6096,54.4657 39.9766,54.5577 C39.8916,54.5697 39.7886,54.5527 39.7136,54.5127 C39.0966,54.1867 38.7036,53.6807 38.5216,53.0057 C38.4476,52.7297 38.3346,52.4617 38.2836,52.1827 C38.2486,51.9887 38.1526,51.8727 37.9976,51.7937 C37.5116,51.5457 37.0216,51.3057 36.5326,51.0647 C36.4996,51.0477 36.4556,51.0407 36.4196,51.0457 C35.8316,51.1327 35.2186,51.1497 34.6966,51.4697 C34.0166,51.8887 33.3116,51.7017 32.6096,51.6107 C32.3456,51.5757 32.1626,51.3657 31.9736,51.1837 C31.5526,50.7757 31.3316,49.8797 31.5516,49.3597 C31.6786,49.0597 31.8046,48.7527 31.9816,48.4827 C32.1866,48.1707 32.3556,47.8227 32.7066,47.6247 C32.8716,47.5317 33.0376,47.4127 33.1536,47.2657 C33.4406,46.9027 33.7126,46.5247 33.9656,46.1367 C34.2796,45.6537 34.5006,45.1217 34.5266,44.5447 C34.5506,44.0307 34.5686,43.5107 34.4146,43.0037 C34.3296,42.7307 34.3046,42.4387 34.2196,42.1657 C33.9466,41.2937 33.2596,40.9917 32.5196,41.0057 C32.1736,41.0127 31.8266,41.0787 31.4846,41.1387 C31.1736,41.1937 30.8476,41.2367 30.7146,41.6047 C30.6916,41.6667 30.6016,41.7037 30.5436,41.7537 C30.4766,41.8127 30.3946,41.8617 30.3486,41.9337 C30.0426,42.4087 29.8306,42.9287 29.6596,43.4637 C29.6176,43.5957 29.6236,43.7457 29.6236,43.8877 C29.6256,44.3047 29.6256,44.7127 29.4906,45.1237 C29.3276,45.6217 29.0886,46.0807 28.8536,46.5397 C28.5736,47.0887 28.0286,47.2607 27.4536,47.0127 C27.1356,46.8767 26.8436,46.6787 26.5436,46.5017 C26.4786,46.4627 26.4316,46.3927 26.3786,46.3347 C25.9846,45.9117 25.4856,45.7077 24.9206,45.6777 C24.6156,45.6617 24.3056,45.6987 23.9986,45.7227 C23.7146,45.7447 23.4546,45.9737 23.1486,45.8207 C23.1326,45.8127 23.1006,45.8377 23.0756,45.8447 C22.6156,45.9757 22.1426,46.0967 21.7476,46.3667 C21.2416,46.7127 20.8576,47.1707 20.6526,47.7707 C20.4976,48.2207 20.4346,48.6787 20.6476,49.1007 C20.9546,49.7077 20.9516,50.3337 20.8736,50.9717 C20.7906,51.6557 20.3926,52.1777 19.9186,52.6397 C19.7636,52.7917 19.5446,52.9077 19.3346,52.9687 C19.0616,53.0467 18.7676,53.0857 18.4846,53.0807 C18.1436,53.0737 17.8006,53.0187 17.4636,52.9537 C17.2186,52.9067 17.1286,52.6897 17.0506,52.4757 C16.9446,52.1857 17.0226,51.9187 17.1416,51.6557 C17.2926,51.3257 17.4596,51.0027 17.5896,50.6647 C17.7596,50.2267 17.8206,49.7617 17.8426,49.2937 C17.8476,49.1907 17.8536,49.0777 17.8196,48.9837 C17.7106,48.6767 17.5946,48.3717 17.4606,48.0747 C17.3156,47.7527 17.0666,47.5587 16.6986,47.5567 C16.4796,47.5557 16.2606,47.5657 16.0416,47.5677 C15.6546,47.5687 15.3546,47.7357 15.0876,48.0117 C14.7856,48.3247 14.7076,48.7377 14.5396,49.1097 C14.4716,49.2617 14.3906,49.4337 14.4006,49.5897 C14.4236,49.9467 14.3116,50.2527 14.1646,50.5627 C13.8886,51.1487 13.5156,51.6477 12.9546,51.9847 C12.8196,52.0657 12.6826,52.0837 12.4936,52.0547 C12.2886,52.0237 12.1306,51.9137 11.9516,51.8577 C11.6586,51.7687 11.4096,51.5427 11.3106,51.2317 C11.1916,50.8507 11.0936,50.4607 11.0186,50.0677 C10.9466,49.6947 10.4306,49.0677 10.0416,49.0507 C9.6006,49.0307 9.1606,48.9747 8.7216,48.9187 C8.6076,48.9037 8.5416,48.9477 8.4456,48.9887 C8.1406,49.1177 7.8886,49.4427 7.5146,49.2547 C7.4806,49.3677 7.4816,49.4957 7.4256,49.5287 C7.0676,49.7407 6.9456,50.1257 6.7346,50.4427 C6.6676,50.5427 6.6426,50.6827 6.6336,50.8067 C6.5716,51.6727 6.7826,52.4997 7.1426,53.2647 C7.3246,53.6497 7.4256,54.0117 7.4826,54.4287 C7.4996,54.5527 7.5096,54.6757 7.5156,54.7957 C7.7476,55.0827 7.9836,55.3657 8.2256,55.6447 C8.2476,55.4167 8.2616,55.1867 8.2736,54.9577 C8.2876,54.6937 8.1906,54.4277 8.2866,54.1637 C8.0656,53.8917 8.1596,53.5297 7.9996,53.2217 C7.7996,52.8367 7.7536,52.3737 7.5926,51.9637 C7.4576,51.6197 7.4496,51.2657 7.4786,50.9227 C7.4976,50.7057 7.6566,50.4857 7.7946,50.2987 C7.8806,50.1807 8.0426,50.1157 8.1756,50.0337 C8.6076,49.7667 9.0446,49.5227 9.5846,49.7167 C9.6526,49.7407 9.7406,49.7057 9.8166,49.7167 C9.9896,49.7417 10.1196,49.8027 10.2016,49.9917 C10.3966,50.4377 10.4866,50.9157 10.6556,51.3697 C10.7546,51.6367 10.8516,51.8707 11.0686,52.0557 C11.2066,52.1727 11.3286,52.3097 11.4556,52.4397 C11.8886,52.8827 12.4796,52.9667 13.0636,52.7567 C13.3806,52.6437 13.5786,52.4247 13.8126,52.2237 C14.5046,51.6297 14.8896,50.8667 15.0976,49.9947 C15.2276,49.4497 15.2796,48.8697 15.7676,48.4737 C15.8836,48.3797 15.9756,48.2857 16.1336,48.2857 C16.4286,48.2867 16.7576,48.1867 16.9076,48.5767 C16.9246,48.6197 16.9996,48.6377 17.0196,48.6797 C17.0706,48.7837 17.1386,48.8947 17.1396,49.0037 C17.1446,49.3677 17.1546,49.7367 17.0286,50.0877 C16.8126,50.6877 16.6106,51.2917 16.3706,51.8817 C16.2596,52.1537 16.2556,52.4097 16.3196,52.6827 C16.3476,52.8067 16.3746,52.9317 16.4026,53.0597 C16.6636,53.2387 16.9126,53.4647 17.2036,53.5937 C17.5096,53.7297 17.8556,53.7727 18.2156,53.8637 C18.3276,53.8357 18.4496,53.7757 18.5686,53.7817 C19.1266,53.8107 19.6586,53.7287 20.1176,53.3957 C20.3366,53.2367 20.5076,53.0137 20.7146,52.8387 C21.0856,52.5257 21.3266,52.1387 21.4636,51.6737 C21.5246,51.4637 21.6856,51.2757 21.7146,51.0657 C21.7626,50.7087 21.7826,50.3367 21.7386,49.9817 C21.6986,49.6517 21.5506,49.3367 21.4646,49.0127 C21.3996,48.7647 21.2836,48.4997 21.3206,48.2627 C21.4006,47.7497 21.7136,47.3287 22.1016,47.0007 C22.3076,46.8267 22.6016,46.6967 22.8686,46.6667 C23.2136,46.6287 23.5366,46.5177 23.8746,46.4647 C23.9606,46.4507 24.0466,46.4327 24.1336,46.4287 C24.2886,46.4207 24.4456,46.4357 24.5986,46.4187 C24.8836,46.3857 25.1696,46.3107 25.3776,46.6047 C25.4016,46.6377 25.4716,46.6447 25.5216,46.6527 C25.8316,46.7047 26.0316,46.8887 26.1616,47.1657 C26.1876,47.2207 26.2246,47.2907 26.2756,47.3127 C26.5936,47.4527 26.9166,47.5807 27.2376,47.7147 C27.4146,47.7887 27.5876,47.9207 27.7656,47.9277 C27.9516,47.9367 28.1376,47.8117 28.3466,47.8557 C28.4126,47.8697 28.5066,47.8307 28.5666,47.7877 C28.7986,47.6207 29.0426,47.4627 29.2436,47.2637 C29.5726,46.9387 29.7716,46.5327 29.8896,46.0827 C30.0216,45.5807 30.2296,45.0927 30.3106,44.5847 C30.4176,43.9097 30.3466,43.1977 30.8036,42.6127 C30.9476,42.0277 31.4416,41.8657 31.9246,41.7187 C32.1886,41.6387 32.4756,41.6197 32.7536,41.6057 C32.8716,41.5997 33.0116,41.6537 33.1116,41.7227 C33.4496,41.9537 33.6486,42.2967 33.7166,42.6887 C33.7886,43.1037 33.7756,43.5327 33.8416,43.9487 C33.9316,44.5207 33.7716,45.0427 33.5326,45.5317 C33.2756,46.0577 32.8536,46.4737 32.4246,46.8707 C32.2966,46.9887 32.1416,47.0797 32.0186,47.2017 C31.7236,47.4977 31.4676,47.8227 31.2916,48.2077 C31.1836,48.4437 31.0666,48.6777 30.9476,48.9097 C30.7846,49.2247 30.6526,49.5567 30.6976,49.9117 C30.7416,50.2567 30.8576,50.5917 30.9216,50.9357 C30.9696,51.1957 31.1176,51.3837 31.2956,51.5607 C31.3676,51.6327 31.4406,51.7057 31.5146,51.7747 C31.8696,52.1097 32.2836,52.3817 32.7446,52.4987 C33.1956,52.6127 33.6816,52.5757 34.1506,52.5367 C34.5756,52.5017 34.9346,52.2587 35.2636,52.0237 C35.5556,51.8137 35.8526,51.8547 36.1596,51.8167 C36.6036,51.7607 36.9096,52.1607 37.3356,52.1497 C37.3636,52.1497 37.4046,52.1917 37.4216,52.2247 C37.5986,52.5597 37.8256,52.8767 37.8416,53.2757 C37.8466,53.4377 37.9076,53.5507 38.0136,53.6857 C38.2006,53.9267 38.3356,54.2147 38.4606,54.4977 C38.5226,54.6377 38.5926,54.7447 38.7266,54.8107 C38.9936,54.9397 39.2546,55.0857 39.5306,55.1917 C39.6816,55.2497 39.8636,55.2747 40.0236,55.2547 C40.5556,55.1877 41.0236,54.9477 41.4586,54.6427 C41.5626,54.5697 41.6636,54.4787 41.7386,54.3757 C41.9566,54.0827 42.1686,53.7837 42.3686,53.4787 C42.7266,52.9317 42.5596,52.3307 42.5336,51.7447 C42.1736,51.1587 42.2736,50.4757 42.1416,49.8417 C42.1236,49.7527 42.1876,49.6427 42.2236,49.5457 C42.2666,49.4257 42.3036,49.2987 42.3726,49.1937 C42.6216,48.8177 42.8466,48.4497 43.3676,48.3367 C43.7806,48.2487 44.1296,48.3647 44.4986,48.4477 C44.6956,48.4927 44.9076,48.5657 45.0606,48.6907 C45.4536,49.0077 45.6036,49.4377 45.5146,49.9407 C45.5036,50.0037 45.4676,50.0687 45.4726,50.1287 C45.5566,50.8907 45.5166,51.6677 45.7486,52.4107 C45.7756,52.4977 45.8016,52.5887 45.8056,52.6787 C45.8276,53.2707 46.1836,53.5947 46.6926,53.7957 C46.9586,53.9017 47.2226,54.0157 47.4966,54.0957 C47.7036,54.1557 47.9086,54.2147 48.1426,54.1857 C48.3876,54.1547 48.6566,54.0537 48.8706,54.2417 C48.9606,54.1557 49.0286,54.0847 49.1016,54.0187 C49.2956,53.8457 49.5106,53.6927 49.6796,53.4997 C49.8456,53.3097 50.0266,53.1287 50.0726,52.8427 C50.1116,52.6057 50.2556,52.3857 50.3436,52.1547 C50.5926,51.4997 50.5646,50.8007 50.6446,50.1197 C50.6596,49.9957 50.6156,49.8617 50.5826,49.7367 C50.5286,49.5387 50.4716,49.3387 50.3956,49.1477 C50.2336,48.7357 50.5666,48.4757 50.6936,48.1567 C50.7536,48.0067 50.8846,47.8777 51.0076,47.7657 C51.0786,47.7007 51.1976,47.6877 51.2966,47.6537 C51.3676,47.6297 51.4636,47.6347 51.5116,47.5887 C51.8266,47.2837 52.1656,47.5417 52.4916,47.5357 C52.5136,47.5357 52.5376,47.5607 52.5556,47.5777 C52.9046,47.9067 53.1196,48.2727 53.0106,48.7877 C52.9476,49.0817 52.8196,49.3617 52.8286,49.6757 C52.8386,49.9997 52.8176,50.3247 52.7966,50.6487 C52.7636,51.1277 52.9746,51.5177 53.2846,51.8367" id="Fill-203" fill="#DACCAB"></path>
                        </g>
                        <g id="Group-2" fill="#EA8B2F">
                            <polygon id="Fill-377" points="3.31119121 82.6337 17.3901912 75.5727 19.7701912 80.3207 14.5811912 82.9217 16.7801912 87.3057 21.9691912 84.7037 24.3491912 89.4497 10.2701912 96.5107 7.89119121 91.7647 12.8781912 89.2627 10.6791912 84.8777 5.69219121 87.3797"></polygon>
                            <polygon id="Fill-379" points="2.23259121 77.6357 1.11359121 72.4457 16.5075912 69.1257 17.6275912 74.3157"></polygon>
                            <path d="M7.89809121,57.3515 L8.08909121,52.7445 L14.7410912,53.0205 C15.9650912,54.9845 16.5530912,57.6425 16.4570912,59.9575 C16.2470912,65.0375 12.6990912,68.6055 7.86709121,68.4045 C3.03509121,68.2045 -0.204908794,64.3555 0.0100912056,59.1635 C0.139091206,56.0615 1.32109121,53.6125 3.34309121,52.0975 L6.19109121,55.6145 C5.00309121,56.5555 4.37209121,57.6775 4.31409121,59.0715 C4.21709121,61.4095 5.66209121,62.9555 8.08809121,63.0555 C10.4490912,63.1545 12.0840912,61.7355 12.1780912,59.4655 C12.2050912,58.8135 12.1190912,58.1795 11.8760912,57.5165 L7.89809121,57.3515 Z" id="Fill-381"></path>
                            <polygon id="Fill-383" points="7.42689121 32.2597 22.0788912 38.0457 20.1288912 42.9857 14.7278912 40.8527 12.9268912 45.4157 18.3268912 47.5487 16.3758912 52.4887 1.72389121 46.7017 3.67489121 41.7627 8.86489121 43.8127 10.6678912 39.2487 5.47589121 37.1997"></polygon>
                            <polygon id="Fill-385" points="28.1270912 24.8261 31.1870912 27.4081 22.7440912 37.4121 10.7120912 27.2581 18.9660912 17.4771 22.0260912 20.0601 17.1370912 25.8521 18.5460912 27.0421 22.8400912 21.9541 25.7620912 24.4201 21.4690912 29.5081 23.0500912 30.8421"></polygon>
                            <path d="M31.4058912,13.3808 L29.7668912,14.4088 L31.7278912,17.5348 L33.3668912,16.5078 C34.6058912,15.7298 34.8258912,14.7688 34.2168912,13.7958 C33.6068912,12.8228 32.6448912,12.6038 31.4058912,13.3808 L31.4058912,13.3808 Z M35.0768912,20.1618 L33.8568912,20.9288 L35.9618912,24.2828 L31.4638912,27.1058 L23.0918912,13.7628 L29.5148912,9.7328 C33.2318912,7.4018 36.8148912,7.8608 38.7528912,10.9488 C39.9608912,12.8748 39.9548912,14.8978 38.8678912,16.7218 L44.2528912,19.0798 L39.4488912,22.0938 L35.0768912,20.1618 Z" id="Fill-387"></path>
                            <polygon id="Fill-389" points="64.9952912 0 59.8822912 16.321 54.6852912 16.825 46.5372912 1.785 52.2262912 1.235 56.8542912 10.035 59.7982912 0.502"></polygon>
                            <polygon id="Fill-391" points="67.7842912 0.8447 73.0442912 1.5897 70.8342912 17.1877 65.5752912 16.4427"></polygon>
                            <polygon id="Fill-393" points="79.3702912 7.4296 75.0522912 5.8136 76.4962912 1.9586 90.1022912 7.0546 88.6592912 10.9086 84.3422912 9.2916 80.2642912 20.1816 75.2922912 18.3206"></polygon>
                            <path d="M95.1065912,21.8017 L96.3445912,17.7407 L92.6995912,19.9137 L95.1065912,21.8017 Z M93.8985912,25.7137 L89.1885912,22.0227 L86.6635912,23.5307 L82.4135912,20.1987 L97.5465912,12.0507 L101.655591,15.2707 L97.3585912,31.9117 L93.0385912,28.5267 L93.8985912,25.7137 Z" id="Fill-395"></path>
                            <polygon id="Fill-397" points="103.719891 43.3876 109.927891 39.7816 103.227891 39.6756 102.065891 37.6456 105.149891 31.9366 99.1348912 35.3806 96.7298912 31.1826 110.400891 23.3536 112.569891 27.1426 107.834891 35.7666 117.603891 35.9296 119.772891 39.7186 106.124891 47.5866"></polygon>
                            <polygon id="Fill-399" points="120.903491 45.2197 122.132491 50.3837 106.815491 54.0267 105.587491 48.8627"></polygon>
                            <polygon id="Fill-401" points="123.110491 70.7363 107.364491 70.5963 107.403491 66.2323 114.610491 60.3123 107.456491 60.2493 107.503491 55.0763 123.249491 55.2153 123.210491 59.5803 116.003491 65.4993 123.155491 65.5623"></polygon>
                            <path d="M107.003091,88.2509 L111.212091,88.7939 L108.462091,85.5629 L107.003091,88.2509 Z M102.944091,87.7129 L105.798091,82.4539 L103.890091,80.2169 L106.464091,75.4709 L117.022091,89.0279 L114.533091,93.6149 L97.4120912,92.1579 L100.028091,87.3339 L102.944091,87.7129 Z" id="Fill-403"></path>
                        </g>
                        <g id="Group-501" transform="translate(25.272591, 29.452100)">
                            <path d="M47.0039,23.3169 C47.0039,13.9069 42.6419,5.5179 35.8299,0.0559 L35.8299,46.5779 C42.6419,41.1159 47.0039,32.7269 47.0039,23.3169" id="Fill-487" fill="#38AA47"></path>
                            <path d="M24.6548,23.3169 C24.6548,32.7269 29.0178,41.1159 35.8298,46.5779 L35.8298,0.0559 C29.0178,5.5179 24.6548,13.9069 24.6548,23.3169" id="Fill-489" fill="#83BE43"></path>
                            <path d="M20.3799,30.0518 C15.0359,24.7078 7.7939,22.4208 0.8239,23.1878 L27.2439,49.6078 C28.0109,42.6378 25.7239,35.3958 20.3799,30.0518" id="Fill-491" fill="#38AA47"></path>
                            <path d="M7.6875,42.7441 C13.0315,48.0881 20.2735,50.3741 27.2435,49.6081 L0.8235,23.1881 C0.0565,30.1581 2.3435,37.4001 7.6875,42.7441" id="Fill-493" fill="#83BE43"></path>
                            <path d="M64.3789,42.7295 C69.7229,37.3855 72.0099,30.1435 71.2419,23.1735 L44.8229,49.5935 C51.7929,50.3605 59.0349,48.0735 64.3789,42.7295" id="Fill-495" fill="#38AA47"></path>
                            <path d="M51.6865,30.0376 C46.3425,35.3816 44.0555,42.6236 44.8235,49.5936 L71.2425,23.1736 C64.2725,22.4066 57.0305,24.6936 51.6865,30.0376" id="Fill-497" fill="#83BE43"></path>
                        </g>
                    </g>
                </g>
            </g>
        </g>
    </g>
</svg>