<?xml version="1.0" encoding="UTF-8"?>
<svg width="15px" height="14px" viewBox="0 0 15 14" version="1.1" xmlns="http://www.w3.org/2000/svg" xmlns:xlink="http://www.w3.org/1999/xlink">
    <title>instagram (2)</title>
    <g id="Page-1" stroke="none" stroke-width="1" fill="none" fill-rule="evenodd">
        <g id="home" transform="translate(-873.000000, -6220.000000)" fill="#FFFFFF" fill-rule="nonzero">
            <g id="footer" transform="translate(0.000000, 5700.000000)">
                <g id="social" transform="translate(862.000000, 509.000000)">
                    <g id="Group-2" transform="translate(0.500000, 0.000000)">
                        <g id="instagram-(2)" transform="translate(11.000000, 11.000000)">
                            <path d="M13.9644179,4.11605085 C13.931614,3.37217465 13.8112974,2.86076643 13.6389434,2.41762436 C13.4611398,1.94723991 13.1875959,1.52610533 12.8292106,1.17601453 C12.479053,0.820475252 12.0550599,0.544205865 11.5900352,0.369213863 C11.144244,0.196892701 10.6354096,0.0765990499 9.89139145,0.0438013995 C9.14181697,0.00822611223 8.90385511,0 7.00272476,0 C5.1015944,0 4.86363254,0.00822611223 4.11683623,0.0410237626 C3.37281809,0.073821413 2.8613123,0.194221862 2.41819248,0.366436227 C1.94761146,0.544205865 1.52639653,0.817697615 1.17623892,1.17601453 C0.820631808,1.52610533 0.544416524,1.95001754 0.369284313,2.41495352 C0.19693027,2.86076643 0.0766136658,3.36939701 0.0438097573,4.11327321 C0.00822768186,4.86270469 0,5.10062115 0,7.00138882 C0,8.90215649 0.00822768186,9.14007295 0.0410315904,9.88672679 C0.0738354989,10.630603 0.194258922,11.1420112 0.366612965,11.5851533 C0.544416524,12.0555377 0.820631808,12.4766723 1.17623892,12.8267631 C1.52639653,13.1823024 1.95038963,13.4585718 2.41541432,13.6335638 C2.8613123,13.8058849 3.37003993,13.9261786 4.11416489,13.9589762 C4.86085438,13.9918807 5.09892306,14 7.00005341,14 C8.90118376,14 9.13914562,13.9918807 9.88594193,13.9589762 C10.6299601,13.9261786 11.1414659,13.8058849 11.5845857,13.6335638 C12.5256409,13.2697984 13.2696591,12.5259222 13.6334939,11.5851533 C13.8057411,11.1393404 13.9261645,10.630603 13.9589684,9.88672679 C13.9917723,9.14007295 14,8.90215649 14,7.00138882 C14,5.10062115 13.9972218,4.86270469 13.9644179,4.11605085 Z M12.7034445,9.83202844 C12.6733119,10.5157578 12.5584448,10.8849717 12.4627044,11.1311143 C12.2274139,11.7410222 11.7432625,12.2250813 11.1332382,12.4603269 C10.8870486,12.556049 10.515093,12.6708942 9.83390449,12.7009142 C9.09533587,12.7338186 8.87382937,12.7419379 7.00550292,12.7419379 C5.13717648,12.7419379 4.91289182,12.7338186 4.17699454,12.7009142 C3.4931347,12.6708942 3.12385038,12.556049 2.87766084,12.4603269 C2.57409116,12.3481525 2.29776906,12.1703829 2.0734844,11.9379149 C1.84097205,11.7108954 1.66316849,11.4374037 1.55097275,11.1338919 C1.45523237,10.8877493 1.34036529,10.5157578 1.31033954,9.83480608 C1.27742882,9.09637835 1.26930795,8.87480731 1.26930795,7.00683729 C1.26930795,5.13886728 1.27742882,4.9146254 1.31033954,4.17897531 C1.34036529,3.49524593 1.45523237,3.12603207 1.55097275,2.87988949 C1.66316849,2.57627093 1.84097205,2.30010834 2.07626256,2.07575967 C2.30321858,1.84329168 2.57676251,1.66552204 2.88043901,1.5534545 C3.12662855,1.45773239 3.49869103,1.34288722 4.1797727,1.3127604 C4.91834133,1.27996275 5.13995465,1.27173664 7.00817427,1.27173664 C8.87927888,1.27173664 9.10078538,1.27996275 9.83668266,1.3127604 C10.5205425,1.34288722 10.8898268,1.45773239 11.1360164,1.5534545 C11.439586,1.66552204 11.7159081,1.84329168 11.9401928,2.07575967 C12.1727051,2.30277918 12.3505087,2.57627093 12.4627044,2.87988949 C12.5584448,3.12603207 12.6733119,3.49791677 12.7034445,4.17897531 C12.7362484,4.91740304 12.7444761,5.13886728 12.7444761,7.00683729 C12.7444761,8.87480731 12.7362484,9.09360071 12.7034445,9.83202844 Z" id="Shape"></path>
                            <path d="M7,3 C4.79170625,3 3,4.79158747 3,7 C3,9.20841253 4.79170625,11 7,11 C9.20841253,11 11,9.20841253 11,7 C11,4.79158747 9.20841253,3 7,3 Z M7,9.59470056 C5.56737165,9.59470056 4.40529944,8.43274713 4.40529944,7 C4.40529944,5.56725287 5.56737165,4.40529944 7,4.40529944 C8.43274713,4.40529944 9.59470056,5.56725287 9.59470056,7 C9.59470056,8.43274713 8.43274713,9.59470056 7,9.59470056 L7,9.59470056 Z" id="Shape"></path>
                            <path d="M11,3 C11,3.5522331 10.5522616,4 9.9999364,4 C9.44773839,4 9,3.5522331 9,3 C9,2.44763966 9.44773839,2 9.9999364,2 C10.5522616,2 11,2.44763966 11,3 L11,3 Z" id="Path"></path>
                        </g>
                    </g>
                </g>
            </g>
        </g>
    </g>
</svg>