<?xml version="1.0" encoding="UTF-8"?>
<svg width="14px" height="13px" viewBox="0 0 14 13" version="1.1" xmlns="http://www.w3.org/2000/svg" xmlns:xlink="http://www.w3.org/1999/xlink">
    <title>Group 2 Copy 4</title>
    <g id="Page-1" stroke="none" stroke-width="1" fill="none" fill-rule="evenodd">
        <g id="home" transform="translate(-1035.000000, -6220.000000)" fill="#FFFFFF" fill-rule="nonzero">
            <g id="footer" transform="translate(0.000000, 5700.000000)">
                <g id="social" transform="translate(862.000000, 509.000000)">
                    <g id="Group-2-Copy-4" transform="translate(173.000000, 11.000000)">
                        <g id="linkedin-(1)" transform="translate(-0.000000, 0.000000)">
                            <path d="M1.5087324,0 C0.596461481,0 0,0.648197869 0,1.50016434 C0,2.33331509 0.578692918,3 1.47372684,3 L1.49103979,3 C2.4211552,3 3,2.33331509 3,1.50016434 C2.98261112,0.648197869 2.4211552,0 1.5087324,0 Z" id="Path"></path>
                            <polygon id="Path" points="0 4 3 4 3 13 0 13"></polygon>
                            <path d="M10.2284883,4 C8.46119263,4 7.27612419,5.48166368 7.27612419,5.48166368 L7.27612419,4.20638766 L4,4.20638766 L4,13 L7.27593765,13 L7.27593765,8.08930519 C7.27593765,7.8264106 7.29729779,7.56393209 7.38385769,7.37593625 C7.62068483,6.85097922 8.15963211,6.30713111 9.06468672,6.30713111 C10.2501283,6.30713111 10.7242489,7.11354095 10.7242489,8.29569285 L10.7242489,13 L14,13 L14,7.95789952 C14,5.25688422 12.3837178,4 10.2284883,4 Z" id="Path"></path>
                        </g>
                    </g>
                </g>
            </g>
        </g>
    </g>
</svg>