<?xml version="1.0" encoding="UTF-8"?>
<svg width="123px" height="106px" viewBox="0 0 123 106" version="1.1" xmlns="http://www.w3.org/2000/svg" xmlns:xlink="http://www.w3.org/1999/xlink">
    <title>5</title>
    <g id="Page-1" stroke="none" stroke-width="1" fill="none" fill-rule="evenodd">
        <g id="home" transform="translate(-423.000000, -2609.000000)">
            <g id="Group-3-Copy-2" transform="translate(0.000000, 1900.000000)">
                <g id="Group-19" transform="translate(422.000000, 134.000000)">
                    <g id="5" transform="translate(1.000000, 575.000000)">
                        <g id="Group-5" fill="#D2DA34">
                            <polygon id="Fill-267" points="17.7071 104.8338 14.3651 100.7938 23.2171 93.4728 18.7421 88.0628 21.8751 85.4718 29.6911 94.9218"></polygon>
                            <path d="M10.1827,77.4217 C7.9227,78.2897 7.1117,80.2677 7.8047,82.0707 C8.4977,83.8757 10.4237,84.8007 12.6847,83.9327 C14.9447,83.0647 15.7557,81.0877 15.0627,79.2837 C14.3697,77.4797 12.4437,76.5537 10.1827,77.4217 M14.5797,88.8687 C10.1837,90.5567 5.6607,88.3207 3.8437,83.5927 C2.0287,78.8647 3.8917,74.1747 8.2867,72.4857 C12.6837,70.7977 17.2067,73.0337 19.0237,77.7617 C20.8387,82.4897 18.9757,87.1797 14.5797,88.8687" id="Fill-269"></path>
                            <polygon id="Fill-271" points="0.253 53.3782 15.805 53.6342 15.733 57.9442 8.571 63.7372 15.636 63.8542 15.552 68.9642 0 68.7072 0.071 64.3982 7.233 58.6042 0.169 58.4872"></polygon>
                            <path d="M11.9317,39.8211 L13.5267,35.5541 L19.6877,37.8581 C20.2337,40.0781 19.9677,42.7551 19.1657,44.8991 C17.4077,49.6021 12.9807,51.8611 8.5057,50.1881 C4.0317,48.5151 2.1717,43.9051 3.9697,39.0981 C5.0437,36.2261 6.9067,34.2891 9.2697,33.4881 L10.8637,37.6661 C9.4587,38.1851 8.5217,39.0441 8.0387,40.3351 C7.2297,42.4991 8.1107,44.3941 10.3587,45.2351 C12.5427,46.0511 14.5137,45.2231 15.2997,43.1211 C15.5257,42.5171 15.6397,41.8951 15.6157,41.1981 L11.9317,39.8211 Z" id="Fill-273"></path>
                            <polygon id="Fill-275" points="27.0294 25.0325 30.1014 27.5225 21.9584 37.5665 9.8784 27.7725 17.8394 17.9525 20.9114 20.4435 16.1954 26.2595 17.6104 27.4065 21.7534 22.2985 24.6864 24.6775 20.5454 29.7845 22.1324 31.0725"></polygon>
                            <path d="M30.5411,13.3245 L28.9351,14.3595 L30.9091,17.4225 L32.5161,16.3875 C33.7291,15.6045 33.9361,14.6525 33.3211,13.6995 C32.7071,12.7475 31.7551,12.5415 30.5411,13.3245 L30.5411,13.3245 Z M34.2481,19.9765 L33.0531,20.7475 L35.1711,24.0345 L30.7641,26.8755 L22.3361,13.8025 L28.6301,9.7445 C32.2721,7.3965 35.8161,7.8095 37.7671,10.8345 C38.9821,12.7205 39.0011,14.7185 37.9501,16.5325 L43.2961,18.7975 L38.5891,21.8315 L34.2481,19.9765 Z" id="Fill-277"></path>
                            <path d="M48.6944,15.7713 L49.9084,11.7743 C51.4684,12.4573 53.4754,12.7723 55.1734,12.5653 C56.6504,12.3853 57.1424,12.0123 57.0784,11.4833 C56.8414,9.5423 48.4994,12.1473 47.7984,6.3933 C47.4494,3.5263 49.5684,0.8963 54.3524,0.3133 C56.4244,0.0613 58.6184,0.2423 60.3374,0.9503 L59.2314,4.9113 C57.6164,4.3243 56.1364,4.1243 54.7924,4.2883 C53.2704,4.4733 52.8394,4.9733 52.9034,5.5023 C53.1294,7.3543 61.4744,4.7713 62.1674,10.4603 C62.5104,13.2833 60.3974,15.9573 55.6134,16.5393 C53.0334,16.8543 50.3534,16.5313 48.6944,15.7713" id="Fill-279"></path>
                            <polygon id="Fill-281" points="81.3819 3.117 78.2199 18.338 73.0879 17.272 74.2539 11.662 69.5139 10.677 68.3489 16.287 63.2169 15.221 66.3779 0 71.5099 1.066 70.3899 6.459 75.1299 7.444 76.2499 2.051"></polygon>
                            <polygon id="Fill-283" points="92.5469 22.2923 90.5209 25.6903 79.4099 19.0653 87.3789 5.7033 98.2399 12.1803 96.2139 15.5783 89.7809 11.7413 88.8479 13.3073 94.4979 16.6763 92.5629 19.9213 86.9119 16.5523 85.8649 18.3083"></polygon>
                            <polygon id="Fill-285" points="102.6436 15.9271 106.1946 19.7841 97.7456 27.5621 102.4996 32.7261 99.5086 35.4791 91.2046 26.4591"></polygon>
                            <polygon id="Fill-287" points="112.3956 35.4339 110.0096 36.6219 112.9016 42.4279 109.3626 44.1899 106.4706 38.3849 102.0166 40.6029 99.6796 35.9109 113.5976 28.9789 119.2326 40.2919 115.6936 42.0549"></polygon>
                            <polygon id="Fill-289" points="122.3292 53.2913 122.5522 58.5313 111.0732 59.0203 111.3732 66.0363 107.3092 66.2083 106.7872 53.9543"></polygon>
                            <polygon id="Fill-291" points="122.1583 69.4764 121.2623 74.6404 105.9443 71.9804 106.8413 66.8164"></polygon>
                            <polygon id="Fill-293" points="114.4923 83.0296 112.0333 82.0006 109.5283 87.9846 105.8813 86.4586 108.3853 80.4746 103.7953 78.5536 105.8183 73.7166 120.1633 79.7196 115.2843 91.3806 111.6373 89.8536"></polygon>
                            <polygon id="Fill-295" points="95.3262 98.3665 92.2812 95.8435 100.5312 85.8875 112.5052 95.8105 104.4392 105.5435 101.3942 103.0205 106.1722 97.2555 104.7692 96.0935 100.5732 101.1565 97.6652 98.7465 101.8612 93.6835 100.2882 92.3795"></polygon>
                        </g>
                        <path d="M61.3731,43.0926 C51.1941,43.0926 42.9431,51.3436 42.9431,61.5216 C42.9431,71.6986 51.1941,79.9496 61.3731,79.9496 C71.5511,79.9496 79.8021,71.6986 79.8021,61.5216 C79.8021,51.3436 71.5511,43.0926 61.3731,43.0926 M102.0241,61.5216 C102.0241,83.9726 83.8241,102.1736 61.3731,102.1736 C38.9211,102.1736 20.7211,83.9726 20.7211,61.5216 C20.7211,39.0706 38.9211,20.8696 61.3731,20.8696 C83.8241,20.8696 102.0241,39.0706 102.0241,61.5216" id="Fill-373" fill="#F0A94A"></path>
                        <path d="M70.8087,33.2156 L63.3097,25.7156 C62.2397,24.6466 60.5057,24.6466 59.4357,25.7156 L51.9367,33.2156 C50.8677,34.2846 50.8677,36.0186 51.9367,37.0886 C53.0067,38.1576 54.7407,38.1576 55.8107,37.0886 L58.2647,34.6336 C58.2647,40.0706 58.2697,45.5076 58.2527,50.9446 C58.2497,51.9996 58.2697,53.0976 58.0027,54.1026 C57.2957,56.7606 54.9057,58.5216 51.9637,58.5546 C48.0127,58.5996 44.0607,58.5436 40.1107,58.5746 L42.0217,56.6646 C43.0907,55.5946 43.0907,53.8616 42.0217,52.7916 C40.9527,51.7216 39.2177,51.7216 38.1487,52.7916 L30.6497,60.2906 C30.1357,60.8036 29.8467,61.5006 29.8467,62.2266 C29.8467,62.9536 30.1357,63.6506 30.6497,64.1636 L38.1487,71.6626 C38.6837,72.1976 39.3837,72.4656 40.0847,72.4656 C40.7867,72.4656 41.4867,72.1976 42.0217,71.6626 C43.0907,70.5926 43.0907,68.8596 42.0217,67.7896 L39.9487,65.7156 C43.8357,65.7246 47.7257,65.6666 51.6047,65.8486 C53.4487,65.9356 55.4217,66.5616 57.0397,67.4696 C60.6707,69.5086 64.4817,69.1156 66.9457,66.0666 C69.3087,63.1416 68.8697,59.3816 66.1557,56.3286 C65.2287,55.2856 64.5627,53.6816 64.4747,52.2896 C64.2447,48.6276 64.3967,44.9426 64.3957,41.2656 C64.3957,39.0276 64.3967,36.7886 64.3967,34.5496 L66.9357,37.0886 C67.4697,37.6236 68.1707,37.8906 68.8717,37.8906 C69.5737,37.8906 70.2737,37.6236 70.8087,37.0886 C71.8777,36.0186 71.8777,34.2846 70.8087,33.2156" id="Fill-375" fill="#D2DA34"></path>
                    </g>
                </g>
            </g>
        </g>
    </g>
</svg>