<?xml version="1.0" encoding="UTF-8"?>
<svg width="123px" height="123px" viewBox="0 0 123 123" version="1.1" xmlns="http://www.w3.org/2000/svg" xmlns:xlink="http://www.w3.org/1999/xlink">
    <title>2</title>
    <g id="Page-1" stroke="none" stroke-width="1" fill="none" fill-rule="evenodd">
        <g id="home" transform="translate(-423.000000, -2034.000000)">
            <g id="Group-3-Copy-2" transform="translate(0.000000, 1900.000000)">
                <g id="Group-19" transform="translate(422.000000, 134.000000)">
                    <g id="2" transform="translate(1.000000, 0.000000)">
                        <g id="Group-3" fill="#D2DA34">
                            <polygon id="Fill-333" points="68.4824 0 73.6134 1.077 71.2544 12.318 78.1264 13.76 77.2914 17.739 65.2884 15.221"></polygon>
                            <polygon id="Fill-335" points="90.0342 20.0122 88.2222 23.5272 76.7312 17.6032 83.8552 3.7822 95.0912 9.5732 93.2782 13.0882 86.6252 9.6582 85.7902 11.2772 91.6352 14.2892 89.9042 17.6462 84.0592 14.6342 83.1242 16.4502"></polygon>
                            <path d="M88.3037,22.0302 L92.1477,20.3942 C92.6257,22.0292 93.6737,23.7702 94.9227,24.9392 C96.0097,25.9562 96.6117,26.0942 96.9757,25.7042 C98.3117,24.2772 90.9567,19.5532 94.9187,15.3202 C96.8927,13.2112 100.2707,13.1472 103.7897,16.4412 C105.3147,17.8682 106.5847,19.6652 107.1467,21.4392 L103.3987,23.1342 C102.8107,21.5192 102.0147,20.2572 101.0247,19.3302 C99.9057,18.2832 99.2447,18.2732 98.8807,18.6622 C97.6057,20.0252 104.9457,24.7652 101.0287,28.9502 C99.0847,31.0262 95.6777,31.1232 92.1577,27.8282 C90.2597,26.0522 88.7857,23.7902 88.3037,22.0302" id="Fill-337"></path>
                            <path d="M97.843726,30.7592 L101.9858,30.2172 C102.0068,31.9202 102.5468,33.8792 103.4358,35.3412 C104.2078,36.6132 104.7508,36.9062 105.2068,36.6302 C106.8768,35.6142 101.0658,29.0882 106.0198,26.0772 C108.4878,24.5772 111.7568,25.4242 114.2598,29.5432 C115.3438,31.3272 116.0828,33.3992 116.1478,35.2582 L112.0818,35.8832 C111.9498,34.1692 111.5238,32.7392 110.8208,31.5812 C110.0238,30.2712 109.3908,30.0842 108.9348,30.3612 C107.3408,31.3302 113.1338,37.8692 108.2368,40.8452 C105.8068,42.3222 102.4988,41.4982 99.9958,37.3792 C98.6468,35.1582 97.8348,32.5842 97.843726,30.7592" id="Fill-339"></path>
                            <path d="M106.5928,46.7304 L110.6328,47.7974 C110.0068,49.3814 109.7668,51.3994 110.0348,53.0894 C110.2698,54.5594 110.6598,55.0374 111.1878,54.9534 C113.1178,54.6464 110.2078,46.4024 115.9348,45.4904 C118.7868,45.0364 121.4938,47.0574 122.2518,51.8184 C122.5808,53.8814 122.4808,56.0794 121.8358,57.8244 L117.8358,56.8644 C118.3638,55.2284 118.5088,53.7424 118.2958,52.4034 C118.0548,50.8904 117.5388,50.4774 117.0118,50.5614 C115.1688,50.8544 118.0578,59.1014 112.3968,60.0024 C109.5878,60.4504 106.8368,58.4364 106.0788,53.6744 C105.6698,51.1074 105.8938,48.4174 106.5928,46.7304" id="Fill-341"></path>
                            <polygon id="Fill-343" points="109.8652 73.6181 105.9372 73.1571 107.4472 60.3151 122.8912 62.1311 121.4162 74.6851 117.4882 74.2241 118.3632 66.7881 116.5532 66.5761 115.7862 73.1061 112.0352 72.6651 112.8032 66.1351 110.7722 65.8961"></polygon>
                            <polygon id="Fill-345" points="104.5108 86.5439 100.8648 85.0089 105.8828 73.0909 120.2168 79.1269 115.3118 90.7779 111.6668 89.2429 114.5728 82.3419 112.8928 81.6359 110.3408 87.6969 106.8598 86.2319 109.4108 80.1699 107.5278 79.3769"></polygon>
                            <path d="M99.2891,93.3164 C97.8491,94.9784 97.8511,96.9774 99.6461,98.5334 C101.4421,100.0894 103.4221,99.8054 104.8611,98.1444 L106.3011,96.4824 L100.7281,91.6544 L99.2891,93.3164 Z M112.8211,95.1964 L107.8041,100.9874 C104.4011,104.9154 99.8281,105.6834 96.1851,102.5274 C92.5431,99.3724 92.6521,94.7354 96.0551,90.8084 L101.0711,85.0174 L112.8211,95.1964 Z" id="Fill-347"></path>
                            <path d="M91.7119,97.5614552 L92.2569,101.7015 C90.5549,101.7245 88.5969,102.2665 87.1369,103.1555 C85.8649,103.9295 85.5719,104.4725 85.8499,104.9275 C86.8659,106.5965 93.3859,100.7805 96.3999,105.7305 C97.9019,108.1955 97.0599,111.4655 92.9429,113.9725 C91.1599,115.0585 89.0899,115.7985 87.2319,115.8645 L86.6029,111.8015 C88.3159,111.6675 89.7449,111.2395 90.9019,110.5355 C92.2109,109.7375 92.3979,109.1045 92.1199,108.6495 C91.1499,107.0565 84.6179,112.8535 81.6379,107.9605 C80.1589,105.5325 80.9799,102.2255 85.0949,99.7185 C87.3149,98.3675 89.8879,97.5545 91.7119,97.5614552" id="Fill-349"></path>
                            <path d="M76.0342,111.1513 C76.4832,113.2143 75.2462,115.0523 73.2492,115.4883 C71.2512,115.9233 69.3182,114.7753 68.8692,112.7123 C68.4192,110.6493 69.6902,108.7573 71.6872,108.3223 C73.6852,107.8873 75.5852,109.0883 76.0342,111.1513" id="Fill-351"></path>
                            <polygon id="Fill-353" points="48.5606 105.2124 47.3236 112.1914 51.6716 107.2074 53.9446 107.6244 56.2836 113.5874 57.5186 106.8584 62.2166 107.7204 59.4076 123.0164 55.1686 122.2374 51.6836 113.1714 45.3356 120.4314 41.0966 119.6524 43.8626 104.3494"></polygon>
                            <path d="M29.7529,104.3823 C28.4539,106.4263 28.9799,108.4983 30.6109,109.5353 C32.2429,110.5713 34.3419,110.1683 35.6409,108.1243 C36.9399,106.0803 36.4139,104.0083 34.7819,102.9713 C33.1499,101.9353 31.0519,102.3383 29.7529,104.3823 M40.1049,110.9603 C37.5779,114.9363 32.6109,115.8343 28.3349,113.1173 C24.0599,110.4003 22.7629,105.5223 25.2889,101.5463 C27.8159,97.5703 32.7829,96.6733 37.0589,99.3893 C41.3339,102.1073 42.6309,106.9853 40.1049,110.9603" id="Fill-355"></path>
                            <path d="M16.4063,96.5039 L17.5933,98.0009 L20.4493,95.7359 L19.2613,94.2389 C18.3643,93.1079 17.3963,92.9959 16.5083,93.6999 C15.6203,94.4039 15.5093,95.3719 16.4063,96.5039 L16.4063,96.5039 Z M22.6643,92.1639 L23.5483,93.2779 L26.6123,90.8479 L29.8713,94.9569 L17.6843,104.6229 L13.0303,98.7559 C10.3383,95.3609 10.4013,91.7939 13.2213,89.5569 C14.9803,88.1619 16.9663,87.9479 18.8753,88.8169 L20.6053,83.2749 L24.0853,87.6619 L22.6643,92.1639 Z" id="Fill-357"></path>
                            <polygon id="Fill-359" points="12.6397 72.9311 16.3227 71.4891 21.0377 83.5311 6.5547 89.2021 1.9447 77.4301 5.6267 75.9871 8.3577 82.9601 10.0537 82.2961 7.6567 76.1711 11.1727 74.7941 13.5717 80.9181 15.4757 80.1731"></polygon>
                            <polygon id="Fill-361" points="4.041 60.916 6.707 60.96 6.813 54.473 10.769 54.538 10.661 61.025 15.638 61.107 15.552 66.35 -2.84217094e-14 66.094 0.208 53.453 4.163 53.518"></polygon>
                            <path d="M6.7949,43.8193 L6.2229,45.6423 L9.6979,46.7333 L10.2709,44.9103 C10.7029,43.5323 10.2519,42.6693 9.1719,42.3303 C8.0909,41.9913 7.2279,42.4423 6.7949,43.8193 L6.7949,43.8193 Z M13.8979,46.5613 L13.4719,47.9173 L17.2009,49.0883 L15.6319,54.0903 L0.7949,49.4333 L3.0369,42.2903 C4.3349,38.1573 7.3209,36.2083 10.7549,37.2863 C12.8959,37.9583 14.1869,39.4813 14.5389,41.5473 L20.0959,39.8683 L18.4189,45.2103 L13.8979,46.5613 Z" id="Fill-363"></path>
                            <path d="M14.1807,36.3628 L7.2487,31.3458 L10.3247,27.0968 L17.1297,32.0218 C19.0567,33.4168 20.3107,33.1998 21.1707,32.0108 C22.0317,30.8228 21.8447,29.5638 19.9187,28.1688 L13.1127,23.2428 L16.1357,19.0658 L23.0677,24.0828 C26.8487,26.8198 27.3857,30.6648 24.5837,34.5358 C21.7827,38.4068 17.9617,39.0988 14.1807,36.3628" id="Fill-365"></path>
                            <polygon id="Fill-367" points="19.333 16.435 23.302 13.007 33.47 24.777 29.502 28.206"></polygon>
                            <polygon id="Fill-369" points="31.1983 12.4194 27.2223 14.6404 25.2403 11.0914 37.7683 4.0924 39.7513 7.6424 35.7753 9.8624 41.3763 19.8894 36.7993 22.4464"></polygon>
                            <path d="M48.5059,10.5244 C48.1339,8.4474 49.4379,6.6564 51.4489,6.2954 C53.4609,5.9344 55.3499,7.1534 55.7219,9.2304 C56.0949,11.3074 54.7549,13.1504 52.7429,13.5114 C50.7319,13.8724 48.8789,12.6014 48.5059,10.5244" id="Fill-371"></path>
                        </g>
                        <path d="M95.69,38.562 C95.577,38.394 95.46,38.229 95.345,38.063 L69.695,55.325 C69.816,55.485 69.935,55.649 70.049,55.818 C73.404,60.805 72.062,67.537 67.096,70.922 C63.534,73.351 59.131,72.526 56.538,71.526 C50.931,69.363 48.473,63.404 50.42,57.718 C52.368,52.032 58.556,49.001 64.242,50.949 C64.434,51.015 64.624,51.086 64.81,51.162 L74.828,21.913 C74.637,21.845 74.448,21.775 74.256,21.709 C52.421,14.231 28.658,25.869 21.18,47.704 C16.763,60.602 19.02,74.17 26.105,84.66 L26.018,84.718 C26.128,84.888 26.237,85.058 26.351,85.226 C39.236,104.374 65.205,109.45 84.352,96.564 C103.5,83.678 108.576,57.71 95.69,38.562" id="Fill-499" fill="#F4B967"></path>
                    </g>
                </g>
            </g>
        </g>
    </g>
</svg>