<?xml version="1.0" encoding="UTF-8"?>
<svg width="13px" height="16px" viewBox="0 0 13 16" version="1.1" xmlns="http://www.w3.org/2000/svg" xmlns:xlink="http://www.w3.org/1999/xlink">
    <title>Fill 1</title>
    <g id="Page-1" stroke="none" stroke-width="1" fill="none" fill-rule="evenodd">
        <g id="where-to-find-it" transform="translate(-955.000000, -5161.000000)" fill="#FFFFFF">
            <g id="footer" transform="translate(0.000000, 4642.000000)">
                <g id="social" transform="translate(862.000000, 509.000000)">
                    <path d="M99.6899529,9.99623957 C95.6410946,9.99689583 93.489,12.8069371 93.489,15.8709821 C93.489,17.2916905 94.2219618,19.0643728 95.395572,19.626381 C95.7303493,19.7897272 95.6860393,19.5903805 95.9740545,18.3970192 C95.9968153,18.2977053 95.985132,18.211704 95.9112819,18.1190464 C94.2336451,16.0169843 95.5838896,11.6956083 99.450546,11.6956083 C105.046534,11.6956083 104.000921,20.0837315 100.424126,20.0837315 C99.5022411,20.0837315 98.8154355,19.29972 99.0326874,18.3297057 C99.2960667,17.174345 99.8118055,15.9323268 99.8118055,15.0996583 C99.8118055,13.00094 96.9254798,13.3122883 96.9254798,16.0929854 C96.9254798,16.9523418 97.20611,17.5323503 97.20611,17.5323503 C97.20611,17.5323503 96.2774455,21.59641 96.1051384,22.3557649 C95.8134306,23.6410963 96.1445154,25.7218143 96.1734497,25.9011295 C96.1913064,25.9997872 96.293456,26.0311314 96.3506898,25.9498177 C96.4423966,25.8198158 97.5648886,24.085134 97.879386,22.8310844 C97.9938536,22.3744214 98.4634073,20.5210504 98.4634073,20.5210504 C98.7729717,21.1264031 99.665317,21.6330668 100.616137,21.6330668 C103.444594,21.6330668 105.489,18.9397147 105.489,15.5976656 C105.479192,12.3936185 102.947952,9.99623957 99.6899529,9.99623957" id="Fill-1"></path>
                </g>
            </g>
        </g>
    </g>
</svg>