<?xml version="1.0" encoding="UTF-8"?>
<svg width="21px" height="21px" viewBox="0 0 21 21" version="1.1" xmlns="http://www.w3.org/2000/svg" xmlns:xlink="http://www.w3.org/1999/xlink">
    <title>printer</title>
    <g id="Page-1" stroke="none" stroke-width="1" fill="none" fill-rule="evenodd">
        <g id="recipes-detail" transform="translate(-327.000000, -1537.000000)" fill="#FFFFFF" fill-rule="nonzero">
            <g id="Group-4" transform="translate(269.000000, 1527.000000)">
                <g id="printer" transform="translate(58.000000, 10.000000)">
                    <path d="M20.2499859,5.25001099 L16.5,5.25001099 L16.5,0.750014125 C16.5,0.335785899 16.1642172,0 15.749989,0 L5.25001099,0 C4.83578276,0 4.5,0.335785899 4.5,0.750014125 L4.5,5.25001099 L0.750014125,5.25001099 C0.335785899,5.25001099 0,5.58579688 0,5.99998117 L0,15.749989 C0,16.1642172 0.335785899,16.5 0.750014125,16.5 L4.5,16.5 L4.5,20.2499859 C4.5,20.6642141 4.83578276,21 5.25001099,21 L15.749989,21 C16.1642172,21 16.5,20.6642141 16.5,20.2499859 L16.5,16.5 L20.2499859,16.5 C20.6642141,16.5 21,16.1642172 21,15.749989 L21,5.99998117 C21,5.58579688 20.6642141,5.25001099 20.2499859,5.25001099 Z M5.99998117,1.49998431 L14.9999812,1.49998431 L14.9999812,5.24996704 L5.99998117,5.24996704 L5.99998117,1.49998431 Z M14.9999812,19.4999717 L5.99998117,19.4999717 L5.99998117,12.7499765 L14.9999812,12.7499765 L14.9999812,19.4999717 Z M19.4999717,15.0000188 L16.4999592,15.0000188 L16.4999592,12.7499765 L17.2499733,12.7499765 C17.6642015,12.7499765 17.9999843,12.4141906 17.9999843,11.9999623 C17.9999843,11.5857341 17.6642015,11.2499953 17.2499733,11.2499953 L3.74998274,11.2499953 C3.33575451,11.2499953 2.99996861,11.5857781 2.99996861,12.0000063 C2.99996861,12.4142345 3.33575451,12.7500204 3.74998274,12.7500204 L4.49999686,12.7500204 L4.49999686,15.0000188 L1.49998431,15.0000188 L1.49998431,6.74999529 L19.4999717,6.74999529 L19.4999717,15.0000188 Z" id="Shape"></path>
                    <path d="M18.3333333,8 L17.6666667,8 C17.2984707,8 17,8.4477061 17,9 C17,9.5522939 17.2984707,10 17.6666667,10 L18.3333333,10 C18.7015293,10 19,9.5522939 19,9 C19,8.4477061 18.7015293,8 18.3333333,8 Z" id="Path"></path>
                    <path d="M13.249989,14 L8.75001099,14 C8.33578449,14 8,14.4477061 8,15 C8,15.5522939 8.33578449,16 8.75001099,16 L13.249989,16 C13.6642155,16 14,15.5522939 14,15 C14,14.4477061 13.6642155,14 13.249989,14 Z" id="Path"></path>
                    <path d="M13.249989,16 L8.75001099,16 C8.33578449,16 8,16.4477061 8,17 C8,17.5522939 8.33578449,18 8.75001099,18 L13.249989,18 C13.6642155,18 14,17.5522939 14,17 C14,16.4477061 13.6642155,16 13.249989,16 Z" id="Path"></path>
                </g>
            </g>
        </g>
    </g>
</svg>