<?xml version="1.0" encoding="UTF-8"?>
<svg width="20px" height="20px" viewBox="0 0 20 20" version="1.1" xmlns="http://www.w3.org/2000/svg" xmlns:xlink="http://www.w3.org/1999/xlink">
    <title>loupe</title>
    <g id="Page-1" stroke="none" stroke-width="1" fill="none" fill-rule="evenodd">
        <g id="recipes-detail" transform="translate(-1864.000000, -33.000000)" fill="#FFFFFF" fill-rule="nonzero">
            <g id="search" transform="translate(1846.000000, 15.000000)">
                <g id="loupe" transform="translate(18.000000, 18.000000)">
                    <path d="M8.5,0 C3.8132268,0 0,3.8132268 0,8.5 C0,13.1870371 3.8132268,17 8.5,17 C13.1870371,17 17,13.1870371 17,8.5 C17,3.8132268 13.1870371,0 8.5,0 Z M8.5,15.4308058 C4.67840416,15.4308058 1.56923193,12.3216335 1.56923193,8.5000377 C1.56923193,4.67844186 4.67840416,1.56923193 8.5,1.56923193 C12.3215958,1.56923193 15.4307681,4.67840416 15.4307681,8.5 C15.4307681,12.3215958 12.3215958,15.4308058 8.5,15.4308058 Z" id="Shape"></path>
                    <path d="M19.7726718,18.6755988 L15.3244085,14.2273286 C15.0213042,13.9242238 14.5304325,13.9242238 14.2273282,14.2273286 C13.9242239,14.5301724 13.9242239,15.0215667 14.2273282,15.3244105 L18.6755915,19.7726807 C18.8271251,19.9242145 19.0255165,20 19.2241317,20 C19.4224859,20 19.621101,19.9242145 19.7726718,19.7726807 C20.0757761,19.4698369 20.0757761,18.9784426 19.7726718,18.6755988 Z" id="Path"></path>
                </g>
            </g>
        </g>
    </g>
</svg>