<?xml version="1.0" encoding="UTF-8"?>
<svg width="21px" height="21px" viewBox="0 0 21 21" version="1.1" xmlns="http://www.w3.org/2000/svg" xmlns:xlink="http://www.w3.org/1999/xlink">
    <title>sharing</title>
    <g id="Page-1" stroke="none" stroke-width="1" fill="none" fill-rule="evenodd">
        <g id="recipes-detail" transform="translate(-278.000000, -1537.000000)" fill="#FFFFFF" fill-rule="nonzero">
            <g id="Group-4" transform="translate(269.000000, 1527.000000)">
                <g id="sharing" transform="translate(9.000000, 10.000000)">
                    <path d="M16.078125,11.1369863 C14.4275665,11.1369863 12.9641418,11.9553724 12.0709305,13.2083155 L7.97978213,10.7900792 C8.1242981,10.3704516 8.203125,9.92032319 8.203125,9.45205479 C8.203125,9.16936003 8.1744461,8.89308649 8.11997222,8.62628425 L14.8521423,5.74571918 C15.4920502,6.5037457 16.4474258,6.98630137 17.5136719,6.98630137 C19.4359589,6.98630137 21,5.41919951 21,3.49315068 C21,1.56710186 19.4359589,0 17.5136719,0 C15.5913849,0 14.0273438,1.56710186 14.0273438,3.49315068 C14.0273438,3.7613977 14.0587463,4.02226027 14.1161041,4.27333048 L7.47365571,7.11552867 C6.73249053,6.04494863 5.4975357,5.34246575 4.1015625,5.34246575 C1.8399353,5.34246575 0,7.18600171 0,9.45205479 C0,11.7181079 1.8399353,13.5616438 4.1015625,13.5616438 C5.30735781,13.5616438 6.39315034,13.0375107 7.14424897,12.2048373 L11.3517151,14.6917808 C11.2246628,15.1289063 11.15625,15.5909139 11.15625,16.0684932 C11.15625,18.7877248 13.3642044,21 16.078125,21 C18.7920456,21 21,18.7877248 21,16.0684932 C21,13.3492615 18.7920456,11.1369863 16.078125,11.1369863 Z M17.5136719,1.64383562 C18.5313721,1.64383562 19.359375,2.4734589 19.359375,3.49315068 C19.359375,4.51284247 18.5313721,5.34246575 17.5136719,5.34246575 C16.4959717,5.34246575 15.6679688,4.51284247 15.6679688,3.49315068 C15.6679688,2.4734589 16.4959717,1.64383562 17.5136719,1.64383562 Z M4.1015625,11.9178082 C2.74452207,11.9178082 1.640625,10.8117509 1.640625,9.45205479 C1.640625,8.09235871 2.74452207,6.98630137 4.1015625,6.98630137 C5.45860293,6.98630137 6.5625,8.09235871 6.5625,9.45205479 C6.5625,10.8117509 5.45860293,11.9178082 4.1015625,11.9178082 Z M16.078125,19.3561644 C14.2687912,19.3561644 12.796875,17.8813677 12.796875,16.0684932 C12.796875,14.2556186 14.2687912,12.7808219 16.078125,12.7808219 C17.8874588,12.7808219 19.359375,14.2556186 19.359375,16.0684932 C19.359375,17.8813677 17.8874588,19.3561644 16.078125,19.3561644 Z" id="Shape"></path>
                </g>
            </g>
        </g>
    </g>
</svg>