<?xml version="1.0" encoding="UTF-8"?>
<svg width="15px" height="12px" viewBox="0 0 15 12" version="1.1" xmlns="http://www.w3.org/2000/svg" xmlns:xlink="http://www.w3.org/1999/xlink">
    <title>Group 2 Copy 2</title>
    <g id="Page-1" stroke="none" stroke-width="1" fill="none" fill-rule="evenodd">
        <g id="home" transform="translate(-994.000000, -6221.000000)" fill="#FFFFFF" fill-rule="nonzero">
            <g id="footer" transform="translate(0.000000, 5700.000000)">
                <g id="social" transform="translate(862.000000, 509.000000)">
                    <g id="twitter-(2)" transform="translate(132.000000, 12.000000)">
                        <path d="M15,1.42061538 C14.4421875,1.66153846 13.8478125,1.82123077 13.228125,1.89876923 C13.865625,1.524 14.3521875,0.935076923 14.5809375,0.225230769 C13.9865625,0.574153846 13.3303125,0.820615385 12.6309375,0.958153846 C12.0665625,0.366461538 11.2621875,0 10.3846875,0 C8.6821875,0 7.3115625,1.36061538 7.3115625,3.02861538 C7.3115625,3.26861538 7.3321875,3.49938462 7.3828125,3.71907692 C4.82625,3.59630769 2.5640625,2.38984615 1.044375,0.552 C0.7790625,1.00523077 0.6234375,1.524 0.6234375,2.08246154 C0.6234375,3.13107692 1.171875,4.06061538 1.989375,4.59876923 C1.4953125,4.58953846 1.010625,4.44830769 0.6,4.22584615 C0.6,4.23507692 0.6,4.24707692 0.6,4.25907692 C0.6,5.73046154 1.6659375,6.95261538 3.06375,7.23415385 C2.8134375,7.30153846 2.540625,7.33384615 2.2575,7.33384615 C2.060625,7.33384615 1.861875,7.32276923 1.6753125,7.28215385 C2.07375,8.48123077 3.204375,9.36276923 4.54875,9.39138462 C3.5025,10.1972308 2.1740625,10.6827692 0.7359375,10.6827692 C0.48375,10.6827692 0.241875,10.6716923 0,10.6412308 C1.3621875,11.5061538 2.9765625,12 4.7175,12 C10.37625,12 13.47,7.38461538 13.47,3.384 C13.47,3.25015385 13.4653125,3.12092308 13.45875,2.99261538 C14.0690625,2.56615385 14.581875,2.03353846 15,1.42061538 Z" id="Path"></path>
                    </g>
                </g>
            </g>
        </g>
    </g>
</svg>