<?xml version="1.0" encoding="UTF-8"?>
<svg width="14px" height="11px" viewBox="0 0 14 11" version="1.1" xmlns="http://www.w3.org/2000/svg" xmlns:xlink="http://www.w3.org/1999/xlink">
    <title>Group 2 Copy 3</title>
    <g id="Page-1" stroke="none" stroke-width="1" fill="none" fill-rule="evenodd">
        <g id="home" transform="translate(-954.000000, -6222.000000)" fill="#FFFFFF" fill-rule="nonzero">
            <g id="footer" transform="translate(0.000000, 5700.000000)">
                <g id="social" transform="translate(862.000000, 509.000000)">
                    <g id="vimeo" transform="translate(92.000000, 13.000000)">
                        <path d="M11.9611455,0 C13.3156809,0.034679674 13.9932844,0.7838915 14,2.24959848 C14,2.3457855 13.9966422,2.44589852 13.9912697,2.54862887 C13.9315009,3.79120814 12.9825874,5.48396883 11.1404998,7.62625662 C9.24065813,9.87062043 7.62891543,10.994111 6.30527174,11 C5.48193985,11 4.79829232,10.3129499 4.24962824,8.93819523 L3.67343023,7.05371483 L3.10394781,5.17185176 C2.68422315,3.80822081 2.23562143,3.127714 1.75679954,3.127714 C1.65203626,3.127714 1.2887226,3.32663137 0.664843862,3.72315746 L0,2.95693296 L1.03151533,2.12200345 L2.04624167,1.29558027 C2.95486161,0.586282791 3.64589629,0.202843376 4.12001727,0.145916364 C4.18314386,0.13937303 4.24627045,0.137410029 4.31074015,0.137410029 C5.28382981,0.137410029 5.89159112,0.818571174 6.12999472,2.1815478 C6.2629635,2.95889596 6.37309925,3.5909821 6.46241665,4.07649753 C6.54904782,4.56332163 6.62157625,4.90226637 6.67933036,5.09529475 C7.00100734,6.38433169 7.34753202,7.03212182 7.72024752,7.03735649 C8.00633185,7.03735649 8.44687485,6.6172744 9.04187653,5.77711023 C9.62344702,4.91404438 9.93639373,4.27476057 9.97668729,3.85860449 C9.98944692,3.77419547 9.99414784,3.69502112 9.99414784,3.62173577 C9.99414784,3.05835465 9.67582866,2.77764559 9.04187653,2.77764559 C8.72019955,2.77764559 8.37703267,2.8443876 8.00968964,2.9732913 C8.66781791,0.996549878 9.93303593,0.00654333472 11.8040006,0 C11.8563822,0 11.9080923,0 11.9611455,0 Z" id="Path"></path>
                    </g>
                </g>
            </g>
        </g>
    </g>
</svg>